<svg version="1.1" xmlns="http://www.w3.org/2000/svg" viewBox="0 0 1036.9999084472656 107.19999694824219" width="1036.9999084472656" height="107.19999694824219">
  <!-- svg-source:excalidraw -->
  
  <defs>
    <style>
      @font-face {
        font-family: "Virgil";
        src: url("https://excalidraw.com/Virgil.woff2");
      }
      @font-face {
        font-family: "Cascadia";
        src: url("https://excalidraw.com/Cascadia.woff2");
      }
    </style>
  </defs>
  <rect x="0" y="0" width="1036.9999084472656" height="107.19999694824219" fill="#ffffff"></rect><g stroke-linecap="round" transform="translate(257.133290608724 23.599998474121094) rotate(0 79 30)"><path d="M0 0 L158 0 L158 60 L0 60" stroke="none" stroke-width="0" fill="#15aabf"></path><path d="M0 0 C53.42 0, 106.83 0, 158 0 M0 0 C34.19 0, 68.38 0, 158 0 M158 0 C158 18.66, 158 37.31, 158 60 M158 0 C158 20.35, 158 40.7, 158 60 M158 60 C103.02 60, 48.04 60, 0 60 M158 60 C117.52 60, 77.04 60, 0 60 M0 60 C0 37.09, 0 14.19, 0 0 M0 60 C0 45.72, 0 31.43, 0 0" stroke="#000000" stroke-width="1" fill="none"></path></g><g transform="translate(262.133290608724 41.099998474121094) rotate(0 74 12.5)"><text x="74" y="18" font-family="Virgil, Segoe UI Emoji" font-size="20px" fill="#000000" text-anchor="middle" style="white-space: pre;" direction="ltr">user:passwd@</text></g><g stroke-linecap="round" transform="translate(427.0999450683594 23.599998474121094) rotate(0 79 30)"><path d="M0 0 L158 0 L158 60 L0 60" stroke="none" stroke-width="0" fill="#228be6"></path><path d="M0 0 C52.67 0, 105.33 0, 158 0 M0 0 C51.17 0, 102.34 0, 158 0 M158 0 C158 17.27, 158 34.55, 158 60 M158 0 C158 23.59, 158 47.17, 158 60 M158 60 C123.6 60, 89.19 60, 0 60 M158 60 C120.9 60, 83.79 60, 0 60 M0 60 C0 36.55, 0 13.1, 0 0 M0 60 C0 46.13, 0 32.27, 0 0" stroke="#000000" stroke-width="1" fill="none"></path></g><g transform="translate(432.0999450683594 41.099998474121094) rotate(0 74 12.5)"><text x="74" y="18" font-family="Virgil, Segoe UI Emoji" font-size="20px" fill="#000000" text-anchor="middle" style="white-space: pre;" direction="ltr">host:port</text></g><g stroke-linecap="round" transform="translate(593.0665995279948 23.599998474121094) rotate(0 68.99999999999994 30)"><path d="M0 0 L138 0 L138 60 L0 60" stroke="none" stroke-width="0" fill="#12b886"></path><path d="M0 0 C33 0, 66 0, 138 0 M0 0 C46.54 0, 93.08 0, 138 0 M138 0 C138 15.67, 138 31.33, 138 60 M138 0 C138 15.24, 138 30.48, 138 60 M138 60 C86.8 60, 35.6 60, 0 60 M138 60 C92.44 60, 46.89 60, 0 60 M0 60 C0 40.87, 0 21.74, 0 0 M0 60 C0 47.8, 0 35.6, 0 0" stroke="#000000" stroke-width="1" fill="none"></path></g><g transform="translate(598.0665995279948 41.099998474121094) rotate(0 63.99999999999994 12.5)"><text x="64" y="18" font-family="Virgil, Segoe UI Emoji" font-size="20px" fill="#000000" text-anchor="middle" style="white-space: pre;" direction="ltr">path</text></g><g stroke-linecap="round" transform="translate(739.0332539876301 23.599998474121094) rotate(0 69 30)"><path d="M0 0 L138 0 L138 60 L0 60" stroke="none" stroke-width="0" fill="#e64980"></path><path d="M0 0 C51.08 0, 102.16 0, 138 0 M0 0 C38.51 0, 77.02 0, 138 0 M138 0 C138 19.27, 138 38.55, 138 60 M138 0 C138 22.3, 138 44.6, 138 60 M138 60 C90.51 60, 43.02 60, 0 60 M138 60 C98.3 60, 58.6 60, 0 60 M0 60 C0 37.96, 0 15.92, 0 0 M0 60 C0 39.6, 0 19.2, 0 0" stroke="#000000" stroke-width="1" fill="none"></path></g><g transform="translate(744.0332539876301 41.099998474121094) rotate(0 64 12.5)"><text x="64" y="18" font-family="Virgil, Segoe UI Emoji" font-size="20px" fill="#000000" text-anchor="middle" style="white-space: pre;" direction="ltr">?query</text></g><g stroke-linecap="round" transform="translate(888.9999084472656 23.599998474121094) rotate(0 69 30)"><path d="M0 0 L138 0 L138 60 L0 60" stroke="none" stroke-width="0" fill="#be4bdb"></path><path d="M0 0 C38.06 0, 76.12 0, 138 0 M0 0 C49.41 0, 98.81 0, 138 0 M138 0 C138 12.73, 138 25.46, 138 60 M138 0 C138 19.51, 138 39.01, 138 60 M138 60 C103.03 60, 68.06 60, 0 60 M138 60 C100.85 60, 63.7 60, 0 60 M0 60 C0 43.36, 0 26.72, 0 0 M0 60 C0 36.24, 0 12.47, 0 0" stroke="#000000" stroke-width="1" fill="none"></path></g><g transform="translate(893.9999084472656 41.099998474121094) rotate(0 64 12.5)"><text x="64" y="18" font-family="Virgil, Segoe UI Emoji" font-size="20px" fill="#000000" text-anchor="middle" style="white-space: pre;" direction="ltr">#fragment</text></g><g stroke-linecap="round" transform="translate(180.16663614908862 23.599998474121094) rotate(0 32.5 30)"><path d="M0 0 L65 0 L65 60 L0 60" stroke="none" stroke-width="0" fill="#fab005"></path><path d="M0 0 C21.92 0, 43.84 0, 65 0 M0 0 C25.17 0, 50.35 0, 65 0 M65 0 C65 17.78, 65 35.57, 65 60 M65 0 C65 16.87, 65 33.73, 65 60 M65 60 C41.41 60, 17.82 60, 0 60 M65 60 C49.08 60, 33.16 60, 0 60 M0 60 C0 40.15, 0 20.3, 0 0 M0 60 C0 44.88, 0 29.76, 0 0" stroke="#000000" stroke-width="1" fill="none"></path></g><g transform="translate(185.16663614908862 41.099998474121094) rotate(0 27.5 12.5)"><text x="27.5" y="18" font-family="Virgil, Segoe UI Emoji" font-size="20px" fill="#000000" text-anchor="middle" style="white-space: pre;" direction="ltr">://</text></g><g stroke-linecap="round" transform="translate(16.199981689453125 23.599998474121094) rotate(0 79 30)"><path d="M0 0 L158 0 L158 60 L0 60" stroke="none" stroke-width="0" fill="#82c91e"></path><path d="M0 0 C56.89 0, 113.78 0, 158 0 M0 0 C50.58 0, 101.16 0, 158 0 M158 0 C158 22.08, 158 44.15, 158 60 M158 0 C158 21.29, 158 42.57, 158 60 M158 60 C97.36 60, 36.71 60, 0 60 M158 60 C125.68 60, 93.36 60, 0 60 M0 60 C0 45.38, 0 30.77, 0 0 M0 60 C0 39.23, 0 18.46, 0 0" stroke="#000000" stroke-width="1" fill="none"></path></g><g transform="translate(21.199981689453125 41.099998474121094) rotate(0 74 12.5)"><text x="74" y="18" font-family="Virgil, Segoe UI Emoji" font-size="20px" fill="#000000" text-anchor="middle" style="white-space: pre;" direction="ltr">scheme</text></g><g stroke-linecap="round" transform="translate(10 10) rotate(0 120.80003356933594 43.599998474121094)"><path d="M21.8 0 M21.8 0 C92.29 3.78, 161.24 6.1, 219.8 0 M219.8 0 C235.51 -0.93, 238.71 8.72, 241.6 21.8 M241.6 21.8 C240.52 34.06, 245.15 38.57, 241.6 65.4 M241.6 65.4 C245.26 80.39, 233.7 88.99, 219.8 87.2 M219.8 87.2 C159.34 85.81, 99.9 91.57, 21.8 87.2 M21.8 87.2 C7.94 90.21, -0.28 77.23, 0 65.4 M0 65.4 C-0.85 51.12, -1.54 38.21, 0 21.8 M0 21.8 C1.07 4.72, 6.92 3.53, 21.8 0" stroke="#495057" stroke-width="2.5" fill="none" stroke-dasharray="8 10"></path></g><g stroke-linecap="round" transform="translate(420.8000030517578 10) rotate(0 231.60011291503906 43.599998474121094)"><path d="M21.8 0 M21.8 0 C167.96 -0.63, 313.82 -2.96, 441.4 0 M441.4 0 C457.92 1.29, 465.63 10.87, 463.2 21.8 M463.2 21.8 C464.46 33.2, 461.6 53.33, 463.2 65.4 M463.2 65.4 C462.42 82.33, 459.79 84.26, 441.4 87.2 M441.4 87.2 C278.06 86.54, 111.16 87.69, 21.8 87.2 M21.8 87.2 C6.65 83.59, -0.2 82.08, 0 65.4 M0 65.4 C-3.36 52.5, -3.7 35.41, 0 21.8 M0 21.8 C-1.51 7.06, 5.06 0.95, 21.8 0" stroke="#495057" stroke-width="2.5" fill="none" stroke-dasharray="8 10"></path></g></svg>