<svg version="1.1" xmlns="http://www.w3.org/2000/svg" viewBox="0 0 1098.4000244140625 98.39996337890625" width="1098.4000244140625" height="98.39996337890625">
  <!-- svg-source:excalidraw -->
  
  <defs>
    <style>
      @font-face {
        font-family: "Virgil";
        src: url("https://excalidraw.com/Virgil.woff2");
      }
      @font-face {
        font-family: "Cascadia";
        src: url("https://excalidraw.com/Cascadia.woff2");
      }
    </style>
  </defs>
  <g stroke-linecap="round" transform="translate(10 10) rotate(0 103.19999694824219 39.199981689453125)"><path d="M0 0 C0 0, 0 0, 0 0 M0 0 C0 0, 0 0, 0 0 M-1.02 6.97 C1.49 4.72, 2.57 2.61, 5.49 1.05 M-0.21 6.76 C1.03 4.8, 1.7 4.31, 4.89 0.67 M1.72 11.77 C2.23 8.5, 4.85 5.22, 10.87 -0.05 M0.53 12.6 C4.45 8.12, 7.02 4.07, 10.31 0.68 M-0.85 18.83 C2.29 12.69, 5.59 10.25, 15.36 -0.81 M0.73 18.88 C5.53 11.12, 11.59 6.22, 14.91 0.21 M0.03 22.61 C5.8 18.44, 9.88 11.52, 22.26 -2.04 M-0.29 24.92 C5.86 17.16, 11.84 11.91, 21.14 -0.35 M-1.67 28.95 C9.15 21.16, 16.13 14.24, 27.74 -1.01 M0.96 29.57 C8.18 21.21, 16.06 12.56, 26.19 0.58 M0.16 36.53 C7.1 30.46, 15.82 20.46, 30.04 -0.95 M0.05 36.51 C8.63 27.26, 17.24 16.3, 32.2 -0.9 M1.62 42.62 C14.05 29.43, 25.48 11.62, 37.69 0.62 M-0.4 42.33 C12.42 28.06, 24.11 13.58, 36.73 0.7 M0.26 46.93 C8.75 38.63, 17.41 27.95, 42.24 1.39 M-0.95 49.53 C11.47 35.83, 22.69 22.86, 42.83 -0.01 M-0.86 53.89 C15.8 35.72, 33.08 18.92, 46.37 1.86 M0.03 54.99 C15.1 39.76, 28.17 23.3, 47.5 -0.57 M-1.04 60.23 C20.84 39.98, 36.42 16.39, 52.68 -1.15 M0.94 60.67 C14.27 44.22, 29.4 26.39, 53.8 -0.97 M-1.82 69.26 C22.72 42.7, 45.49 13.56, 59.78 1.13 M0.28 68.09 C19.17 43.78, 39.43 20.79, 57.31 1.09 M0.39 74.72 C20.56 50.46, 42.38 26.04, 63.04 -1.07 M0.48 73.28 C22.95 47.84, 43.32 20.56, 64.2 -0.14 M0.51 77.84 C22.56 52.5, 44.07 28.34, 70.76 -0.47 M1.36 78.05 C16.82 61.47, 31.42 43.28, 67.77 0.37 M4.75 77.33 C20.33 60.73, 38.03 43.38, 72.84 0.8 M6.48 79.11 C25.46 56.79, 43.83 35.04, 74.45 0.03 M12.29 76.85 C38.11 48.94, 64.14 18.9, 80.99 -1.21 M12.14 77.69 C37.14 49.82, 61.26 20.74, 80.35 -0.57 M15.86 77.69 C33.89 58.49, 56.11 36.88, 85.43 1.27 M16.33 79.37 C39.17 53.02, 61.11 27.49, 85.29 0.02 M21.17 78.33 C46.49 47.7, 76.58 18.54, 91.02 -0.68 M21.48 77.86 C35.36 62.71, 50.39 47.07, 89.33 0.83 M27.13 78.09 C50.2 50.79, 73.5 21.05, 94.01 0.83 M27.01 79.71 C44.39 57.69, 63.18 36.17, 94.8 0.22 M30.49 78.61 C51.93 56.11, 70.1 33.15, 102.2 -1.84 M33.37 78.02 C49.16 58.87, 65.3 39.73, 100.83 0.55 M38.06 79.48 C55.84 57.11, 75.39 37.12, 107.64 1.6 M36.57 79.18 C59.99 51.52, 82.73 26.51, 105.39 -0.05 M43.4 79.71 C66.89 50.02, 88.79 22.12, 110.77 -0.97 M42.17 78.56 C57.41 62.38, 72.08 45.45, 111.79 1 M46.99 77.43 C62.23 61.82, 78.48 44.06, 116.54 2.14 M47.88 79.25 C66.82 55.51, 88.21 33.16, 116.11 1.21 M52.92 79.3 C81.37 48.2, 103.98 19.35, 121.79 -1.7 M53.54 77.77 C74.4 55.42, 93.27 30.89, 120.98 0 M57.1 80.19 C84.76 49.44, 112.11 16.95, 128.76 0.37 M59.67 78.81 C82.92 50.88, 107.76 23.89, 126.36 0.66 M63.92 76.68 C84.85 52.2, 107.95 26.16, 131.15 -1.01 M63.48 78.89 C86.47 54.66, 107.18 29.76, 131.99 -0.19 M70.44 78.66 C96.3 47.22, 120.99 17.63, 136.23 0.16 M69.45 79.17 C88.56 57.21, 107.31 36.04, 136.85 1.14 M75.09 78.84 C93.24 55.6, 114.07 36.4, 143.61 0.79 M75.31 79.07 C98.6 53.31, 122.16 25.85, 142.25 0.1 M81.86 80.39 C101.9 54.19, 123.5 28.73, 147.36 2.26 M80.6 79.07 C96.17 58.51, 114.83 38.94, 147.31 -0.35 M84.33 79.17 C98.22 61.55, 115.46 41.7, 154.76 -1.98 M84.02 79.13 C100.95 59.95, 119.27 38.92, 154.02 -1.05 M89.1 79.6 C112.67 51.23, 139.31 23.13, 160.43 -0.91 M91.3 79.66 C105.87 61.29, 121.91 41.13, 158.77 1.12 M97.33 80.45 C117.1 54.05, 137.1 31.45, 165.04 1.68 M95.92 79.54 C111.64 61.36, 126.42 43.11, 165.38 -0.11 M102.71 79.15 C126.53 47.37, 153.71 17.84, 169.53 0.72 M101.58 79.52 C127.81 49.06, 154.19 17.64, 168.61 -0.59 M105.68 77.38 C121.51 61, 135.09 42.43, 173.73 1.42 M105.65 79.99 C123.22 62.02, 137.82 42.46, 175.24 -1.14 M112.1 80.57 C136.49 49.38, 162.28 24.04, 178.62 0.87 M112.28 79.65 C129.69 59.18, 145.44 39.52, 179.53 0.28 M115.46 79.55 C142.73 52.66, 165 22.91, 184.96 -0.45 M115.85 79.3 C139.55 53.45, 162.62 27.47, 186.33 -0.79 M123.52 78.04 C143.22 52.79, 166.35 30.25, 191.5 -1.07 M122.08 78.48 C147.82 49.28, 174.69 18.75, 190.55 0.44 M128.57 78.24 C145.83 58.56, 160.94 40.17, 197.69 1.02 M127.49 79.24 C151.34 52.88, 176.02 25.33, 196.23 0.72 M134.06 80.39 C155.19 50.97, 182.27 23.22, 201.81 1.94 M132.48 78.84 C153.17 58.33, 170.95 36.18, 202.04 0.49 M136.8 80.34 C163.77 51.6, 186.43 22.15, 207.07 0.22 M138.86 79.48 C156.04 60.36, 171.65 41.42, 205.67 1.35 M145.66 77.11 C162.08 56.54, 180.83 34.74, 205.78 4.64 M142.83 78.99 C161.73 58.14, 181.66 35.72, 207.42 6.02 M147.75 78.44 C170.07 56.35, 187.6 35.37, 206.59 11.97 M148.57 78.62 C170.31 55.94, 189.5 32.36, 205.69 13.29 M155.1 80.36 C163.13 66.15, 174.19 53.98, 206.75 19.36 M155.26 77.64 C171.66 57.37, 189.59 37.48, 206.7 18.49 M158.87 80.77 C170.65 64.89, 184.69 49.97, 205.58 25.89 M158.59 79.19 C173.88 62.8, 187.84 46.87, 206.19 24.27 M164 78.95 C174.51 65.18, 185.8 51.7, 204.47 30.84 M165.79 78.89 C179.32 63.33, 193.15 47.9, 206.83 30.99 M171.45 77.19 C180.07 67.38, 187.88 58.06, 206.38 37.56 M169.18 78.63 C180.24 66.09, 192.22 52.88, 206.03 35.75 M176.84 80.32 C187.59 68.25, 194.33 54.96, 205.27 43.24 M175.21 79.26 C186.39 66.24, 195.99 53.43, 206.77 42.33 M180.65 77.26 C187.82 70.04, 196.21 58.93, 208.17 47.23 M179.96 78.31 C186.92 70.13, 194.5 63.86, 205.94 48.64 M186.92 76.6 C193.81 71.86, 201.24 64.56, 205.36 56.63 M186.18 78.71 C192.24 70.17, 199.88 63.07, 205.88 54.48 M189.43 80.17 C195.62 71.41, 202.34 66.75, 204.35 62.56 M190.85 78.52 C195.59 74.85, 200.83 69.78, 206.78 60.98 M197.43 79.28 C198.79 75.57, 201.58 72.58, 207.29 66.2 M195.65 78.53 C199.24 75.28, 202.26 72.29, 207.32 66.68 M202.13 78.05 C202.99 77.94, 203.81 76.71, 206.67 73.5 M201.6 79 C203.2 76.48, 205.18 75.19, 206.72 73.65" stroke="#fa5252" stroke-width="0.5" fill="none"></path><path d="M-1.58 0.43 C58.42 3.24, 116.53 2.39, 205.15 -0.8 M-0.25 0.4 C43.75 -0.75, 89.36 -1.63, 206.59 0.23 M205.83 -0.48 C205.67 29.54, 207.61 59.21, 205.44 78.84 M206.65 0.12 C206 18.91, 207.25 37.27, 205.97 79.12 M206 80.17 C141.72 78.52, 77.27 78.06, 1.3 77.13 M206.53 78.82 C144.13 79.36, 80.46 78.34, 0.34 78.08 M-1.66 79.25 C0.81 53.7, 0.28 29.86, 0.56 0.87 M-0.94 77.9 C-1.38 56.11, -1.03 32.84, -0.99 -0.08" stroke="#000000" stroke-width="1" fill="none"></path></g><g transform="translate(28.199996948242188 35.199981689453125) rotate(0 85 14)"><text x="85" y="21" font-family="Virgil, Segoe UI Emoji" font-size="20px" fill="#000000" text-anchor="middle" style="white-space: pre;" direction="ltr">父 beforeDestroy</text></g><g stroke-linecap="round" transform="translate(300.6666768391927 10) rotate(0 103.19999694824219 39.199981689453125)"><path d="M0 0 C0 0, 0 0, 0 0 M0 0 C0 0, 0 0, 0 0 M0.16 6.31 C2.03 3.33, 4.44 2.29, 4.21 0.01 M-0.06 6.03 C1.08 4.93, 2.72 3.1, 4.75 0.65 M-0.22 11.33 C1.99 8.4, 4.73 6.89, 11.57 0.04 M0.7 12.4 C2.14 9.51, 5.14 6.48, 10.11 -0.28 M-1.47 16.89 C2.34 13.91, 7.95 7.75, 16.57 -0.49 M-0.02 17.52 C6.13 12.26, 10.43 5.11, 15.34 0.01 M0.01 24.97 C4.32 17.96, 13.12 8.67, 20.45 0.36 M0.47 23.37 C6.81 17.67, 11.64 10.57, 21.21 0.6 M1.62 30.18 C10.29 21.8, 20.1 8.27, 26.28 0.39 M0.27 30.51 C9.64 20.05, 19.07 8.69, 25.52 0.01 M-0.33 38.76 C9.45 27.51, 14.73 16.63, 31.35 0.13 M-0.09 37.54 C11.12 23.57, 22.92 9.76, 32.47 -0.33 M0.82 44.23 C6.68 32.45, 16.41 24.73, 37.52 0.49 M0.26 42.13 C11.27 28.76, 22.81 17.04, 35.98 -0.44 M-0.55 49.23 C14.86 31.1, 31.1 14.51, 42 -1.71 M-0.59 49.02 C9.75 37.27, 21.36 24.89, 42.81 -1.08 M-0.23 53.82 C18.33 36.04, 32.47 18.37, 47.45 -0.18 M0.95 55.48 C10.06 43.53, 20.29 30.69, 48.04 0.03 M1.97 61.03 C9.74 46.98, 21.12 35.72, 52.74 0.41 M-0.4 61.02 C12.41 45.36, 26.3 30.16, 54.11 0.82 M0.27 69.18 C16.74 47.34, 34.51 30.25, 59.09 2.03 M-0.5 66.86 C14.01 49.64, 28.37 33.53, 58.37 0.72 M0.38 73.68 C16.18 55.54, 28.59 37.91, 64.77 0.76 M1.08 73.9 C22.96 44.42, 48.28 17.71, 64.08 -0.74 M-0.39 78.15 C16.4 59.71, 38.12 37.36, 67.29 0.45 M1.51 78.95 C17.81 58.46, 34.45 38.36, 67.97 -0.13 M4.91 78.36 C29.89 53.56, 48.6 29.61, 74.1 0.22 M6.03 78.91 C20.33 60.89, 37.39 41.71, 75.26 0.55 M12.48 79.71 C38.07 50.27, 64.81 17.5, 80.76 0.05 M11.99 79.32 C36.64 49.37, 64.21 17.75, 79.17 -0.38 M14.39 79.91 C32.74 63.31, 46.91 46.16, 85.63 0.34 M16.73 79.26 C37.9 54.18, 60.37 28.25, 86 0.42 M20.02 78.6 C42.03 59.09, 60.41 34.89, 88.05 -0.52 M21.4 78.08 C39.23 59.99, 53.9 42.36, 90.62 1.04 M26.24 78.88 C41.93 58.03, 59.47 40.7, 95.06 1.36 M26.5 79.13 C48.21 53.5, 69.05 29.1, 95.5 -0.98 M32.09 78.9 C57.94 47.96, 87.2 16.27, 99.54 1.01 M32.87 78.45 C56.14 50.61, 80.93 22.95, 100.29 -0.88 M36.98 77.43 C53.57 60.36, 69.32 45.19, 106.95 0.11 M37.26 78.56 C65.18 48.15, 92.02 15.9, 106.78 -0.05 M43.37 77.37 C62.19 52.45, 84.02 29.24, 109.47 0.6 M43.35 79.07 C67.49 52.01, 90.36 26.41, 110.5 -0.22 M46.97 79.39 C71.24 53.36, 94.11 28.91, 116.07 0.9 M47.27 78.53 C72.4 51.76, 94.75 25.68, 117.03 -0.05 M55.4 77.4 C70.19 57.6, 88.91 36.18, 121.92 1.84 M54.64 79.01 C73.82 54.73, 94.23 31.38, 122.88 0.85 M58.4 80.22 C76.54 58.58, 95.56 38.82, 127.96 -1.61 M58.1 77.94 C72.48 62.11, 86.1 46.09, 127.24 0.93 M62.53 79.05 C89.94 48.83, 116.92 16.14, 132.81 -2 M64.34 78.75 C79.85 60.28, 95.43 42.32, 133.4 -0.91 M69.33 77.07 C83.7 58.89, 100.4 40.91, 137.06 0.16 M69.65 78.61 C87.04 58.63, 103.75 38.84, 137.26 -0.51 M74.01 77.02 C97.02 55.1, 116.97 31.21, 143.9 -2.02 M74.9 79.18 C90.54 60.06, 104.33 42.95, 143.36 -0.81 M79.65 78.73 C95.12 58.87, 111.03 42.63, 147.32 1.72 M79.14 78.29 C95.57 60.49, 110.31 41.41, 147.42 0.9 M83.22 79.44 C106.46 52.94, 128.64 28.32, 152.81 0.37 M83.93 79.41 C102.98 58.36, 120.3 38.56, 154.36 0.73 M89.08 79.63 C117.4 49.96, 143.51 18.92, 157.51 1.21 M90.15 79.64 C108.2 55.86, 127.33 35.99, 158.87 0.85 M96.39 78.83 C119.15 51.77, 144.75 23.75, 162.97 -0.62 M95.84 78.66 C108.72 61.95, 124.24 46.57, 165.37 -0.76 M99.21 77.89 C115.64 59.88, 134.11 40.62, 171.26 1.44 M101.55 79.23 C115.47 61.24, 129.25 43.78, 168.61 0.44 M106.62 78.61 C128.6 51.18, 151.63 27.66, 173.7 -1.09 M106.9 79.87 C121.45 60.2, 137.78 41.79, 175.66 -0.82 M111.46 77.25 C129.52 60.03, 144.11 39.79, 179.04 -0.14 M112.57 78.59 C129.82 56.1, 148.69 34.68, 180.46 -0.8 M118.49 80.13 C143.18 48.04, 167.3 20.29, 186.14 -1.52 M116.86 79.62 C145.9 47.46, 172.96 15.27, 185.84 -1.1 M121.09 77.14 C139.64 59.58, 157.42 37.86, 192.15 -1.4 M121.74 79.13 C149.27 48.28, 174.3 19.57, 190.06 0.09 M129.44 77.38 C148.3 54.4, 169.49 33.2, 197.25 -0.7 M127.31 79.94 C145.03 60.18, 161.14 40.86, 196.84 -0.3 M131.21 78.63 C155.54 52.99, 176.34 30.2, 200.76 -1.57 M133.93 79.22 C149.22 60.32, 165.5 42.89, 201.88 0.49 M139.75 79 C153.19 60.25, 168.54 44.64, 205.23 -1.03 M138.66 79.25 C153.01 60.68, 169.14 42.3, 206.26 -0.46 M142.78 78.43 C165.77 51.4, 189.24 23.31, 206.61 6.82 M143.35 79.12 C159.63 61.38, 173.74 45.22, 206.98 5.22 M150.56 78.3 C168.58 57.25, 187.39 34.55, 207.54 10.57 M149.15 79.43 C164.09 61.01, 180.42 42.63, 205.51 13.11 M152.59 78.95 C170.81 57.8, 190.61 37.18, 207.56 19.85 M154.53 78.03 C173.56 56.69, 192.28 34.91, 206.47 17.51 M157.81 79.25 C173.62 62.01, 186.74 47.26, 206.56 24.93 M159.83 78.74 C170.81 66.56, 180.88 53.7, 206.36 25.16 M163.28 78.2 C173.29 66.36, 183.4 55.26, 206.86 28.98 M165.31 79.06 C179.05 63.12, 192.8 46.53, 205.93 30.71 M170.34 78.46 C179.27 67.79, 191.45 54.68, 206.64 37.89 M169.62 78.9 C184.72 62.55, 197.02 46.58, 207.04 36.66 M177.34 79.9 C181.03 69.57, 189.14 61.26, 207.38 44.11 M175.88 78.26 C181.28 70.21, 188.79 62.94, 206.43 42.37 M179.79 79.21 C189.56 66.71, 200.4 56.37, 205.97 48.92 M180.22 78.02 C190.48 69.03, 198.34 57.74, 207.13 48.5 M187.08 79.39 C192.15 74.92, 193.76 70.06, 206.83 54.04 M185.76 77.59 C194.19 69.55, 199.82 61.4, 206.95 55.74 M190.66 77.41 C198.47 71.56, 201.48 65.93, 205.96 59.91 M191.2 79.66 C195.88 75.34, 199.05 69.99, 205.88 61.27 M196.07 78.58 C198.38 76.03, 201.29 72.98, 206.48 65.8 M196.15 78.77 C199.71 75.31, 203.85 70.85, 206.07 67.59 M202.01 79.07 C202.83 77.85, 204.13 76.44, 206.92 73.69 M201.53 78.41 C203.07 77.63, 204.59 76.12, 206.23 73.36 M-0.33 78.11 C-0.33 78.11, -0.33 78.11, -0.33 78.11 M-0.33 78.11 C-0.33 78.11, -0.33 78.11, -0.33 78.11 M5.43 77.78 C3.77 76.4, 1.46 75.51, 0.03 73.64 M5.72 78 C4.56 77.15, 2.8 75.47, -0.25 73.2 M13.57 79.21 C10.18 75.98, 5.57 73.39, -1.91 69.1 M11.74 78.16 C9.69 75.5, 6.55 73.75, -0.26 67.57 M18.46 79.55 C11.5 73.63, 6.6 69.6, 1.14 60.94 M17.28 79.02 C12.61 73.81, 8.25 69.72, 0.21 62.29 M25.84 78.52 C16.68 70.12, 6.92 65.34, 0.18 56.19 M24.8 78.85 C17.16 72.36, 11.2 67.45, 0.59 58.04 M28.31 77.95 C17.55 67.1, 6.89 57.7, -1.81 51.76 M30.22 77.52 C18.46 68.88, 8.15 59.22, -0.71 51.94 M36.91 77.13 C22.64 67.97, 10.92 56.84, -0.75 45.26 M35.78 77.38 C24.26 66.77, 10.86 55.06, 1.17 46.29 M41.48 77.96 C31.19 68.68, 20.46 56.46, -1.57 42.29 M42.46 79.25 C31.3 68.17, 22.28 58.84, -0.89 41.68 M48.36 78.42 C37.19 67.6, 24.35 57.88, 1.22 35.25 M49.02 78.16 C35.29 67.71, 22.67 55.65, -0.18 37 M56.05 80.14 C42.11 64.76, 28.81 54.19, 0.98 29.61 M54.02 77.98 C43.5 69.19, 31.96 58.49, 0.56 29.87 M61.41 79.35 C41.56 62.03, 20.99 43.87, -1.63 26.8 M61.34 78.6 C47.81 67.03, 33.36 54.24, 0.97 24.63 M67.15 77.68 C42.7 56.72, 15.66 35.86, -1.22 18.44 M68 77.86 C51.31 66.25, 37.18 51.97, -0.17 20.78 M71.92 77.16 C46.46 56.56, 22.3 35.42, -0.19 13.22 M73.63 78.69 C49.87 58.12, 26.87 39.49, 0.85 15.01 M78.05 79.75 C57.23 58.66, 35.12 39.33, 0.64 11.16 M78.56 77.81 C56.85 59.67, 35.48 40.03, -0.56 9.61 M85.27 76.82 C52.48 50.62, 21.99 22.07, 1.52 2.47 M84.84 79.39 C61.72 59.13, 38.89 39.45, 0.52 4.45 M90.84 78.18 C58.06 48.31, 25.46 19.6, 1.94 -1.53 M90.72 77.19 C60.87 51.61, 29.36 23.93, 0.01 0.12 M99 76.88 C76.65 60.19, 57.22 43.51, 7.1 1.07 M97.52 77.52 C74.88 59.72, 53.72 40.19, 7.68 0.53 M105.2 78.13 C80.16 58.53, 58.69 38.75, 11.75 -2.75 M104.07 79.4 C82.34 59.78, 61.12 42.45, 12.29 -0.45 M109.72 76.91 C87.05 55.81, 58.58 33.51, 18.71 -1.01 M109.79 78.19 C87.05 58.57, 63.07 39.54, 18.54 0.09 M117.42 77.44 C84.39 53.34, 55.41 24.94, 23.05 1.01 M116.75 78.33 C89.9 57.35, 66.22 35.62, 24.47 0.01 M119.87 76.16 C85.73 49.06, 52.57 16.98, 31.55 -0.44 M121.11 78.42 C88.04 50.19, 55.85 22.33, 31.35 0.06 M126.86 76.56 C99.01 52.66, 67.92 24.3, 36.79 -0.59 M127 79.23 C105.39 59.06, 84.21 40, 37.14 -0.97 M132.51 80.14 C113.43 61.55, 94.86 42.5, 44.96 -2.63 M134 78.81 C114.51 60.72, 91.49 42.72, 42.52 -1.58 M139.01 77.96 C120.09 57.94, 95.57 40.54, 49.47 -0.19 M139.15 79.15 C114.06 56.25, 86.09 31.85, 49.96 0.12 M146.27 80.1 C120.48 54.37, 96.2 36.02, 55.15 -0.34 M146.06 77.91 C125.36 60.4, 104.99 41.38, 54.23 -1.44 M152.16 76.75 C118.66 47.72, 84.32 19.93, 59.7 1.19 M151.34 78.53 C119.49 50.39, 85.58 21.05, 61.18 -0.34 M157.89 78.89 C130.63 57.04, 103.65 31.13, 69.88 0.99 M157.48 79.18 C130.64 53.02, 104.6 28.88, 68.29 -1.05 M164.23 79.36 C141.01 56.9, 117.4 40.14, 75.18 -2.49 M165.3 78.91 C127.72 48.39, 93.11 15.49, 73.64 -0.71 M169.19 78.35 C150.34 58.56, 125.74 37.14, 79.53 -1.41 M171.02 77.32 C144.07 53.45, 115.12 29.52, 80.04 -0.49 M175.72 78.91 C145.92 47.61, 111.55 20.06, 87.46 0.42 M176.31 79.26 C148.61 53.44, 119.55 29.4, 86.47 -0.42 M181.85 77.99 C154.75 53.81, 124.82 26.42, 91.57 -1.65 M181.77 77.96 C159.21 56.23, 135.84 35.14, 91.93 -1.45 M188.21 77.15 C167.48 63.38, 151.42 47.06, 98.69 -2.14 M188.76 78.97 C167.53 59.81, 147.09 42.65, 98.92 -0.32 M196.14 77.64 C157.64 48.39, 123.07 17.55, 105.56 -1.88 M194.9 79.32 C165.42 54.29, 138.58 28.79, 103.48 -0.85 M199.4 79.82 C180.34 58.02, 157.78 39.6, 108.58 1.47 M200.12 78.17 C174.44 54.37, 149.95 32.68, 110.28 -0.3 M205.14 76.14 C181.8 57.12, 155.45 35.78, 115.91 -1.57 M206.91 77.9 C174.32 47.47, 140.68 18.18, 117.05 -1.19 M207.78 74.07 C180.76 51.84, 156.12 28.65, 120.98 0.49 M206.61 72.18 C179.02 48.09, 149.59 22.18, 123.45 -0.38 M208.26 65.45 C183.4 47.5, 157.75 25.89, 130.62 1.11 M206.04 67.57 C186.65 48.57, 167.67 32.48, 129.55 -0.9 M206.72 60.94 C191.18 47.55, 177.58 36.72, 134.79 1.2 M206.37 62.98 C183.64 40.8, 159.47 19.79, 134.89 -0.3 M205.86 57.54 C181.82 32.12, 155.02 9.49, 142.27 0.69 M206.02 57.49 C182.51 36.95, 159.36 16.76, 140.49 0.06 M206.48 53.41 C192.9 40.19, 179.77 29.13, 146.8 -2.5 M206.37 52.23 C187.57 35.1, 168.48 18.42, 146.39 -1.87 M204.83 46.2 C189.2 31.62, 168.91 13.19, 154.57 -1.68 M206.59 46.91 C185.14 27.57, 164.09 8, 153.45 -0.88 M208.11 39.84 C192.79 31.12, 180.85 19.15, 158.36 -2.38 M207.38 41.75 C196.3 32.41, 185.8 23.21, 158.84 -1.35 M207.9 34.87 C195.52 24.69, 181.7 13.84, 165.27 1.15 M205.8 35.99 C195.92 25.4, 185.04 17.84, 164.09 -0.55 M207.54 31.25 C192.1 17.04, 179.21 7.61, 170.41 -0.52 M207 29.8 C197.04 21.42, 188.48 14.02, 172.16 -1.01 M207.65 26.67 C194.88 16.1, 184.63 7.71, 177.03 0.98 M207.03 24.81 C198.14 16.59, 188.94 8.36, 177.91 -0.34 M205.5 19.33 C199.88 15.04, 192.89 8.71, 182.01 0.62 M206.65 20.04 C198.76 11.94, 189.9 4.6, 182.9 -0.27 M204.5 14.33 C201.63 8.07, 196.93 5.36, 188.04 0.93 M206.02 14.39 C201.08 10.13, 195.26 4.43, 189.96 -0.55 M205.89 10.07 C203.04 5.43, 198.74 1.5, 196.84 -2.02 M206.63 8.69 C202.99 5.73, 200.34 2.9, 195.99 -1.13 M206.56 3.67 C205.93 2.18, 204.43 1.54, 202.3 -0.76 M206.93 4.15 C205.09 2.29, 202.93 0.69, 201.52 -0.36" stroke="#82c91e" stroke-width="0.5" fill="none"></path><path d="M0.11 1.44 C41.61 0.15, 82.11 -1.24, 204.88 0.3 M-0.54 0.73 C79.24 -0.98, 157.12 -0.6, 206.98 0.36 M205.35 0.93 C207.07 29.03, 205.21 54.5, 205.16 78.87 M205.82 0.24 C207.26 16.95, 206.17 34.73, 206.56 79.2 M206.93 78.9 C149.97 80.27, 92.3 78.95, 0.1 77.8 M207.22 79.23 C143.33 79.07, 80.11 78.94, 0.16 78.44 M0.85 78.62 C0.97 62.47, 1.22 44.77, -0.12 1.23 M-0.9 79.14 C0.2 54.19, -0.26 28.88, 0.68 0.3" stroke="#000000" stroke-width="1" fill="none"></path></g><g transform="translate(318.8666737874348 35.199981689453125) rotate(0 85 14)"><text x="85" y="21" font-family="Virgil, Segoe UI Emoji" font-size="20px" fill="#000000" text-anchor="middle" style="white-space: pre;" direction="ltr">子 beforeDestroy</text></g><g stroke-linecap="round" transform="translate(591.3333536783853 10) rotate(0 103.19999694824219 39.199981689453125)"><path d="M0 0 C0 0, 0 0, 0 0 M0 0 C0 0, 0 0, 0 0 M-0.1 5.75 C2.16 4.85, 2.83 1.56, 4.94 0.46 M-0.46 6.76 C1.66 4.4, 3.58 2.02, 4.64 0.76 M-0.13 10.97 C3.37 8.65, 7.04 5.32, 9.94 0.76 M-0.5 12.68 C3.61 8.24, 7.29 2.81, 10.33 -0.32 M-1.86 18.69 C4.77 11.63, 11.01 6.16, 16.87 2.04 M0.57 18.91 C4.56 12.25, 10.4 5.81, 15.43 0.21 M-1.62 24.61 C6.06 16.55, 9 13.48, 20.67 -1.17 M1 24.38 C8.15 14.69, 16.26 6.38, 21.76 -0.91 M0.86 32.15 C7.13 22.46, 11.54 17.11, 27.64 2.2 M0.23 30.97 C5.36 24.44, 10.19 17.55, 25.88 0.5 M1.07 37.18 C6.99 25.28, 17.38 15.91, 33.04 0.52 M-0.26 36.67 C8.46 26.12, 17.2 16.96, 31.04 0.64 M-0.89 41.53 C12.01 29.69, 23.04 16.67, 37.03 -0.81 M-0.25 41.69 C10.25 31.24, 19.81 18.24, 37.58 0.45 M-0.84 48.86 C8.25 40.54, 16.57 27.59, 41.39 -1.8 M-1.04 49.48 C15.83 31.27, 31.22 12.48, 43.02 -0.71 M1.52 54.88 C11.86 41.89, 25.53 25.37, 45.72 -0.26 M-0.02 55.17 C16.09 34.71, 32.82 16.68, 46.51 -0.3 M-1.21 59.02 C12.94 43.86, 27 29.32, 52.08 1.69 M-0.13 60.28 C15.31 43.56, 30.03 28.78, 52.94 -0.96 M-0.09 66.64 C24.28 41.24, 46.66 15.59, 57.24 1.26 M-0.53 67.21 C20.87 43.49, 43.71 18.07, 57.44 0.31 M1.63 72.93 C23.88 43.66, 50.17 17.23, 65.32 0.47 M-0.78 72.19 C20.77 48.46, 41.54 23.83, 63.39 -0.22 M-1.4 79.9 C20.61 57.81, 34.86 38.34, 67.98 1.8 M0.68 78.51 C15.21 59.75, 31.85 40.34, 68.99 -0.24 M7.42 78.48 C19.11 63.1, 35.3 45.36, 73.14 1.67 M4.8 79.71 C26.59 54.68, 48.84 30.54, 75.26 0.32 M12.27 79.87 C26.73 60.24, 40.99 44.84, 81.14 2.07 M10.98 79.14 C25.66 61.11, 38.68 44.97, 78.59 -0.03 M17.5 80.27 C33.49 61.5, 49.95 41.87, 85.44 0.08 M15.98 79.82 C39.38 52.11, 63.51 25.56, 84.78 -0.59 M23.1 80.51 C43.12 55.21, 59.79 32.78, 88.8 -0.56 M22.71 78.22 C36.99 61.74, 53.85 44.02, 89.53 0.26 M24.82 77.58 C43.1 59.66, 61.91 39.75, 95.96 0.14 M26.73 78.95 C52.14 49.42, 78.84 18.32, 96.52 -1.28 M30.95 78.16 C54.83 52.69, 72.89 31.7, 101.85 1.94 M32.35 78.48 C49.17 59.64, 65.54 38.75, 99.9 0.37 M38.41 78.29 C61.57 55.3, 83.53 27.76, 108.26 -2.04 M37.09 79.9 C59.21 53.45, 83.19 27.46, 106.35 -0.18 M41.52 76.8 C67.01 49.62, 90.31 22.89, 112.05 -1.75 M43.74 78.57 C64.14 55.16, 83.66 30, 111.61 -0.51 M48.13 78.97 C64.29 62.55, 79.38 43.41, 117.12 0.05 M48.91 78.91 C71.57 53.38, 95.58 25.56, 115.84 -0.01 M52.36 78.05 C76.17 50.37, 99.59 27.12, 121.98 -0.31 M53.02 78.05 C67.7 60.06, 85.3 42.85, 121.44 -0.81 M58.72 78.83 C85.74 49.52, 110.03 18.66, 125.12 2.32 M58.88 78.63 C78.9 56.39, 100.1 33.28, 127.85 0.14 M62.86 79.2 C78.09 60.62, 94.23 42.97, 131.09 -1.73 M63.68 78.43 C87.33 50.95, 112.34 23.09, 131.96 0.51 M67.72 77.74 C87.99 56.24, 108.81 33.24, 136.7 0.59 M69.54 79.15 C91.38 53.27, 114.81 25.13, 137.59 0.38 M76.25 79.21 C97.72 54.47, 119.99 26.39, 141.66 0.63 M75.53 78.11 C99.09 49.26, 125.23 19.55, 142.57 0.88 M79.55 78.21 C105.28 50.82, 131.26 20.34, 146.82 1.59 M80.22 78.96 C102.27 52.5, 124.94 27.79, 148.25 -0.03 M84.95 77.42 C107.39 53.17, 126.28 31.55, 152.81 -1.92 M85.04 78.18 C106.61 54.19, 127.65 32.17, 154.53 -0.86 M91.46 79.44 C116.23 50.3, 136.76 25.45, 158.27 1.7 M90.1 77.99 C117.71 48.12, 144.64 16.97, 159.37 1.13 M95.21 80.59 C121.19 51.84, 144.48 20.36, 162.51 0.58 M94.99 78.39 C120.07 52.05, 143.86 24.02, 163.89 0.6 M99.53 79.25 C124.11 54.13, 147.89 29.5, 167.7 0.96 M101.18 78.57 C126.23 47.47, 152.36 18.45, 169.81 -0.05 M105.12 77.39 C119.57 63.69, 134.43 44.03, 173.57 -1.25 M105.53 78.68 C132.9 46.35, 160.44 15.48, 174.55 -0.05 M112.71 80.14 C137.53 48.79, 164.95 16.72, 179.59 1.07 M111.31 78.48 C137.98 47.46, 166.17 15.02, 180.74 -0.51 M117.29 77.38 C137.92 52.52, 161.6 25.56, 187.65 -2.14 M117.77 79.15 C140.02 52.02, 162.15 25.69, 185.23 0.31 M122.77 79.26 C142.28 56.68, 161.4 35.1, 192.26 -0.62 M123.13 77.91 C142.36 56.18, 161.33 33.45, 190.67 0.7 M128.18 77.8 C146.1 60.01, 163.76 37.46, 195.24 -0.17 M128.15 79.82 C149.86 53.52, 172.88 26.72, 196.49 0.23 M134.35 78.42 C160.92 49.82, 186.47 15.7, 199.89 -1.1 M133.14 78.45 C155.29 53.07, 177.28 27.59, 200.46 -0.54 M138.09 77.53 C163.41 49.67, 186.79 19.4, 205.04 2.03 M137.47 79.63 C161.04 51.95, 185.69 22.46, 207.05 1.43 M142.91 78.07 C157.5 60.61, 172.68 46.28, 205.25 4.32 M144.65 78.14 C166.36 53.2, 187.59 27.47, 207.01 5.63 M149.15 79.1 C164.2 60.2, 181.12 40.43, 206.04 12.24 M147.82 79.46 C163.27 61.45, 178.7 43.32, 206.92 12.88 M152.75 79.33 C175.38 55.95, 196.77 32.76, 208.19 19.98 M154.81 78.44 C165.24 66.32, 176.15 52.53, 206.82 17.91 M159.36 78.71 C177.38 58.71, 196.99 36.33, 205.13 23.05 M159.64 79.08 C174.3 60.7, 190.09 43.62, 205.99 24.05 M163.05 77.97 C176.89 63.09, 192.63 45.88, 207.01 32.56 M165.59 79.21 C179.39 62.14, 192.54 45.69, 206.32 31.68 M168.52 80.22 C177.54 70.71, 185.78 61.86, 208.16 35.02 M170.69 78.22 C179.67 66.23, 190.9 55.37, 206.12 37.2 M173.79 78.44 C186.26 64.54, 200.5 51.45, 204.56 42.19 M174.79 77.77 C187.58 64.36, 198.97 50.9, 206.96 43.01 M180.33 77.13 C187.89 70.66, 191.53 65.63, 207.86 47.35 M181.06 79.51 C186.37 71.49, 194.11 63.81, 206 48.96 M187.82 79.81 C189.17 75.03, 194.9 67.55, 207.59 54.91 M187.04 77.81 C192.35 70.34, 200.12 63.89, 207.57 54.12 M192.29 78.61 C194.89 73.6, 202.07 64.54, 205.15 60.67 M192.17 79.49 C195.84 73.45, 199.07 68.97, 205.5 62.18 M196.18 78.69 C200.04 74.58, 202.49 70.45, 207.2 65.95 M196.16 79.23 C199.18 76.1, 200.28 74.31, 206.11 67.37 M201.82 79 C202.99 77.7, 204.17 76.83, 206.19 72.95 M201.82 79.06 C203.89 77.01, 205.11 74.76, 206.74 73.6 M-0.33 78.11 C-0.33 78.11, -0.33 78.11, -0.33 78.11 M-0.33 78.11 C-0.33 78.11, -0.33 78.11, -0.33 78.11 M5.85 78.17 C3.59 77.23, 1.97 75.24, -0.13 73.03 M6.24 78.65 C4.67 77.02, 2.72 75.69, -0.26 72.78 M12.98 78.4 C6.32 74.13, 1.08 71.81, -2 65.98 M12.21 77.89 C9.09 76, 7.28 73.97, -0.38 67.37 M16.88 78.5 C13.69 76.1, 11.88 70.41, -0.08 63.25 M18.03 78.58 C14.89 75.59, 9.91 70.75, 0.49 61.84 M24.98 77.23 C14.02 71.53, 5.19 60.67, -0.01 56.81 M23.88 78.3 C17.73 73.35, 10.79 67.04, 1.07 57.99 M28.89 76.92 C21.46 70.1, 12.2 63.7, 1.11 51.88 M29.25 78.25 C20.54 69.81, 11.11 62.05, 0.32 52.65 M35.05 78.28 C21.92 65.75, 8.38 53.02, 1.59 45.64 M37.22 78.27 C26.99 68.74, 17.16 59.62, 0.06 47.06 M43.03 79.23 C34.7 68.72, 22.43 62.77, -1 39.93 M41.97 77.87 C33.21 68.87, 20.63 60.49, -0.56 40.88 M49.19 78.53 C37.77 70.05, 28.03 58.55, -0.29 38.07 M48.78 78.89 C32.49 63.76, 14.77 50.11, -0.21 37.24 M56.38 77.22 C44.72 68.74, 31.99 57.24, -1.78 29.2 M55.08 79.21 C35.97 61.25, 16.2 42.78, 0.34 30.14 M62.14 79.66 C39.37 60.15, 12.88 39.97, -1.33 25.01 M60.98 78.85 C43.75 64.27, 29.51 50.06, 1.05 25.47 M68.12 78.31 C40.51 56.75, 13.85 31.34, -1.77 20.15 M66.05 78.96 C45.29 59.08, 24.97 42.79, 0.34 20.45 M72.26 78.67 C51.6 59.63, 28.54 37.24, 0.59 16.97 M73.83 77.9 C47.17 56.25, 20.21 32, -0.06 14.62 M78.5 76.9 C49.72 52.06, 23.12 31, -0.66 9.9 M78.91 79.02 C59.33 60.31, 38.2 42.66, 0.58 9.27 M84.48 79.24 C68.11 62.19, 50.9 44.61, -0.53 6.17 M84.91 79.24 C64.82 62.3, 45.79 44.16, 0.88 4.47 M91.65 77.07 C61.88 50.76, 31.06 23.73, 1.47 -1.12 M92.03 78.26 C58.88 48.06, 24.25 20.1, -0.21 -0.86 M96.82 77.67 C67.82 52.51, 38.42 28.13, 5.91 -1.65 M96.87 78.46 C62.96 47.1, 27.77 17.24, 6.45 -1.35 M102.26 79.2 C83.62 62.11, 63.5 42.46, 11.18 0.7 M103.88 78.1 C77.02 56.68, 50.52 33.6, 12.34 -1.47 M111.41 78.26 C88.55 60.31, 70.7 43.65, 18.09 -2.28 M109.46 77.92 C73.86 48.92, 39.83 18.73, 19.21 0.48 M114.62 79.37 C91.39 56, 67.56 39.73, 23.99 0.62 M114.97 78.92 C90.74 57.12, 66.38 36.84, 25.53 -0.68 M121.23 79.98 C99.01 55.96, 72.66 33.84, 32.23 0.84 M121.25 78.41 C93.45 54.34, 65.08 29.34, 31.3 -0.09 M129.12 79.27 C109.03 59.27, 89.55 44.07, 36.34 -0.98 M127.42 79.01 C108.08 61.67, 86.09 41.7, 36.58 -0.7 M132.83 79.11 C111.94 58.09, 91.59 37.95, 41.7 -1.46 M135.38 78.77 C103.1 52.63, 72.72 24.58, 42.47 -1.58 M141.26 77.59 C118.63 61.36, 99.78 43.07, 49.26 1.01 M140.89 78.89 C111.01 53.07, 83.54 29.56, 49.26 -1.27 M145.37 76.59 C119.8 57.8, 92.83 33.1, 53.69 -2.71 M145.57 78.33 C116.43 50.91, 85.84 25.26, 55.8 -0.59 M152.36 76.69 C123.16 52.8, 93.7 30.16, 62.87 -1.73 M152.41 79.03 C121.67 52.34, 90.82 25.32, 61.44 -0.75 M157.1 80.03 C128.78 53.01, 104.44 31.07, 68.01 -2.12 M157.62 77.79 C140.04 61.08, 119.66 43.68, 67.44 -0.15 M164.34 77.24 C138.9 59.02, 116.34 33.41, 75.39 0.54 M164.08 79.47 C136.72 53.43, 108.13 29.83, 73.06 -1.74 M172.36 79 C150.31 59.41, 129.13 41.32, 80.04 -1.21 M171.42 77.61 C144.06 54.6, 118.94 32.86, 80.6 -1.31 M178.71 77.57 C159.89 63.32, 142.53 48.08, 85.89 -1.82 M177.04 78.19 C147 53.59, 117.73 27.06, 85.9 -1.4 M184.34 79.75 C156.27 53.7, 125.65 27.69, 91.27 -1.88 M182.66 77.69 C163.19 59.34, 141.81 41.26, 91.12 -0.28 M187.08 79.68 C158.5 51.68, 125.27 20.18, 97.03 0.86 M189.06 78.09 C162.47 56.01, 134.92 31.42, 99.3 0.16 M193.82 79.83 C170.94 58.99, 149.07 35.77, 104.27 0.97 M194.64 78.99 C168.34 54.3, 138.47 29.9, 103.36 0.05 M202.16 76.53 C175.34 54.6, 147.66 35.62, 110.04 0.95 M200.45 77.31 C183.12 61.21, 163.61 45.42, 110.18 0.31 M207.42 78.84 C179.6 54.96, 153.01 29.41, 117.47 -1.89 M207.47 77.28 C186.59 59.34, 166.3 41.88, 116.05 -0.32 M206.46 73.52 C178.66 48.36, 148.93 25.57, 123.27 -0.55 M207.84 73.67 C187.7 55.04, 168.71 38.18, 122.55 -1.21 M207.03 68.44 C182.25 47.41, 162.63 28.75, 127.88 0.6 M206.51 66.19 C190.59 52.73, 173.98 37.69, 127.99 -0.8 M206.36 60.93 C186.07 43.76, 162.9 25.11, 135.17 -2.65 M207.19 62.16 C189.54 47.06, 171.73 31.98, 135.5 0.12 M208.56 55.36 C193 42.66, 177.76 31.69, 142.11 -0.8 M206.11 57.14 C183.25 37.54, 159.07 16.56, 140.04 0.13 M206.14 51.96 C193.5 41.78, 182.25 28.77, 147 -1.7 M206.86 51.95 C188.4 35.95, 168.75 17.71, 146.93 -0.75 M207.39 47.12 C186.94 28.28, 171.19 12.5, 154.87 -1.7 M206.12 46.12 C191.12 32.35, 176.69 19.87, 152.64 -0.08 M205.87 42.21 C191.44 28.03, 175.49 12.47, 157.66 -0.74 M206.49 40.87 C187.14 24.53, 168.35 7.48, 159.33 -0.83 M207.79 35.89 C197.7 28.43, 189.69 22.5, 163.94 -0.73 M206.22 34.56 C195.56 27.26, 185.23 17.89, 165.84 -1.74 M205.48 28.93 C195.51 22.29, 184.47 11.96, 170.59 -2.12 M206.04 29.67 C198.19 22.74, 190.61 14.88, 171.77 -0.63 M204.83 24.51 C192.99 15.17, 183.49 7.02, 176.97 -0.84 M206.9 24.29 C198.49 16.93, 191.58 11.72, 176.98 -1.24 M206.73 21.04 C199.67 14.5, 191.3 8.54, 184.37 -1.57 M206.8 19.05 C199.48 13.11, 193.09 8.65, 183.39 -1.3 M206.47 12.48 C203.04 10.77, 197.18 8.78, 190.2 1.32 M206.5 14.6 C199.68 8.02, 193.9 2.88, 190.5 -1.37 M207.12 9.1 C204.11 6.32, 202.36 2.8, 195.61 -0.8 M206.49 8.71 C203.26 5.3, 199.12 1.52, 195.43 -0.35 M207.52 3.55 C206.11 2.92, 204.6 1.17, 202.42 -0.77 M207.07 3.98 C204.86 2.33, 202.66 0.62, 201.88 -0.69" stroke="#82c91e" stroke-width="0.5" fill="none"></path><path d="M-0.07 0.59 C65.64 -2.29, 132.25 -1.19, 207.83 -0.5 M0.78 -0.15 C71.39 -1.27, 142.98 -1.14, 206.8 -0.25 M207.29 2 C205.03 22.09, 204.75 43.76, 204.74 78.9 M207.07 -0.05 C205.51 25.2, 206.1 49.76, 206.2 78.17 M207.67 78.44 C125.24 77.64, 41.57 78.32, 0.12 78.66 M206.65 78.21 C135.19 79.8, 63.45 80.16, -0.71 77.66 M0.32 79.72 C0.23 52.43, -0.46 25.96, 0.31 -1.89 M-0.54 78.91 C-0.29 58.74, 1.38 39.52, 0.29 -0.25" stroke="#000000" stroke-width="1" fill="none"></path></g><g transform="translate(631.5333506266275 35.199981689453125) rotate(0 63 14)"><text x="63" y="21" font-family="Virgil, Segoe UI Emoji" font-size="20px" fill="#000000" text-anchor="middle" style="white-space: pre;" direction="ltr">子 destroyed</text></g><g stroke-linecap="round" transform="translate(882.0000305175781 10) rotate(0 103.19999694824219 39.199981689453125)"><path d="M0 0 C0 0, 0 0, 0 0 M0 0 C0 0, 0 0, 0 0 M0.24 7.09 C0.47 4.34, 2.72 3.05, 5.71 0.76 M-0.36 6.71 C0.62 5.39, 1.6 4.24, 4.92 0.27 M0.37 12.02 C3.77 9.1, 4.82 6.74, 11.75 1.09 M-0.18 12.75 C3.33 7.54, 7.17 3.34, 10.79 -0.57 M-0.38 17.3 C4.48 13.57, 8.29 12.08, 16.49 0.55 M-0.84 18.33 C2.74 14.28, 6.11 10.71, 14.88 0.2 M1.27 22.11 C6.91 16.14, 14.37 6.28, 22.93 0.34 M0.15 23.8 C4.83 19.17, 10.17 12.15, 20.5 0.74 M1.5 29.18 C7.4 21.75, 16.24 14.95, 24.44 0.82 M-0.05 30.77 C7.17 20.93, 15.47 12.27, 26.07 0.26 M-2.11 36.03 C11.62 22.49, 25.98 8.3, 31.16 0.22 M0.05 36.08 C12.09 23.18, 22.42 10.61, 31.94 0.24 M0.95 42.89 C15.16 26.65, 28.82 9.06, 36.49 0.51 M-0.01 42.96 C8.98 31.11, 20.16 20.98, 35.88 0.04 M-0.41 50.45 C12.99 31.87, 25.85 16.3, 43.75 -1.07 M0.18 49.05 C13.86 32.5, 27.31 17.64, 42.19 -0.39 M-0.86 56.2 C12.29 39.8, 22.98 25.43, 48.36 1.59 M0.27 53.77 C19.48 32.77, 36.48 11.13, 47.14 1.2 M-0.46 59.98 C16.1 43.51, 31.56 26.24, 52.57 -1 M0.66 60.16 C17.33 43.59, 32.45 23.07, 54.1 0.09 M1.39 68.3 C23.47 43.15, 44.45 16.12, 59.6 -0.32 M-1.08 68.25 C14.8 51.15, 28.49 33.91, 59 0.31 M-0.6 72.14 C21.85 49.52, 43.67 24.76, 64.35 1.66 M0.56 73.07 C25.95 44.42, 50.08 16.37, 63.38 -0.67 M2.53 78.02 C18.61 56.89, 38.09 36.63, 67.58 2.09 M-0.46 78.86 C22.22 52.47, 45.82 26.38, 67.93 -0.15 M3.95 80.04 C22.93 58.41, 40.42 38.62, 74.63 0.78 M5.56 79.28 C26.98 56.26, 47.01 32.98, 73.53 0.41 M12.76 77.28 C36.32 50.25, 60.92 24.41, 77.56 1.76 M12.12 77.92 C36.41 48.61, 61.16 19.84, 78.76 -0.76 M16.54 80.52 C40.12 51.63, 63.86 23.85, 85.84 0.87 M16.4 79.26 C39.94 52.97, 61.41 25.86, 84.92 -1.16 M22.79 77.81 C39.86 53.67, 61.15 30, 88.59 -0.71 M21.1 79.32 C38.77 60.1, 54.78 39.66, 89.61 -0.19 M25.12 80.07 C47.43 57.51, 68.81 32.73, 97.22 -0.89 M25.92 79.46 C48.64 52.97, 71.64 27.37, 95.71 -0.48 M33.97 76.65 C53.61 54.65, 77.63 30.6, 99.62 0.93 M32.6 79.04 C51.98 54.8, 71.45 33.2, 100.95 -0.17 M38.75 80.85 C53.29 61.61, 70.21 41.5, 106.86 -0.65 M36.5 79.19 C56.45 57.46, 74.31 36.29, 106.91 -0.19 M42.54 77.52 C58.46 60.56, 77.64 39.1, 111.39 0.61 M43.56 79.49 C66.08 50.22, 91.54 21.91, 110.57 -0.52 M48.31 80.63 C70.05 53.76, 93.36 27.31, 117.04 -1.17 M47.88 79.7 C66.29 57.51, 83.27 36.66, 116.69 1.23 M53.56 76.79 C71.05 61.11, 87.93 39.6, 120.52 1.89 M52.75 78.49 C79.33 51.84, 102.04 22.4, 122.6 -0.16 M60.53 78.86 C84.93 47.86, 107.32 22.78, 126.86 -0.81 M58.13 79.15 C73.25 62.99, 88.25 45.64, 126.03 -0.55 M62.92 77.48 C87.71 50.27, 108.56 24.59, 133.46 0 M63.76 78.3 C88.25 51.61, 109.38 27.06, 132.48 -0.04 M68 78.65 C84.05 62.22, 98.28 45.86, 138.28 0.99 M68.62 79.63 C88.08 55.62, 107.64 34.38, 137.76 -0.16 M75.38 79.28 C90.92 58.07, 104.44 42.59, 144.52 -0.18 M74.02 78.59 C100.48 48.18, 125.51 20.18, 143.99 -0.23 M79.13 80.75 C99.6 56.98, 119.45 33.43, 148.78 -1.31 M79.08 78.14 C96.23 59.4, 114.33 38.61, 148.19 -0.58 M85.87 77.26 C105.68 55.16, 127.45 27.83, 153.82 -2.11 M85.14 78.2 C108.04 54.56, 130.86 26.91, 154.24 -0.87 M92.2 77.58 C112.49 52.36, 136.8 25.75, 160.66 -0.59 M90.54 79.61 C117.67 49.17, 144.84 18.77, 159.48 0.66 M96.16 80.93 C113.99 55.37, 133.3 33.82, 165.35 0.42 M96.49 79.14 C114.68 58.55, 130.94 39.49, 164.67 -1.15 M101.3 79.21 C121.41 59.35, 135.57 38.49, 171.08 0.92 M100.38 77.9 C124.54 51.23, 149.88 22.97, 168.59 0.42 M104.85 80.67 C124.38 56.7, 143.39 34.52, 176.94 1.24 M106.35 78.1 C133.59 48.43, 158.78 18.94, 176.03 -0.38 M110.39 79.36 C126.14 59.82, 142.36 43, 182.05 1.65 M111.3 78.77 C132.63 54.82, 152.89 32.11, 180.32 1.01 M116.07 78.8 C141.55 50.11, 167.55 21.31, 186.26 -0.12 M117.45 78.45 C141.04 49.48, 165.26 22.32, 185.41 -0.91 M123.27 77.42 C139.21 59.14, 154.73 42.19, 190.39 -1.3 M122.32 78.93 C145.25 51.53, 169.8 24.59, 190.31 1.13 M128.8 80.27 C143.2 61.55, 156.31 44.68, 196.84 -0.52 M127.34 79.96 C154.64 47.02, 181.54 16.2, 197.23 -1.2 M133.58 80.43 C152.63 53.29, 172.36 30.06, 201.81 1.79 M133.81 78.98 C158.38 50.58, 181.72 21.07, 202.01 0.94 M138.84 78.71 C157.63 54.2, 178.08 33.52, 207.36 1.64 M137.44 79.84 C161.06 51.61, 184.4 27.56, 205.58 -0.01 M142.8 77.09 C162.44 58.13, 179.58 34.34, 207.58 5.38 M144.43 78.47 C165.77 52.11, 188.25 26.69, 206.46 7.03 M148.86 78.38 C165.22 59.03, 179.27 42.81, 205.84 13.39 M147.96 79.7 C168.66 55.87, 190.35 32.3, 207.36 11.62 M154.26 79.74 C172.41 60.62, 189.91 41.35, 205.07 18.5 M154.22 78.87 C166.87 62.78, 180.39 48.04, 207.77 17.38 M158.34 80.23 C174.37 62, 187.98 42.81, 207.18 25.54 M158.95 78.61 C172.48 63.85, 185.63 47.19, 206.8 23.69 M163.14 78.39 C177.81 63.05, 189.76 53.03, 207.11 31.6 M165.5 78.54 C179.09 60.94, 194.27 44.91, 205.48 31.13 M169.64 79.83 C180.52 68.04, 192.36 53.3, 206.27 35.89 M169.3 78.02 C181.21 66.24, 191.51 53.88, 207.64 37.45 M174.43 78.71 C188.36 66.37, 197.02 51.24, 208.05 43.53 M175.94 77.8 C184.56 68.08, 193.76 58.74, 205.67 42.58 M181.93 77.42 C188.16 69.68, 198.44 58.46, 205.83 47.88 M179.7 78.82 C186.55 71.83, 191.23 65.61, 205.93 49.05 M185.02 80.03 C193.4 69.14, 201.25 61.84, 207.16 54.07 M185.54 77.87 C190.83 74.18, 195.88 67.48, 207.27 54.74 M189.26 79.91 C194.28 73.25, 196.96 69.99, 205.8 61.36 M191.69 78.34 C196.48 71.78, 201.97 65.95, 206.4 61.33 M196.79 78.28 C198.77 74.7, 202.27 71.65, 205.49 66.93 M196.82 78.76 C198.24 76.59, 200.95 73.31, 205.92 67.24 M202.08 78.78 C203.92 77.13, 204.79 74.55, 206.95 72.81 M202.13 78.94 C202.58 77.53, 204.02 76.68, 206.32 73.58" stroke="#fa5252" stroke-width="0.5" fill="none"></path><path d="M-1.25 -0.8 C77.11 -0.31, 158.68 -1.11, 207.2 -1.09 M0.19 0.23 C79.35 0.68, 157.95 0.07, 206.19 -0.47 M205.44 0.44 C205.51 27.63, 205.09 54.82, 206.64 77.23 M205.97 0.72 C207.08 26.22, 206.72 50.61, 207.4 78.7 M207.7 77.13 C138.79 77.84, 71.1 78.7, 0.83 80.04 M206.74 78.08 C125.32 78.06, 43.22 77.28, 0.38 78.78 M0.56 79.27 C-0.25 55.24, 0.18 27.73, -1 -1.79 M-0.99 78.32 C1.11 49.36, 0.71 19.48, 0.36 0.88" stroke="#000000" stroke-width="1" fill="none"></path></g><g transform="translate(922.2000274658203 35.199981689453125) rotate(0 63 14)"><text x="63" y="21" font-family="Virgil, Segoe UI Emoji" font-size="20px" fill="#000000" text-anchor="middle" style="white-space: pre;" direction="ltr">父 destroyed</text></g><g stroke-linecap="round"><g transform="translate(215.00003051757818 45.19993591308594) rotate(0 41.43023892603816 0.013375532906493959)"><path d="M-0.54 -1.02 C13.29 -0.72, 69.5 0.7, 83.4 0.96 M1.38 1.05 C15.03 1.1, 69.14 -0.23, 82.56 -0.66" stroke="#000000" stroke-width="1" fill="none"></path></g><g transform="translate(215.00003051757818 45.19993591308594) rotate(0 41.43023892603816 0.013375532906493959)"><path d="M52.95 10.7 C65.64 6.25, 74.24 1.92, 84.19 1.09 M55.31 10.77 C62.97 6.9, 70.17 3.54, 83.02 -0.21" stroke="#000000" stroke-width="1" fill="none"></path></g><g transform="translate(215.00003051757818 45.19993591308594) rotate(0 41.43023892603816 0.013375532906493959)"><path d="M52.39 -9.81 C65.12 -7.42, 73.91 -4.92, 84.19 1.09 M54.75 -9.74 C62.61 -7.82, 69.97 -5.38, 83.02 -0.21" stroke="#000000" stroke-width="1" fill="none"></path></g></g><g stroke-linecap="round"><g transform="translate(511.0000610351563 46.7999267578125) rotate(0 37.96857598461211 0.5412410844303679)"><path d="M-1.02 0.2 C11.94 0.37, 64.03 0.48, 76.96 0.46 M0.64 -0.74 C13.61 -0.35, 63.95 1.53, 76.52 1.82" stroke="#000000" stroke-width="1" fill="none"></path></g><g transform="translate(511.0000610351563 46.7999267578125) rotate(0 37.96857598461211 0.5412410844303679)"><path d="M48.36 12.8 C54.05 10.19, 59.94 8.76, 78.26 1.47 M48.43 11.65 C56.87 7.76, 65.79 5.45, 76.96 2.82" stroke="#000000" stroke-width="1" fill="none"></path></g><g transform="translate(511.0000610351563 46.7999267578125) rotate(0 37.96857598461211 0.5412410844303679)"><path d="M49 -7.71 C54.45 -5.62, 60.19 -2.32, 78.26 1.47 M49.06 -8.87 C57.36 -6.15, 66.08 -1.87, 76.96 2.82" stroke="#000000" stroke-width="1" fill="none"></path></g></g><g stroke-linecap="round"><g transform="translate(801.400146484375 49.99992370605469) rotate(0 38.45462417559699 0.3105313641215872)"><path d="M0.2 0.96 C13.3 1.34, 65.15 1.11, 78.06 1.23 M-1.15 0.42 C11.81 0.53, 63.38 -0.51, 76.94 -0.61" stroke="#000000" stroke-width="1" fill="none"></path></g><g transform="translate(801.400146484375 49.99992370605469) rotate(0 38.45462417559699 0.3105313641215872)"><path d="M50.49 9.48 C57.03 6.06, 64.91 6.31, 76.59 -0.18 M49.34 9.76 C57.72 5.94, 67.56 3.43, 77.93 -1.09" stroke="#000000" stroke-width="1" fill="none"></path></g><g transform="translate(801.400146484375 49.99992370605469) rotate(0 38.45462417559699 0.3105313641215872)"><path d="M50.21 -11.04 C56.64 -9.23, 64.6 -3.75, 76.59 -0.18 M49.05 -10.76 C57.66 -7.9, 67.6 -3.71, 77.93 -1.09" stroke="#000000" stroke-width="1" fill="none"></path></g></g></svg>