<svg version="1.1" xmlns="http://www.w3.org/2000/svg" viewBox="0 0 517.066670735677 98.39996337890625" width="517.066670735677" height="98.39996337890625">
  <!-- svg-source:excalidraw -->
  
  <defs>
    <style>
      @font-face {
        font-family: "Virgil";
        src: url("https://excalidraw.com/Virgil.woff2");
      }
      @font-face {
        font-family: "Cascadia";
        src: url("https://excalidraw.com/Cascadia.woff2");
      }
    </style>
  </defs>
  <g stroke-linecap="round" transform="translate(10 10) rotate(0 103.19999694824219 39.199981689453125)"><path d="M0 0 C0 0, 0 0, 0 0 M0 0 C0 0, 0 0, 0 0 M-0.16 6.21 C1.11 4.22, 2.08 3.81, 5.47 0.48 M0 6.47 C0.67 5, 2.05 3.2, 4.82 0.34 M0.55 13.06 C2.23 7.78, 6.01 5.55, 10.63 -1.07 M0.24 12.27 C3.52 9.05, 6.33 4.89, 11.05 0.71 M-1.42 19.24 C2.51 13.03, 9.98 8.59, 13.74 1.23 M-0.79 19.43 C4.96 12.02, 8.48 6.33, 16.5 0.75 M0.76 22.38 C5.95 14.63, 12.3 10.24, 22.29 0.27 M-0.4 23.29 C5.29 19.43, 8.84 13.31, 21.46 -0.15 M0.95 29.62 C7.21 23.32, 13.09 16.58, 25.45 -1.66 M-0.85 30.69 C9.5 19.76, 18.71 9.38, 25.37 1.28 M-1.12 38.15 C9.1 28.53, 17.51 15.55, 30.65 -2.1 M-0.9 37.75 C6.27 29.67, 13.53 19.84, 30.95 0.57 M0.92 41.08 C8.47 34.67, 17.35 25.2, 36.92 -1.27 M-0.02 41.54 C9.8 30.82, 19.94 20.87, 36.79 1 M0.71 49.09 C11.46 36.61, 21.56 26.4, 42.84 -0.74 M-0.68 49.65 C13.13 33.66, 26.88 17.07, 42.24 -1.09 M-1.61 56.55 C8.96 42.15, 20.58 31.81, 47.83 2.03 M-0.07 54.22 C12.66 40.38, 23.94 27.33, 47.86 1.03 M1.99 62.87 C15.88 40.63, 34.82 21.62, 52.08 -1.02 M0.33 61.25 C19.63 37.17, 40.98 14.47, 52.39 -0.25 M-1.36 66.66 C23.56 42.83, 43.76 15.41, 57.9 0.86 M-0.95 66.72 C15.55 50.06, 30.14 33.98, 57.14 0.51 M-0.78 71.32 C17.63 52.4, 31.82 37.14, 65.62 -1.39 M0.32 72.07 C13.57 57.83, 26.26 42.05, 62.97 -0.99 M-0.34 77.96 C13.24 61.15, 28.91 45.34, 66.93 0.74 M0.48 79.08 C17.72 56.25, 35.58 36.53, 68.67 0.61 M6.18 77.2 C22.43 58.57, 40.92 41.09, 72.79 -1.33 M6.2 79.61 C24.83 57.38, 42.92 36.76, 73.98 -0.39 M12.06 80.41 C33.75 50.87, 57.93 25.1, 78.77 0.14 M10.4 78.79 C26.37 60.42, 42.1 42.17, 79.95 0.56 M15.48 78.24 C39.42 50.54, 62.99 22.05, 84.97 -1.41 M17.09 79.47 C30.2 60.62, 44.66 44.97, 85.92 -0.45 M22.12 80 C37.1 63.21, 51.76 48.11, 89.35 -1.51 M21.07 79.54 C45.92 50.71, 70.92 22.81, 89.94 -0.41 M26.54 79.11 C44.37 60.51, 63.5 38.98, 95.62 0.75 M26.34 79.3 C46.98 56.07, 66.69 31.78, 95.73 -0.17 M32.04 78.37 C54.98 57.06, 75.58 31.72, 102.64 0.11 M33.07 78.71 C57.18 49.21, 84.31 19.12, 101.09 0.96 M36.09 79.43 C58.73 56.21, 78.87 30.63, 108.25 -1.53 M38.01 78.75 C62.14 49.89, 86.47 21.59, 106.84 0.48 M42.1 80.08 C65.65 52.16, 88.92 27.11, 110.68 -1.7 M43.45 78.7 C67.13 52.87, 88.34 27.84, 111.3 0 M48.92 79.72 C66.08 56.7, 83.38 37.1, 115.77 0.75 M47.64 79.48 C67.56 57.23, 85.4 36.77, 116.49 1.32 M54.62 76.64 C79.05 51, 100.7 22.95, 121.6 -0.73 M53.73 78.95 C77.34 50.54, 101.79 22.54, 121.95 0.02 M57.9 77.46 C82.47 51.04, 108.97 18.63, 127.15 1.28 M58.23 79.22 C78.75 57.04, 97.79 33.95, 126.36 0.96 M65.98 78.48 C84.83 55.6, 105.87 29.64, 131.54 -1.8 M63.9 77.96 C83.34 57.13, 100.06 35.11, 131.88 0.4 M67.94 79.06 C90.85 51.75, 114.15 24.98, 139.41 -1.07 M70.24 79.71 C88.22 56.59, 108.17 35.11, 136.6 1.27 M74.63 78.99 C99.42 48.96, 122.21 21.02, 144.76 -0.83 M74.4 79.21 C90.5 59.03, 106.13 40.16, 143.42 0.53 M80.02 79.87 C95.68 60.68, 115.62 41.95, 148.33 -1.22 M79.62 78.71 C101.11 54.67, 122.74 30.47, 148.53 0.42 M84.44 79.23 C112.03 49.79, 133.24 20.22, 153.53 -0.79 M85.52 80.01 C102.97 56.14, 124.33 34.19, 154.34 -0.16 M91.19 80.16 C109.88 55.23, 131.73 33.24, 159.73 0.83 M89.78 78.03 C106.8 59.16, 125.53 37.87, 157.9 -0.4 M95.28 80.94 C117.57 53.82, 143.47 26.72, 166.21 0.3 M95.94 78.41 C122.84 48.95, 146.78 19.47, 163.89 -0.21 M102.56 77.16 C121.09 54.53, 145.47 29.96, 169.5 0.01 M101.59 79.5 C126.71 48.67, 153.11 19.19, 168.97 1.04 M107.14 79.08 C125.27 57.66, 142.85 38.23, 175.23 1.36 M106.87 79.77 C129.95 50.74, 154.16 23.23, 174.79 -0.13 M111.28 77.02 C135.05 52.27, 156.76 24.44, 179.58 -1.79 M111.39 79 C137.18 48.96, 161.26 19.33, 180.42 -0.01 M118.72 78.77 C134.95 58.4, 151.74 39.56, 185.07 -1.78 M116.65 79.71 C142.92 50.21, 167.62 21.28, 185.24 -0.4 M122.6 78.86 C143.43 53.47, 167.02 26.33, 190 0.24 M123 78.41 C143.77 55.22, 163.45 29.97, 191.43 0.74 M126.79 80.07 C154.05 51.34, 176.49 19.96, 196.27 -0.34 M128.08 78.91 C144.72 58.22, 163.23 36.14, 196.88 0.54 M133.8 78.69 C158.45 45.69, 185.06 14.47, 202.82 1.85 M133.71 77.66 C152.73 57.99, 171.11 36.9, 201.65 0.61 M138.16 77.99 C151.42 60.47, 167.53 43.42, 204.78 0.18 M138.41 79.05 C154.45 61.17, 168.92 42.98, 206.2 1.03 M142.25 77.5 C169.06 52.49, 192.32 23.65, 204.93 7.77 M144.26 78.72 C164.85 53.41, 187.57 28.31, 205.93 5.99 M149.73 78.47 C168.14 56.6, 191.27 31.67, 206.08 12.98 M149.39 78.87 C167.11 57.29, 185.83 34.94, 206.6 13.24 M153.36 77.18 C173.11 59.53, 188.9 38.11, 206.54 19.63 M154.88 77.57 C165.4 64.75, 176.35 51.38, 206.87 18.25 M160.44 78.38 C173.67 62.16, 188.74 45.47, 206.75 26.35 M159.22 78.11 C172.28 62.79, 187.37 45.51, 205.98 25.5 M164.62 76.6 C178.16 63.88, 193.26 48.41, 204.5 32.71 M165.24 78.24 C180.24 59.14, 197.84 41.75, 206.09 30.53 M171.31 77.55 C178.25 69.11, 188.41 57.66, 207.58 36.83 M170.57 79.56 C177.09 69.02, 185.74 61.28, 205.89 37.5 M177.56 79.52 C186.95 67.41, 198.52 52.04, 206.44 41.01 M176.52 78.78 C187.21 65.72, 196.67 52.72, 206.42 42.77 M181.42 78.72 C187.71 69.42, 195.24 58.83, 205.43 49.87 M180.59 79.05 C186.89 70.34, 194.17 63.07, 207.31 48.94 M185.8 78.68 C192.39 71.45, 200.49 61.02, 208.11 55.72 M185.34 79.28 C189.94 73.75, 195.38 68.6, 207.21 54.18 M191.89 79.59 C197.47 73.33, 200.81 68.91, 204.55 60.65 M190.88 79.43 C196.51 73.49, 202.25 67.09, 206.07 62.31 M194.72 80.21 C197.3 77.01, 201.55 74.12, 207.7 66.38 M196.95 78.7 C198.75 75.52, 202.14 73.64, 206.85 66.44 M201.88 78.06 C203.74 76.8, 206.12 74.94, 206.73 74 M201.74 78.68 C203.92 76.73, 205.1 74.7, 206.78 73.61" stroke="#fa5252" stroke-width="0.5" fill="none"></path><path d="M-1.69 0.24 C55.16 -0.57, 109 -0.99, 207.03 1.06 M0.87 -0.12 C71.78 -0.5, 142.73 -0.21, 205.95 -0.42 M208.08 -1.14 C208.7 25.39, 208.31 52.44, 208.11 76.9 M206.3 0.11 C206.34 17.7, 205.01 37.21, 206.97 77.57 M205.98 80.08 C140.34 76.58, 75.88 79.08, 1.62 77.94 M206.88 79.29 C150.01 77.17, 92.35 77.11, 0.54 78.4 M1.81 76.65 C0.68 57.7, 1.53 37.87, 0.89 -1.56 M-0.22 77.99 C-0.43 54.15, -0.03 29.05, -0.97 0.55" stroke="#000000" stroke-width="1" fill="none"></path></g><g transform="translate(32.19999694824219 35.199981689453125) rotate(0 81 14)"><text x="81" y="21" font-family="Virgil, Segoe UI Emoji" font-size="20px" fill="#000000" text-anchor="middle" style="white-space: pre;" direction="ltr">父 beforeUpdate</text></g><g stroke-linecap="round" transform="translate(300.6666768391927 10) rotate(0 103.19999694824219 39.199981689453125)"><path d="M0 0 C0 0, 0 0, 0 0 M0 0 C0 0, 0 0, 0 0 M-0.18 5.74 C1.47 4.55, 4.15 1.99, 4.44 -0.1 M-0.58 6.41 C1.21 4.09, 2.85 2.56, 4.98 0.42 M-0.89 11.31 C1.96 10.04, 4.6 5.77, 10.31 0.16 M0.59 12.53 C4.6 6.95, 8.83 3.2, 10.38 0.61 M-1.57 18 C7.6 11.68, 9.74 5.9, 15.79 2.06 M0.26 17.73 C4.87 10.76, 12.55 5.28, 15.75 0.15 M-0.67 22.12 C4.67 19.02, 12.45 11.7, 19.6 1.88 M0.97 24.77 C7.44 15.64, 15.26 7.34, 20.66 -0.3 M0.83 30.54 C7.77 22.53, 14.09 11.37, 27.2 1.51 M0.56 30.18 C8.05 22.03, 13.69 14.96, 25.98 -0.4 M0.04 38.74 C10.33 23.58, 19.69 10.48, 30.29 0.83 M-0.63 37.66 C8.02 26.22, 15.49 18.36, 31.09 0.37 M0.59 44.27 C15.21 28.27, 28.01 9.06, 36.04 -0.83 M0.08 41.77 C12.24 29.95, 22.99 17.32, 36.27 0.25 M1.24 48.36 C13.61 35.26, 25.38 19.08, 43.03 0.66 M-0.56 49.56 C11.67 34.71, 24.05 19.84, 41.66 0.45 M-0.83 54.04 C17.97 35.56, 34.68 17.28, 46.58 -0.39 M0.52 54.53 C17.96 34.78, 36.69 14.26, 47.66 0.51 M-0.71 59.54 C13.01 45.33, 22.65 31.63, 54.62 -2.1 M-0.81 60.02 C16.49 41.59, 31.06 23.91, 53.91 -0.41 M1.48 68.39 C21.03 42.34, 41.7 20.13, 57.13 -1.67 M0.36 67.25 C22.69 43.18, 42.9 17.8, 57.67 -0.18 M1.25 71.04 C19.88 51.6, 42.74 25.85, 61.92 -1.97 M-0.24 72.86 C17.04 52.24, 34.98 31.64, 62.83 -0.48 M-0.92 77.77 C27.37 48.08, 51.51 19.1, 68.09 1.78 M0.22 77.76 C26.8 47.76, 54.12 17.11, 68.28 0.65 M5.53 78.51 C27.68 57.15, 46.05 29.74, 73.84 -0.55 M6.01 78.88 C25.47 55.65, 45.77 31.03, 74.89 -0.02 M10.17 78.04 C29.14 57.25, 47.99 34.54, 77.9 -0.67 M10.7 78.36 C34.81 51.04, 58.59 25.7, 79.94 0.51 M15.31 78.58 C34.72 55.43, 56.36 32.06, 83.36 1.51 M16.02 77.98 C37.84 52.66, 62.29 25.53, 84.05 -1.27 M22.64 79.11 C45.65 53.77, 65.29 25.52, 91.08 -0.71 M21.53 78.52 C44.69 52.74, 65.59 27.59, 89.59 -0.05 M26.61 80.85 C49.05 55.56, 68.56 31.93, 95.54 0.5 M27.09 79.1 C45.35 56.62, 64.02 36.46, 95.69 -0.41 M34.29 80.52 C52.43 58.24, 70.54 37.26, 102.21 0.92 M31.75 78.43 C48.73 59.31, 64.62 42.22, 100.61 0.53 M38.76 79.82 C61.81 51.31, 85.33 25.25, 107.47 1.63 M38.24 78.18 C56.99 55.85, 76.65 34.77, 106.71 0.38 M42.98 78.73 C62.3 58.13, 80.63 32.76, 111.92 -1.59 M43.86 78.28 C56.31 62.85, 71.12 45.73, 110.86 0.84 M49.15 76.94 C69.18 53.52, 88.5 31.43, 115.67 -0.17 M48.96 78.2 C67.35 57.04, 85.85 36.52, 116.78 -0.28 M54.61 79.16 C78.89 48.29, 106.84 16.46, 122.92 0.89 M53.83 78.32 C77.99 50.27, 100.94 23.82, 122.68 0.52 M57.21 80.58 C78.79 54.66, 100.11 33.2, 126.68 0.68 M59.19 79.17 C74.25 60.81, 89.18 43.87, 127.04 0.01 M63.18 80.15 C82.16 55.81, 102.62 30.7, 131.95 0.42 M65.09 78.82 C88.91 49.34, 114.41 21.2, 132.86 0.24 M68.48 78.06 C93.32 50.04, 118.91 23.04, 137.14 0.96 M69.36 78.13 C85.46 59.61, 99.6 42.36, 138.11 -0.08 M74.72 76.99 C93.4 53.72, 116.98 31.05, 141.86 0.01 M74.56 78.09 C101.83 45.76, 130.01 15.89, 142.67 -0.32 M78.52 79.63 C96 63.31, 109.18 43.41, 148.4 1.65 M80.37 79.13 C101.34 56.02, 121.28 32.09, 148.74 -0.58 M86.7 78.66 C109.15 47.85, 136.25 19.27, 153.53 1.6 M83.95 79.2 C109.76 50.98, 134.24 21.8, 153.84 -0.42 M88.97 78.48 C104.97 62.43, 121.42 44.13, 157.89 0.66 M89.57 79.29 C113.24 53.5, 133.73 28.6, 159.16 0.49 M94.58 80.79 C121.03 52.55, 144.7 24.54, 165.9 -1.95 M96.42 79.03 C120.08 50, 146.16 20.3, 164.58 -0.32 M99.53 78.74 C117.95 60.93, 132.76 42.18, 171.09 0.83 M100.8 78.74 C121.04 55.44, 141.02 32.28, 169.05 1.16 M107.95 78.26 C125.61 58.28, 143.07 37.91, 176 1.2 M106.63 78.73 C132.39 48.31, 157.29 18.88, 175.56 0.78 M111.96 79.47 C128.26 58.68, 148 35.35, 181.54 1.95 M112.35 78.63 C134.62 51.23, 159.31 24.44, 179.57 -0.51 M117.09 78.08 C133.92 58.4, 151.68 35.85, 186.89 -2.21 M117.37 78.71 C138.17 53.94, 157.97 30.64, 185.93 0.69 M122.09 78.68 C142.5 55.07, 159.56 35.11, 190.85 0.75 M122.99 79.16 C139.27 57.48, 158.85 37.88, 191.35 -0.45 M128.37 80.23 C145.31 55.1, 166.54 33.79, 195.71 1.51 M126.87 79.44 C145.81 56.34, 166.45 35.03, 197.29 0.27 M131.81 77.31 C156.48 47.96, 185.11 21.86, 200.68 -1.13 M133.95 79.55 C159.15 50.68, 184.14 20.81, 200.47 -0.54 M136.2 77.62 C160.19 51.78, 181.8 26.89, 205.02 1.75 M138.88 79.41 C154.83 59.13, 173.39 38.4, 207.08 0.15 M145.06 79.24 C158 63.22, 168.3 50.85, 207.52 4.96 M142.95 78.07 C162.17 56.44, 179.33 36.04, 207.27 5.4 M147.06 80.1 C164.45 61.52, 178.43 44.53, 206.88 12.64 M148.56 79.14 C170.19 52.96, 192.3 29.19, 206.64 11.8 M155.87 79.28 C174.84 54.88, 193.79 34.99, 205.16 18.54 M154.15 78 C170.91 58.08, 189.07 38.86, 206.76 17.56 M159.51 78.45 C178.17 57.39, 194.7 39.99, 206.46 25.35 M158.59 79.19 C178.01 57.37, 195.15 38.41, 206.85 23.86 M164.29 79.18 C175.49 68.69, 182.37 58.65, 208.06 30.81 M164.19 77.66 C178.98 63.47, 191.29 47.51, 206.05 30.86 M168.14 80.39 C175.8 71.72, 186.27 61.25, 205.15 37.34 M169.08 78.14 C177.55 70.05, 185.36 60.56, 207.18 37.3 M176.48 79.64 C185.19 67, 191.66 57.46, 207.44 41.67 M176.19 78.39 C186.41 64.05, 198.99 50.84, 206.41 42.04 M179.62 78.58 C188.95 65.8, 198.5 57.71, 206.4 48.97 M179.64 78.6 C186.21 72.1, 194.23 63.93, 207.59 48.12 M184.63 80.28 C191.66 71.12, 200.84 64.12, 204.62 54.22 M185.73 78.59 C194.36 69.84, 201.27 61.08, 206.64 54.11 M192.69 78.62 C195.65 74.52, 198 68.07, 207.06 60.32 M191.32 79.23 C195.34 74.78, 197.67 71.94, 205.85 62.12 M194.72 80.16 C200.42 75.66, 205.32 69.18, 205.87 67.6 M196.19 78.56 C200.51 75.54, 203.53 70.2, 207.44 67.32 M201.95 78.85 C203.65 77.82, 204.36 76.77, 207 72.99 M202.14 78.72 C202.93 77.18, 204.87 75.84, 206.35 73.6" stroke="#fa5252" stroke-width="0.5" fill="none"></path><path d="M0.35 -1.14 C54.92 -1.81, 111.67 0.81, 207.25 0.83 M0 0.34 C70.48 0.88, 142.16 -0.17, 206.75 0.38 M208.37 -1.18 C208.64 28.52, 208.77 56.94, 205.14 77.38 M206.74 -0.87 C205.33 16.19, 206.89 31.39, 206.56 78.26 M205.67 77.47 C154.66 81.71, 104.32 79.67, -0.46 77.51 M206.63 78.97 C163.84 80.73, 123.45 80.23, -0.38 78.14 M0.45 77.85 C0.59 54.87, 0.18 30.25, 0.17 1.84 M0.29 78.35 C0.87 60.03, -0.8 44.11, -0.78 -0.07" stroke="#000000" stroke-width="1" fill="none"></path></g><g transform="translate(348.8666737874348 35.199981689453125) rotate(0 55 14)"><text x="55" y="21" font-family="Virgil, Segoe UI Emoji" font-size="20px" fill="#000000" text-anchor="middle" style="white-space: pre;" direction="ltr">父 updated</text></g><g stroke-linecap="round"><g transform="translate(215.00003051757812 45.19993591308594) rotate(0 41.69691350219306 -0.35261526937421195)"><path d="M0.72 0.57 C14.85 0.59, 69.82 0.67, 83.76 0.55 M-0.37 -0.17 C13.75 -0.55, 69.01 -1.5, 83.11 -1.29" stroke="#000000" stroke-width="1" fill="none"></path></g><g transform="translate(215.00003051757812 45.19993591308594) rotate(0 41.69691350219306 -0.35261526937421195)"><path d="M55.91 10.01 C61.8 8.67, 66.59 4.51, 83.86 -3.15 M55.35 9.5 C66.17 6.21, 75.31 2.51, 82.52 -0.5" stroke="#000000" stroke-width="1" fill="none"></path></g><g transform="translate(215.00003051757812 45.19993591308594) rotate(0 41.69691350219306 -0.35261526937421195)"><path d="M55.84 -10.51 C61.81 -7.5, 66.62 -7.31, 83.86 -3.15 M55.27 -11.02 C66.02 -6.71, 75.18 -2.8, 82.52 -0.5" stroke="#000000" stroke-width="1" fill="none"></path></g></g></svg>