<svg version="1.1" xmlns="http://www.w3.org/2000/svg" viewBox="0 0 1098.4000244140625 263.9999694824219" width="1098.4000244140625" height="263.9999694824219">
  <!-- svg-source:excalidraw -->
  
  <defs>
    <style>
      @font-face {
        font-family: "Virgil";
        src: url("https://excalidraw.com/Virgil.woff2");
      }
      @font-face {
        font-family: "Cascadia";
        src: url("https://excalidraw.com/Cascadia.woff2");
      }
    </style>
  </defs>
  <g stroke-linecap="round" transform="translate(10 10) rotate(0 103.19999694824219 39.199981689453125)"><path d="M0 0 C0 0, 0 0, 0 0 M0 0 C0 0, 0 0, 0 0 M0.45 6.38 C1.73 4.3, 3.05 3.75, 5.07 -0.43 M-0.57 6.06 C1.3 3.94, 3.15 2.21, 4.84 0.48 M-1.35 11.51 C5.21 6.51, 8.23 2.75, 9.65 -0.79 M0.87 12.61 C3.47 8.21, 8.72 3.41, 10.16 0.17 M-1.81 17.48 C4.74 12.05, 11.07 8.75, 16.95 -1.39 M0.08 18.44 C3.79 12.12, 9.01 7.77, 15.73 -0.2 M1.67 24.87 C5.9 16.45, 13.33 9.92, 20.67 -1.12 M0.55 23.74 C5.95 17.89, 11.63 10.99, 22.15 0.1 M1.82 29.9 C9.33 20.57, 12.75 15.2, 24.47 1.36 M0.61 30.85 C6.77 24.49, 12.32 16.34, 27.21 0.09 M0.43 38.41 C9.84 26.53, 19.96 14.13, 31.9 -0.09 M-0.06 37.41 C8.92 26.96, 18.33 15.62, 32.8 0.59 M1.32 42.63 C11.89 32.6, 22.25 19.77, 36.37 1.43 M1.08 42.47 C10.19 31.26, 21.34 18.52, 36.92 0.07 M-0.22 50.05 C8.55 38.47, 20.37 27.39, 41.68 -1.58 M0.8 48.41 C14.99 33.44, 27.89 16.06, 42.14 0.22 M-1.47 52.76 C16.7 35.65, 32.89 14.9, 48.22 1.67 M0 55.41 C11.75 42.3, 21.71 30.02, 47.77 -0.26 M1.86 60.14 C19.99 38.79, 39.85 17.55, 53.54 0.81 M-0.25 61.12 C11.62 47.64, 23.28 35.17, 52.34 -0.04 M-0.42 68.17 C14.72 49.8, 31.63 33, 58.52 1 M-0.74 67.07 C16.34 48.44, 33.75 27.52, 57.72 0.58 M0.44 72.34 C25.58 46.56, 50.33 17.8, 63.96 -0.48 M1.12 72.63 C18.11 50.28, 37.44 30.01, 63.62 -0.72 M2.16 79.79 C16.12 61.47, 33.66 40.29, 68.72 -1.59 M1.42 78.24 C23.74 51.52, 48.09 23.67, 69.73 -0.49 M5.44 80.36 C31.11 50.32, 56.49 24.33, 74.35 1.08 M5.51 79.48 C26.11 55.17, 48.2 31.41, 74.21 0.1 M11.46 77.09 C27.16 60.76, 45.82 41.3, 79.2 0.94 M11.62 78.66 C31.38 54.15, 52.15 31.32, 79.81 0.96 M16.49 79.99 C39.14 49.71, 67.11 24.25, 83.05 -1.96 M15.29 79.68 C38.25 54.5, 58.4 31.65, 84.39 -1.2 M23.23 76.7 C45.2 51.51, 69.8 25.04, 89.26 -0.31 M22.68 77.68 C43.08 56.21, 62.46 32.28, 91 0.79 M26.92 77.12 C45.88 59.36, 63.27 34.7, 97.35 1.06 M26.63 78.8 C46.59 55.55, 66.62 33.89, 96.45 0.25 M32.01 78.02 C52.19 55.3, 71.1 34.53, 101.16 1.83 M33.26 77.78 C57.88 49.92, 82.39 19.11, 101.37 0.35 M38.23 79.67 C65.44 47.59, 91.76 14.89, 105.46 -1.18 M37.98 79.78 C52.84 61.72, 68.87 44.47, 106.74 -0.22 M41.26 78.48 C67.07 51.54, 88.51 25.14, 112.09 -1.4 M42.08 77.92 C67.29 49.44, 94.37 19.32, 112.01 0.46 M46.85 79.62 C63.07 63.51, 77.44 46.09, 115.9 -1.14 M48.8 79.07 C63.53 62.32, 76.92 45.11, 116.96 -0.06 M55.41 77.62 C71.8 56.07, 91.94 33.62, 122.19 1.29 M53.88 77.51 C80.79 48.03, 106.59 17.12, 121.07 -0.61 M60.17 77.02 C71.67 60.22, 88.33 47.66, 128.07 0.48 M59.61 78.59 C81.03 54.74, 102.15 30.44, 126.83 -0.51 M63.79 76.99 C86.87 51.88, 110.18 22.44, 134.5 1.25 M63.43 78.45 C90.72 47.43, 116.68 18.26, 131.69 0.9 M68.49 79.97 C87.96 57.4, 108.7 35.32, 136.35 -0.67 M69.95 79.7 C90.51 52.72, 112 28.75, 138.11 -0.07 M76.69 80.25 C98.93 51.76, 122.27 24.81, 143.05 1.91 M75.53 79.1 C99.3 52.89, 122.37 25.3, 144.09 0.21 M81.08 80.64 C106.44 52.8, 127.08 24.35, 148.71 0.35 M80.37 79.26 C103.36 49.6, 128.99 21.54, 147.26 0.44 M84.67 77.84 C109.55 50.5, 133.05 25.94, 152.76 -1.26 M84.37 79.05 C106.87 54.24, 127.85 28.47, 153.47 0.01 M90.12 79.27 C109.68 56.13, 130.26 31.71, 158.06 -1.44 M90.49 79.56 C114.43 53.26, 136.8 25.71, 158.78 0.72 M97.21 80.01 C115.88 54.44, 137.66 28.96, 163.52 -0.71 M96.11 80.07 C122.13 49.34, 147.38 17.97, 164.1 0.45 M102.75 80.14 C116.95 58.39, 133.61 41.74, 170.24 -0.96 M100.93 78.41 C121.88 55.58, 141.48 31.65, 169.19 0.89 M106.75 77.36 C129.08 55.27, 151.05 27.41, 174.14 -0.83 M107.01 78.71 C125.22 55.88, 143.92 34.12, 175.27 -0.83 M113.02 79.61 C131.6 58.45, 150.77 36.39, 180.05 0.92 M111.35 79.05 C125.83 63.48, 140.36 45.93, 181.04 -0.42 M115.31 77.75 C142.17 46.51, 169.1 18.59, 186.38 -1.96 M115.98 79.18 C130.45 62.22, 144.19 47.74, 185.29 -0.75 M121.94 78.11 C141.68 51.98, 164.69 31.86, 191.2 1.41 M122.46 78.19 C135.98 61.77, 151.44 44.52, 190.91 -0.14 M125.88 79.16 C154.52 48.19, 177.4 19.98, 196.91 -0.36 M127.99 78.2 C153.57 49.5, 178.56 21.69, 195.51 -0.73 M133.45 80.11 C152.73 58.49, 169.97 37.96, 200.35 -0.24 M133.97 78.04 C158.88 49.68, 184.88 18.95, 201.42 -0.73 M138.36 77.58 C154.98 57.62, 175.89 36.4, 204.73 0.51 M138.03 78.94 C156.9 57.78, 174.93 38.66, 205.66 0 M142.42 78.16 C161.02 60.49, 178.41 39.2, 207.85 7.33 M144.64 78.24 C166.31 54.15, 186.39 29.09, 205.97 5.88 M149.6 79.09 C172.94 54.99, 192.38 29.66, 207.2 11.08 M149.13 79.04 C160.83 64.54, 173.02 50.47, 205.97 11.52 M154.69 76.86 C168.66 64.57, 178.12 47.37, 208.23 19.53 M154.26 77.92 C168.39 61.99, 183.25 45.41, 207.24 18.17 M157.39 79.84 C175.51 61.12, 187.7 44.7, 207.68 23.95 M160.32 78.62 C175.92 59.8, 193.37 40.39, 206.72 25.47 M162.98 76.88 C178.37 63.79, 188.37 52.36, 205.57 32.5 M165.65 77.69 C177.53 66.29, 189.09 51.36, 206.53 31.81 M168.43 78.01 C181.85 63.75, 195.92 46.26, 206.6 35.09 M170.71 78.24 C183.08 63.65, 196.72 48.56, 207.38 36.3 M175.01 78.96 C187.4 65.22, 196.65 54.17, 205.57 44.26 M174.66 77.59 C183.69 70.46, 189.66 62.27, 205.89 42.72 M182.4 77.88 C188.26 70.7, 196.58 58.76, 207.33 48.55 M181.4 78.97 C187.38 70.28, 194.8 64.23, 206.47 47.91 M185.38 79.89 C192.01 69.84, 202.15 61.69, 204.93 53.14 M186.16 79.17 C193.66 70.56, 200.81 61.04, 207.44 55.54 M191.89 77.77 C194 75.06, 198.98 67.1, 207.55 61.2 M191.54 78.31 C196.23 72.8, 201.62 65.48, 206.87 60.44 M195.26 77.65 C197.44 75.6, 201.86 71.28, 206.09 66.83 M195.58 78.37 C198.32 77.32, 200.43 73.8, 206.12 66.71 M202.06 78.5 C203.88 77.78, 204.7 75.78, 206.22 72.84 M202.01 78.57 C203.11 77.51, 204.16 75.9, 206.45 73.37" stroke="#fa5252" stroke-width="0.5" fill="none"></path><path d="M1.73 0.25 C55.23 0.18, 111.79 -0.26, 207 -1.77 M-0.83 -0.12 C43.79 0.6, 87.76 0.42, 205.68 0.07 M205 -0.03 C207.3 25, 207.5 50.73, 207.8 76.59 M206.21 -0.34 C206.42 31.55, 206.05 62.31, 205.72 79.06 M205.47 78.82 C124.75 79.49, 42.85 78.3, -0.31 78.18 M206.39 77.78 C153.37 77.96, 100.72 77.79, -0.33 78.89 M0.21 79.63 C0.91 59.96, -0.77 44.03, 1.15 1.54 M-0.75 79.01 C-0.37 51.34, 0.53 26.21, 0.63 -0.77" stroke="#000000" stroke-width="1" fill="none"></path></g><g transform="translate(33.69999694824219 35.199981689453125) rotate(0 79.5 14)"><text x="79.5" y="21" font-family="Virgil, Segoe UI Emoji" font-size="20px" fill="#000000" text-anchor="middle" style="white-space: pre;" direction="ltr">父 beforeCreate</text></g><g stroke-linecap="round" transform="translate(300.6666768391927 10) rotate(0 103.19999694824216 39.199981689453125)"><path d="M0 0 C0 0, 0 0, 0 0 M0 0 C0 0, 0 0, 0 0 M0.27 6.4 C1.81 4.32, 3.03 4.13, 4.85 1.08 M-0.37 6.75 C1.25 4.35, 2.72 3.16, 4.87 0.03 M1.02 11.69 C4.11 10.54, 6.39 7.39, 9.14 -0.99 M-0.46 12.52 C2.29 9.14, 4.85 7.35, 10.05 0.22 M1.12 20.37 C4.96 12.26, 13.25 5.59, 15.98 1.94 M-0.24 18.2 C5.59 11.88, 10.57 6.29, 15.91 -0.44 M2.08 22.45 C7.89 17.21, 17 7.03, 19.8 0.29 M1.19 24.97 C8.35 14.6, 16.97 4.85, 20.64 -0.94 M1.63 32.43 C6.32 24.47, 10.32 17.37, 25.52 1.68 M-0.08 29.97 C5.4 23.48, 10.36 18.69, 26.75 0.31 M0.62 35.8 C4.87 29.21, 12.96 19.44, 30.07 -1.49 M0.04 36.25 C11.77 23.95, 21.92 11.45, 32.64 -0.03 M-0.09 42.62 C13.27 26.9, 27.66 8.79, 35.35 1.13 M-0.76 42.52 C8.27 33.46, 16.4 25.11, 36.86 1.12 M1.01 49.13 C7.32 36.43, 19.57 25.59, 44.17 -0.83 M0.51 48.66 C11.13 36.14, 21.86 24.11, 43.04 0.61 M1.31 55.9 C12.35 40.61, 25.07 23.92, 45.59 -1.03 M0.46 53.81 C10.27 42.51, 19.65 30.85, 48.34 0.34 M-0.54 61.15 C16.3 43.4, 30.82 22.22, 54.79 0.92 M-0.3 61.68 C19.8 38.95, 39.79 16.3, 52.41 0.59 M-1.42 66.94 C16.99 44.1, 39.05 25.07, 58.45 0.85 M-0.85 66.59 C19.54 45.86, 37.29 24.51, 57.78 -0.66 M-1.07 72.73 C14.79 58.82, 26.52 41.08, 62.65 -0.63 M-0.21 73.06 C16.73 54.54, 33.73 33.49, 62.84 -0.44 M-0.81 80.32 C18.65 58.82, 32.96 37.65, 70.2 -0.69 M0.97 78.62 C14.42 62.68, 27.56 47.38, 68.23 0.55 M5.68 77.65 C30.31 50.3, 54 23.67, 72.54 -0.96 M4.72 79.56 C19.97 62.71, 34.61 44.1, 73.84 -0.79 M9.2 78.02 C39.25 46.86, 66.21 16.73, 79.15 1.87 M11.61 78.13 C37.17 48.15, 63.17 17.14, 79.2 -0.6 M14.79 78.66 C40.57 49.89, 65.45 25, 85.33 1.41 M15.63 78.99 C42.55 48.14, 68.9 18.56, 84.43 -0.77 M20.38 80.08 C44.76 53.59, 68.02 25.64, 89.69 -1.03 M21.85 78.53 C46.09 50.36, 69.76 24.4, 90.68 0.37 M26.15 79.49 C48.29 52.33, 73.17 26.06, 93.93 0.89 M26.87 78.24 C43.83 60.41, 60.21 40.68, 95.07 -0.63 M34.4 80.15 C58.74 49.29, 80.07 23.54, 100.28 -0.02 M31.78 77.94 C60.12 48.1, 86.35 16.02, 101.13 0.96 M38.96 80.77 C51.67 64.21, 64.44 47.01, 107.32 0.82 M36.54 79.19 C63.33 47.22, 91.86 15.62, 105.71 -0.6 M44.99 76.84 C64.33 55.34, 85.53 30.4, 111.42 1.22 M42.97 78.51 C59.15 59.33, 75.2 41.92, 111.46 -0.28 M46.47 78.07 C59.97 62.78, 75.33 49.33, 117.89 2.25 M47.17 78.76 C68.28 55.6, 88.15 33.96, 117.09 -0.12 M53.95 77.68 C75.48 51.56, 101.23 23.29, 121.7 1.93 M54.45 78.41 C78.83 49.41, 106.09 19.32, 121.07 0.22 M60.02 77.88 C80.51 56.22, 100.92 31.09, 128.07 0.88 M57.78 78.88 C81.38 52.86, 104.63 25.4, 127.39 1.13 M63.12 79.14 C80.16 58.19, 99.93 37.36, 131.74 0.33 M64.73 77.85 C87.61 51.54, 110.6 26.56, 131.82 -0.96 M68.98 77.64 C83.94 61.67, 99.96 41.58, 138.35 -0.38 M69.87 78.54 C83.99 62.13, 98.06 46.14, 138.32 -0.22 M74.44 78.62 C94.79 59.67, 111.32 38.94, 144.26 1.52 M75.77 79.07 C90.49 61.99, 102.99 44.72, 144.04 -0.17 M80.83 77.74 C97.51 57.71, 119.3 34.44, 149.97 1.59 M79.38 79.74 C100.42 54.33, 121.42 31.7, 147.69 -0.29 M85.22 79.24 C99.74 62.68, 115.1 42.11, 152.01 1.57 M84.35 79.1 C108.67 52.58, 130.85 27.19, 154.53 -0.76 M89.05 77.5 C108.05 57.81, 128.43 35.79, 160.24 -1.2 M90.74 79.52 C111.33 54.48, 133.44 29.35, 158.77 0.87 M94.81 78.76 C115.72 54.75, 133.76 32.91, 165.81 -0.5 M94.71 78.74 C110.78 62.54, 125.04 45.21, 164.55 -1.02 M101.24 79.15 C126.07 48.87, 150.18 19.91, 170.5 0.23 M100.84 77.94 C117.94 59.78, 135.15 39.81, 170.32 -0.79 M104.69 78.16 C122.11 61.66, 134.63 45.02, 174.56 1.23 M106.55 79.07 C132.58 47.2, 160.03 15.21, 175.84 -0.24 M111.02 79.9 C132.79 56.57, 153.2 29.48, 178.17 -0.2 M111.04 78.11 C138.05 47.67, 163.8 17.21, 180.57 0.72 M117 78.6 C134.04 61.77, 149.38 43.47, 185.21 -0.35 M117.72 78.46 C142.21 48.74, 170.83 16.64, 186.61 -0.66 M122.1 79.88 C145.2 52.42, 169.19 28.01, 188.73 0.34 M123.17 78.16 C146.2 50.29, 168.86 24.1, 191.19 -0.58 M125.98 78.18 C152.5 48.97, 183.05 18.99, 194.76 -1.43 M127.54 79.3 C150.59 52.36, 173.8 27.16, 195.53 0.51 M132.25 78.14 C153.41 55.97, 170.08 36.71, 199.73 1.64 M133.52 79.25 C148.75 60.3, 164.92 41.03, 201.34 -0.64 M137.93 79.93 C152.65 60.37, 166.56 47.48, 205.65 1.5 M138.78 78.03 C163.58 51.74, 187.21 23.93, 207.08 -0.15 M145.28 76.68 C161.85 57.92, 178.36 40.26, 207.53 6.47 M142.88 77.57 C160.47 58.53, 175.68 41.23, 206.41 6.67 M147.19 79.83 C161.62 63.92, 178.77 45.24, 205.81 12.7 M147.71 79.1 C171.78 53.05, 194.1 27.17, 205.69 12.76 M155.08 80.46 C169.01 64.8, 181.05 47.11, 205.79 16.47 M154.47 78.36 C171.57 58.66, 189.24 38.79, 206.49 17.46 M160.2 78.77 C174.86 61.16, 188.53 47.72, 208.29 25.47 M160.04 79 C176.85 57.87, 195.45 36.38, 207.29 23.82 M165.6 77.35 C174.2 66.41, 186.27 55.08, 204.85 28.97 M163.99 77.85 C176.62 66.69, 187.95 52.41, 205.74 30.61 M171.44 78.62 C179.25 68.61, 188.22 60.39, 206.36 35.38 M170.96 78.26 C179.02 66.83, 189.23 55.81, 206.41 35.92 M174.87 78.17 C184.99 69.64, 195.62 58.64, 207.79 41.98 M175.62 79.36 C188.59 65.4, 200.31 50.38, 206.5 42.76 M179.44 78.15 C190.77 68.29, 199.27 59.53, 207.34 48.93 M181.12 79.43 C186.65 72.38, 192.25 65.66, 206.08 49.03 M186.94 76.65 C194.35 72.85, 200.51 63.51, 207.84 56.74 M186 79.18 C193.28 70.9, 198.39 63.89, 206.61 54.9 M190.81 77.08 C195.9 74.43, 202.1 68.35, 207.96 60.32 M190.66 79.09 C196.59 73.24, 202.51 66.66, 207.13 60.85 M195.49 78.44 C199.14 74.96, 205.73 69.46, 206.86 66.74 M195.72 79.37 C200.44 74.87, 204.4 70, 206.18 67.22 M201.28 79.21 C202.45 77.05, 204.21 76.2, 205.93 73.09 M201.61 78.43 C202.98 77.51, 203.9 76.14, 206.58 73.62" stroke="#fa5252" stroke-width="0.5" fill="none"></path><path d="M-0.16 -0.35 C75.03 -0.77, 150.68 -0.05, 205.71 -0.61 M0.77 -0.56 C48.3 -0.64, 95.51 -0.55, 205.76 -0.53 M204.45 -1.03 C207.64 19.66, 207.83 35.68, 205.26 80.09 M205.66 0.14 C205.92 29.57, 206.86 60.45, 205.6 77.58 M207.98 80.04 C149.33 79.04, 92.91 77.86, 0.83 78.11 M206.69 79.24 C134.21 80.47, 62.04 80.65, -0.29 79.26 M0.66 79.47 C0.35 51.29, -1.43 22.87, 1.13 1.11 M-0.36 79.37 C-0.21 48.17, -0.69 17.04, -0.42 -0.42" stroke="#000000" stroke-width="1" fill="none"></path></g><g transform="translate(350.8666737874348 35.199981689453125) rotate(0 53 14)"><text x="53" y="21" font-family="Virgil, Segoe UI Emoji" font-size="20px" fill="#000000" text-anchor="middle" style="white-space: pre;" direction="ltr">父 created</text></g><g stroke-linecap="round" transform="translate(591.3333536783853 10) rotate(0 103.19999694824219 39.199981689453125)"><path d="M0 0 C0 0, 0 0, 0 0 M0 0 C0 0, 0 0, 0 0 M0.48 5.79 C1.91 4.24, 1.98 3.18, 5.67 -0.36 M-0.33 6.34 C1.75 4.27, 3.93 1.54, 5.37 0.5 M1.44 12.1 C3.38 8.8, 5.05 5.91, 9.22 0.97 M0.07 11.52 C3.31 7.4, 6.81 3.68, 11.33 0.54 M-0.67 16.72 C3.66 15, 7.13 8.49, 16.52 0.61 M-0.53 18.9 C2.78 14.28, 7.66 9.73, 15.94 0.26 M0.65 23.32 C5.59 20.2, 8.47 13.85, 20.2 -0.88 M-0.58 24.65 C6.73 17.45, 12.99 8.74, 20.92 0.78 M-1.43 30.93 C8.28 20.43, 15.68 15.39, 27.25 1.17 M0.25 30.43 C10.89 18.22, 20.69 7.17, 26.69 0.65 M0.31 38.31 C8.99 22.4, 22.68 10.4, 30.46 1.8 M-1.03 36.37 C7.51 27.47, 16.18 17.4, 32.62 -0.93 M0.91 40.84 C7.99 31.2, 21.51 18.53, 38.19 -0.68 M0.57 42.87 C8.69 34.13, 17.53 24.38, 37.24 -0.27 M0.62 47.42 C11.11 36.28, 21.45 24.06, 42.95 -0.09 M-0.58 48.56 C12 35.8, 23.51 21.96, 42.88 0.43 M0.88 53.82 C19.68 33.42, 35.63 11.51, 47.59 -1.75 M1.11 54.7 C18.55 33.98, 35.27 14.47, 47.66 0.85 M-1.57 59.32 C10.7 45.99, 25.04 34.68, 53.88 -1.86 M0.57 60.93 C13.88 46.36, 26.66 31.28, 54.06 0.18 M1.29 68.08 C18.67 47.31, 31.63 29.1, 56.65 1.17 M-0.08 67.64 C15.65 49.03, 32 31.86, 59.04 0.84 M-1.82 74.01 C23.94 47.32, 48.53 20.45, 64.41 -0.73 M-0.12 73.93 C19.17 50.13, 39.97 27.88, 64.52 0.12 M0.54 76.88 C23.67 54.92, 45.62 27.83, 69.5 -0.61 M-0.3 78.83 C15.91 60.05, 31.71 44.14, 69.51 -0.04 M4.5 77.47 C29.4 51.63, 55.82 20.84, 72.65 0.1 M5.11 79.42 C26.32 53.81, 47.16 31.44, 74.65 0.52 M12.48 79.97 C36.56 48.89, 64.23 19.46, 81.19 0.25 M11.77 78.37 C37.21 47.58, 63.01 18.37, 80.25 -0.03 M15.7 77.82 C36.4 54.51, 59.52 29.98, 85.62 -0.46 M15.8 78.78 C31.31 61.32, 47.32 41.68, 84.88 0.11 M21.57 80.32 C36.31 59.5, 53.59 43.53, 89.74 -0.81 M21.07 77.92 C43.8 50.51, 67.03 25.09, 89.44 0.09 M27.79 77.28 C49.11 53.82, 69.48 29.26, 95.29 -1.47 M27.27 78.9 C45.15 58.56, 60.28 40.73, 95.68 0.1 M31.02 79.62 C53.76 52.29, 78.91 24.83, 100.08 -0.32 M32.45 78.33 C55.66 53.2, 77.07 25.58, 100.3 1.02 M36.96 80.05 C57.2 60.6, 71.5 37.06, 106.58 0.09 M37.12 78.08 C52.3 61.64, 67.28 45.79, 105.52 0.15 M45 77.64 C61.93 57.95, 80.36 33.73, 112.09 1.26 M42.77 78.89 C61.36 56.81, 79.93 36.64, 111.11 0.9 M46.34 78.46 C64.67 57.97, 81.62 37.94, 116.67 2.04 M47.98 78.12 C74.8 47.46, 101.74 16.69, 116.29 1.18 M52.6 80.2 C79.59 52.05, 101.85 24.23, 120.59 -0.46 M52.93 79.37 C70.93 58.42, 87.73 38.63, 121.13 -0.63 M57.99 76.83 C72.69 61.53, 89.93 41.94, 125.67 2.01 M59.52 78.26 C84.56 50.05, 107.82 22.21, 127.84 0.27 M63.86 79.19 C86.94 53.18, 108.84 26.42, 131.32 -1.81 M63.86 78.01 C84.47 56.13, 105.22 31.95, 132.69 -0.49 M68.91 79.61 C86.77 58.06, 106.32 36.88, 136.63 1.96 M68.42 79.22 C87.17 57.73, 103.21 37.98, 138.1 1.27 M73.74 76.56 C96.27 52.18, 117.51 28.82, 144.99 0.94 M74.51 77.5 C90.72 60.62, 104.3 44.59, 143.15 -0.1 M79.04 79.26 C101.34 53.72, 122.27 27.19, 146.22 1.15 M80.41 79.19 C102.79 51.32, 127.37 25.42, 147.69 -0.28 M85.51 81.07 C102.51 56.1, 122.32 33.51, 153.21 -0.41 M85.23 79.77 C104.66 55.24, 124.83 32.89, 152.88 0.57 M91.27 80.34 C109.99 57.14, 126.71 37.55, 160.03 0.91 M90.25 77.83 C108.63 58.38, 125.2 38.98, 159.25 -0.37 M97.31 77.31 C118.05 52.87, 139.63 26.03, 162.56 -2.01 M96.33 78.97 C113.82 58.9, 129.88 39.91, 165.29 -0.98 M99.41 79.45 C117.49 57, 135.55 38.74, 168.6 0.62 M101.73 78.26 C125.67 50.02, 151.4 21.01, 169.47 -0.5 M106.28 78.14 C123.24 58.33, 143.98 36.61, 174.53 0.06 M106.23 79.95 C124.01 59.52, 140.91 38.83, 174.84 0.21 M112.21 77.25 C136.68 49.82, 162.99 19.13, 179.4 1.73 M111.67 79.09 C137.53 48.76, 165.67 17.56, 181.05 0.28 M115.15 77.78 C141.7 47.82, 165.59 21.36, 185.57 -2.22 M116.01 79.29 C139.95 51.63, 162.65 26.78, 184.98 0.59 M121.36 78.48 C135.35 62.97, 151.5 46.8, 188.84 -0.24 M121.91 78.37 C147.91 46.66, 176.51 15.97, 190.74 -0.6 M127.56 80.49 C146.76 57.48, 162.42 38.4, 195.06 -0.8 M126.78 78.05 C150.85 51.12, 174.75 25.36, 196.24 0.06 M133.49 79.94 C146.35 59.79, 162.98 41.07, 202.26 0.28 M133.33 77.64 C160.45 48.22, 185.72 17.2, 201.29 0.73 M136.11 80.6 C155.48 61.16, 170.4 42.07, 204.65 1.17 M137.68 79.74 C164.08 48.43, 190.77 18.45, 205.49 0.76 M142.17 78.48 C157.19 63.56, 168.58 46.99, 204.71 4.97 M143.86 77.89 C165.77 52.93, 187.66 28.46, 206.28 6.69 M150.34 78.48 C169.51 57.09, 188.54 36.1, 206.41 14.44 M147.91 78.34 C161.36 62.88, 175.68 47.65, 206.11 12.1 M155.89 79.01 C169.83 61.59, 183.57 47.8, 207.39 19.52 M154.43 77.61 C172.86 57.67, 191.65 35.95, 206.54 18.11 M160.73 80.6 C172.36 65.16, 180.11 53.25, 206.37 23.91 M158.66 78.31 C172.52 61.69, 186.86 47.06, 207.56 25.07 M166.1 78.53 C177.65 61.31, 192.09 43.29, 207.07 30.42 M165.01 78.72 C175.7 64.41, 187.85 51.17, 205.51 30.99 M170.68 79.46 C183.9 63.18, 198.03 49.63, 207.67 37.87 M169.17 78.57 C178.2 69.89, 185.49 62.84, 206.45 37.45 M175.18 78.06 C189.35 63.51, 201.69 50.21, 206.15 41.98 M174.62 78.64 C184.82 67.05, 195.46 56.65, 207.42 43.59 M180.53 77.64 C188.61 72.76, 192.81 62.28, 208.36 48.69 M180.73 78.52 C187.93 71.03, 194.23 62.29, 206.45 48.49 M184.44 78.73 C193.36 68.12, 199.52 60.28, 206.02 54.85 M185.3 78.25 C190.79 72.41, 194.42 67.98, 206.53 54.91 M191.57 79.78 C195.02 74.37, 199.2 69.8, 204.79 61.54 M190.63 78.02 C195.44 75.65, 197.55 71.31, 205.6 61.68 M197.22 78.59 C198.91 76.13, 203.95 71.05, 205.85 66.99 M195.6 78.73 C198.65 75.7, 202.32 73.05, 205.99 67.54 M201.91 79.38 C202.47 77.85, 203.76 75.65, 206.37 74.13 M201.98 78.97 C203.45 77.2, 204.3 75.86, 206.62 73.54" stroke="#fa5252" stroke-width="0.5" fill="none"></path><path d="M0.36 -0.85 C77.12 1.06, 152.12 0.49, 205.51 0.68 M0.5 0.89 C61.12 0.1, 123.3 -0.18, 206.04 -0.04 M207.85 -1.03 C204.58 28.21, 207.52 58.91, 205.83 79.76 M206.95 -0.41 C205.74 24.62, 205.78 48.22, 205.92 77.85 M207.18 78.11 C132.8 76.09, 60.91 78.05, 1.08 77.98 M205.91 77.86 C125.25 76.48, 45.67 76.59, -0.83 78.36 M1.09 80.17 C0.17 56.9, -1.66 35.84, -0.97 -0.46 M0.35 78.99 C-0.36 49.43, 0.42 20.15, 0.35 -0.84" stroke="#000000" stroke-width="1" fill="none"></path></g><g transform="translate(619.5333506266275 35.199981689453125) rotate(0 75 14)"><text x="75" y="21" font-family="Virgil, Segoe UI Emoji" font-size="20px" fill="#000000" text-anchor="middle" style="white-space: pre;" direction="ltr">父 beforeMount</text></g><g stroke-linecap="round" transform="translate(882.0000305175781 10) rotate(0 103.19999694824219 39.199981689453125)"><path d="M0 0 C0 0, 0 0, 0 0 M0 0 C0 0, 0 0, 0 0 M-0.14 6.85 C0.48 4.55, 2.28 2.93, 4.35 0.38 M-0.53 6.49 C1.34 4.12, 2.76 2.38, 4.71 0.34 M-0.09 12.25 C2.33 9.72, 7.54 6.01, 10.17 1.4 M0.83 11.53 C2.01 9.99, 5.5 6.05, 10.62 -0.28 M-0.51 17.76 C2.77 12.55, 5.14 11.03, 15.39 -0.75 M-0.56 18.89 C4.31 13.45, 7.96 9.77, 14.82 1.08 M0.41 25.34 C8.08 15.25, 16.43 6.69, 19.74 1.38 M0.75 23.23 C5.03 17.89, 10.75 13, 21.98 -0.47 M-0.78 30.13 C7.99 21.85, 14.84 12.51, 25.02 1.89 M-0.3 30.88 C5.55 23.33, 13.48 14.3, 25.37 -0.51 M-0.28 38.22 C9.64 21.8, 22.05 9.51, 31.31 0.39 M-0.69 36.99 C11.67 21.79, 25.15 7.74, 31.02 0.55 M-1.76 43.55 C10.17 30.4, 20.91 17.63, 35.03 -0.99 M0.27 43.36 C7.88 34.22, 14.49 25.19, 37.76 1.16 M1.1 48.85 C11.5 38.56, 20.3 23.56, 41.49 -1.01 M0.21 48.39 C11.77 36.33, 22.56 21.68, 41.82 0.28 M0.53 54.95 C10.38 45.07, 20.66 31.84, 47.1 1.34 M-0.37 55.51 C16.87 34.21, 34.45 15.75, 46.86 1.13 M0.84 61.47 C20.52 37.87, 37.16 18.71, 51.94 -0.57 M0 60.87 C12.31 48.49, 23.27 35.86, 52.52 0.79 M-1.65 68.12 C21.02 42.52, 44.03 14.04, 57.88 -0.33 M-0.4 67.76 C15.27 49.16, 29.36 32.39, 58.53 -0.04 M-1.19 71.62 C20.14 50.04, 38.06 28.04, 65.25 -1.94 M0.94 72.58 C17.49 54.14, 35.34 34.07, 63.24 0.59 M-0.51 77.85 C19.49 54.94, 36.12 35.78, 66.92 0.87 M0.68 78 C18.01 57.48, 35.72 36.23, 69.68 -0.37 M7.08 80.87 C31.3 45.62, 60.57 13.88, 72.96 1.24 M5.57 79.13 C25.75 55.76, 46.9 31.43, 74.16 0.66 M11.29 77.47 C25.01 61.21, 40.75 43.35, 80.73 -0.16 M11.95 79.03 C24.94 61.4, 38.84 44.61, 80.28 -0.37 M15.4 80.89 C37.86 56.56, 59.69 30.85, 83.53 1.44 M16.21 79.6 C31.99 59.02, 48.96 40.75, 85.51 0.47 M23.62 79.51 C41.81 57.53, 59.29 33.2, 88.74 -0.42 M22.14 79.24 C45.68 49.72, 69.94 24.35, 89.28 0.87 M27.21 77.45 C44.84 57.34, 68.01 33.22, 94.39 1.16 M26.96 78.59 C41.07 61.9, 56.08 43.64, 95.51 -0.08 M33.14 79.23 C45.55 61.92, 62.52 45.28, 99.34 -0.88 M31.89 78.18 C46.7 61.83, 60.14 45.94, 100.7 -0.21 M38.15 78.35 C56.41 57.74, 74.38 37.85, 107.87 0.98 M38.2 78.15 C56.42 55.1, 77.28 31.28, 106.45 -0.58 M41.44 77.95 C63.19 58.19, 80.82 35.82, 111.84 1.57 M43.83 77.88 C64.99 51.45, 87.52 26.99, 111.57 0.25 M46.76 79.43 C67.94 59.79, 86.64 35.94, 114.61 0.3 M47.35 79.76 C67.41 55.59, 86.95 32.42, 115.96 0.58 M55.06 79.06 C81.6 46.88, 106.24 15.1, 120.49 -1.9 M54.63 78.8 C77.01 52.28, 99.58 24.96, 121.96 -0.41 M58.57 80.62 C74.4 61.69, 89.24 43.85, 128.13 2.3 M58.84 78.4 C81.13 51.9, 106.58 24.25, 127.69 1.22 M65.47 80.01 C81.93 55.87, 102.86 34.02, 134.49 -0.05 M65.02 77.92 C83.22 56.07, 103.32 33.21, 132.97 0.63 M70.01 77.9 C95.92 46.75, 124.82 17.93, 136.95 -1.5 M70.16 78.51 C95.07 49.21, 121.15 20.22, 137.36 -0.1 M73.09 80.31 C91.07 57.87, 110.46 35.16, 141.96 -1.6 M75.74 78.65 C92.65 57.43, 112.5 35.35, 142.73 -0.34 M80.45 79.31 C100.56 56.54, 119.73 33.14, 147.15 1.73 M79.81 77.99 C94.57 60.87, 111.08 44.89, 147.36 0.87 M86.59 78.3 C101.72 59.87, 114.88 44.17, 153.96 0.82 M84.89 79.65 C101.16 59.31, 118.43 40.12, 154.42 0.42 M92.21 76.96 C104.61 64.4, 117.37 47.2, 157.77 -1.12 M91.32 78.23 C109.87 56.73, 130 33.41, 158.11 0.88 M93.59 80.1 C119.36 52.64, 145.05 25.13, 164.51 -1.39 M94.59 79.75 C109.51 63.86, 123.01 47.37, 164.21 0.14 M102.55 79.02 C116.21 57.75, 133.54 41.35, 168.79 -1.12 M101.27 78.06 C123.78 54.8, 144.53 29.34, 170.09 1.13 M104.63 80.17 C127.55 56.04, 148.28 32, 174.54 -0.73 M107.03 78.55 C132.21 47.79, 158.43 18.38, 175.33 -0.5 M111.66 77.72 C131.5 56.93, 152.61 35.19, 181.11 0.77 M111.25 77.81 C138.94 48.63, 165.83 17.56, 179.77 -0.7 M115.89 78.27 C133.2 57.55, 151.7 36.69, 183.92 -1.66 M117.06 79.35 C137.78 56.78, 155.8 34.25, 186.05 0.66 M122.66 77.36 C140.96 56.65, 159.51 36.45, 192.58 1.6 M121.9 79.25 C146.16 51.15, 170.89 23.19, 191.69 -0.48 M128.46 80.22 C150.23 54.98, 168.77 31.11, 195.48 -0.58 M127.59 79.9 C144.1 61.85, 158.97 43.34, 195.64 -0.75 M133.62 78.29 C149.51 59.78, 169.46 39.1, 201.98 0.53 M132.88 77.64 C161.62 46.86, 188.8 14.71, 200.38 0.41 M136.37 77.91 C155.41 59.27, 169.21 41.99, 206.31 -1.07 M137.54 78.46 C151.58 60.66, 166.81 45.72, 205.78 1.12 M145.54 76.92 C157.75 64.57, 168.88 47.13, 207.78 4.78 M142.88 77.69 C158.85 61.5, 174.77 43.87, 207.2 7.09 M150.6 77.3 C167.8 58.05, 182.91 38.11, 207.92 11.18 M147.87 79.71 C163.82 61.8, 177.32 44.45, 206.62 13.4 M154.36 77.75 C166.97 68.07, 177.75 52.25, 206.66 17.63 M153.64 77.6 C173.8 55.91, 193.65 32.77, 206.76 19.09 M159.05 78.39 C175.9 60.4, 190.24 40.97, 205.77 24.64 M159.57 78.84 C171.15 65.14, 183.09 52.73, 206.39 24.8 M166.97 77.31 C178.38 62.38, 194.42 43.25, 204.78 31.11 M165.89 79.02 C174.06 67.37, 183.21 57.93, 206.29 31.17 M170.58 79.26 C179.11 68.23, 186.09 59.86, 206.43 35.16 M169.67 79.49 C180.55 66.17, 192.31 54.59, 206.5 36.82 M177.16 80.22 C184.93 70.1, 190.74 61.37, 206.01 43.1 M175.44 79.08 C186.23 66.39, 195.73 54.79, 205.78 42.29 M178.95 80.05 C190.02 69.71, 198.18 56.04, 207.4 46.67 M181.22 79.77 C189.71 67.28, 199.68 56.58, 207.4 48.43 M185.71 79.13 C192.41 69.73, 201.45 63.6, 205.16 55.8 M187.1 78.37 C191.37 72.54, 196.7 66.1, 207.29 54.16 M190.91 78.96 C194.26 76.58, 198.29 71.95, 204.48 59.89 M191.3 78.25 C196.63 73.09, 199.86 68.08, 205.9 60.83 M195.76 79.46 C201.32 75.15, 204.8 70.24, 206.64 68.4 M196.1 79.6 C198.7 76, 200.82 73.86, 207.39 66.37 M201.94 79.27 C203.16 77.78, 204.23 76, 206.41 73.43 M201.57 78.48 C203.38 77.04, 205.07 74.75, 206.23 73.79 M-0.33 78.11 C-0.33 78.11, -0.33 78.11, -0.33 78.11 M-0.33 78.11 C-0.33 78.11, -0.33 78.11, -0.33 78.11 M6.32 78.19 C4.73 77.27, 2 75.43, 0.06 72.51 M5.7 78.3 C4.72 77.18, 3.09 76.02, -0.18 73.05 M11.55 79.7 C9.85 76.86, 5.98 73.76, -0.45 67.92 M12.71 78.07 C8.16 73.96, 2.67 70.59, 0.09 67.25 M16.51 76.9 C14.93 75.1, 5.8 67.7, -0.06 60.8 M19.05 77.35 C13.38 73.42, 6.64 67.92, 0.45 63.31 M25.02 78.68 C18.08 72.22, 7.87 64.22, 0.4 57.3 M25.09 79.43 C17.95 74.05, 13.88 69.08, 0.07 56.99 M30.14 79.44 C22.39 70.4, 18.92 68, -0.32 51.52 M30.14 77.74 C19.83 69.37, 9.56 60.02, -0.15 52.17 M36.82 77.77 C25.47 70.39, 15.9 61.62, 1.85 48.85 M37.09 79.13 C25.65 68.89, 16.97 60.99, 1.25 46.68 M43.78 78.69 C28.34 64.56, 12.78 52.61, -1.57 40.05 M42.41 78.92 C32.05 70.59, 21.82 60.57, 0.37 41.29 M49.19 78.2 C33.5 66.57, 21.68 52.4, 1.73 37.14 M47.78 78.49 C34.71 64.12, 19.41 52.05, -0.65 36.69 M56.27 79.91 C35.87 60.7, 12.99 40.76, -1.74 30.75 M55.62 78.97 C38.22 65.53, 24.26 51.19, -0.35 29.91 M59.42 77.07 C44.32 62.04, 28.41 51.31, 2.08 26.04 M61.18 78.36 C42.32 62.09, 23.99 45.91, -0.68 25.26 M65.62 76.4 C43.57 58.47, 19.44 35.89, 0.18 20.03 M67.83 78.42 C53.33 67.05, 39.42 53.9, 0.39 20.77 M72.53 80.2 C45.2 54.67, 22.06 32.91, 1.87 13.5 M73.13 77.77 C50.44 58.58, 26.94 39.43, 0.11 15.1 M78.08 78.87 C63.31 65.97, 46.01 49.77, 0.13 8.38 M78.37 77.58 C46.38 51.7, 16.18 23.78, 0.31 10.04 M86.2 79.53 C55.82 55.3, 26.16 30.4, 1.01 3.55 M86.21 79.2 C67.24 63.11, 49.35 47.58, 0.71 3.38 M92.8 80.06 C58.29 53.46, 29.88 25.73, 1.74 0.99 M90.62 77.26 C63.14 53.38, 33.46 29.68, 0.94 0.04 M99.3 76.99 C67.46 50.85, 32.43 20.9, 7.14 0.16 M98.3 78.6 C63.94 47.39, 28.74 18.56, 6.93 -0.37 M102.63 79.47 C75.72 55.05, 48.8 29.78, 13.39 -0.34 M104.71 79.38 C83.07 61.2, 62.27 43.63, 12.61 -0.92 M108.92 77.94 C76.92 48.79, 43.4 21.96, 20.53 -1.84 M109.58 78.72 C76.96 50.84, 45.91 25.09, 18.32 -1.32 M115.1 76.67 C86.12 53.78, 58.03 27.47, 24.52 -0.79 M116.57 78.37 C90.61 54.99, 64.59 34.3, 24.83 -0.08 M123.04 79.81 C94.43 52.04, 63.92 27.56, 30.63 -0.86 M121.24 77.79 C84.09 46.7, 49.33 14.72, 30.68 -1.51 M128.92 79.27 C99.11 52.12, 66.78 26.75, 35.56 1.04 M128.42 79.08 C106.58 58.48, 84.1 38.8, 38.21 -0.72 M133.36 76.73 C99.59 47.67, 65.27 15.12, 41.08 -0.61 M134.25 78.13 C102.24 51.39, 69.48 21.61, 43.13 0.12 M139.02 76.27 C105.88 49.19, 69.88 17.66, 47.64 0.63 M139.74 78.19 C108.24 48.54, 74.86 20.72, 50.11 -0.62 M148.26 76.93 C115.16 50.4, 84.73 23.79, 56.49 -2.79 M146.36 77.61 C126.93 62.25, 108.1 45.08, 54.81 -0.91 M153.24 78.76 C131.02 62.01, 109.23 42.16, 63.08 -0.52 M152.05 78.85 C125.38 54.65, 99.24 31.36, 61.21 -0.13 M157.3 78.67 C127.05 49.73, 91.59 21.11, 67.15 -2.34 M158.61 77.49 C135.46 58.73, 111.26 37.38, 67.66 0.03 M165.11 80.52 C138.24 55.18, 111.7 32, 74.38 -1.49 M165.67 79.31 C131.3 50.75, 99.05 22.16, 74.44 -0.78 M172.24 79.63 C150.16 64.05, 133.59 44.43, 78.02 -2.13 M170.33 77.89 C135.24 46.91, 99.35 16.2, 79.37 0.1 M178.85 79.45 C143.35 48.24, 113.99 23.31, 84.98 -1.28 M176.67 78.34 C148.19 52.08, 118.88 27.11, 85.79 -0.61 M183.76 77.53 C158.04 58.45, 137.3 36.96, 93.26 -0.98 M181.86 78.36 C162.12 61.77, 143.47 45.36, 91.94 -1.14 M189.88 77.46 C166.9 60.65, 145.92 41.75, 98.02 -2.21 M189.42 79.16 C170.12 60.66, 151.26 46, 99 0.41 M194.26 78.83 C168.01 52.27, 140.62 28.73, 105.22 -0.33 M195.34 78.59 C168.55 55.01, 142.21 31.51, 104.65 -0.28 M201.78 77.88 C171.48 55.03, 143.1 29.96, 109.29 -0.48 M201.57 78.77 C176.19 57.04, 151.98 34.4, 110.62 -0.13 M206.02 79.41 C176.59 51.81, 149.14 27.54, 115.18 0.47 M206.92 77.11 C176.61 52.5, 144.87 24.43, 116.79 -1.48 M205.06 72.86 C187.11 55.94, 164 35.36, 123.81 -2.26 M206.76 73.41 C187.55 56.65, 170.01 41.04, 122.47 -1.23 M204.74 68.67 C182.56 46.05, 162.8 27.63, 130.12 0.76 M206.22 67.36 C190.31 52.42, 175.73 38.71, 128.46 0.27 M205.19 61.82 C179.29 34.98, 149.77 11.88, 132.77 -2.32 M206.69 63.05 C191.17 47.4, 175.04 33.53, 134.63 -1.09 M208.19 58.42 C192.62 45.32, 178.43 30.81, 139.7 0.01 M207.06 56.64 C187.55 38.75, 168.15 22.82, 141.51 0.44 M206.61 51.55 C195.35 41.14, 181.75 28.19, 146.29 0.63 M207.14 51.34 C191.93 39.28, 175.48 24.61, 146.26 -0.42 M205.74 46.71 C190.58 33.38, 176.79 20, 152.75 -2.31 M206.92 45.83 C186.96 29.32, 167.85 12.95, 152.09 -1.04 M208.67 41.62 C194.89 29.3, 178.66 14.06, 158.2 0.61 M205.9 41.19 C188.7 25.17, 170.54 8.71, 160.25 0.19 M205.7 35.65 C194.28 27.86, 184.17 16.22, 166.32 -1.31 M206.36 35.33 C194.46 24.7, 182.42 15.06, 165.63 -0.44 M207.66 29.66 C195.25 21.85, 186.2 12.28, 170.99 -2.28 M206.75 29.95 C195.77 20.81, 186.05 12.45, 172.31 -0.35 M207.33 23.4 C195.99 15.03, 181.62 4.26, 178.37 -2.03 M206.93 24.97 C195.47 16.15, 186.71 7.57, 177.6 -1.55 M208.8 19.37 C198.84 11.43, 190 2.22, 184.35 -1.9 M207.54 19.45 C197.89 13.36, 190.03 5.48, 183.4 0.3 M204.82 12.2 C202.86 10.58, 199.2 5.85, 188.58 1.18 M207.25 14.07 C201.87 10.05, 196.98 4.32, 190.23 -1.04 M206.38 8.65 C203.05 7.24, 201.91 2.62, 195.99 -0.73 M206.29 9.76 C203.39 5.25, 199.75 3.03, 194.96 -0.73 M207.46 4.39 C205.69 3.13, 204.26 1.38, 202.36 -1.01 M207.33 4.06 C205.41 2.47, 203.68 1.63, 201.75 -0.72" stroke="#82c91e" stroke-width="0.5" fill="none"></path><path d="M-0.93 -1.29 C58.43 2.9, 116.05 -0.22, 206.78 0.06 M0.4 0.76 C58.27 -1.27, 117.23 -1.57, 205.97 0.07 M205.37 1.98 C207.42 17.23, 207.29 37.54, 206.62 77.8 M205.4 0.4 C206.43 21.99, 206.91 43.07, 205.88 78.69 M206.21 76.77 C143.12 79.99, 80.95 78.46, 0.69 76.75 M206.82 78.18 C150.5 78.85, 95.26 79.68, -0.54 77.82 M-0.87 78.68 C-1.21 58.81, 1.23 38.78, -1.16 -1.6 M0.6 77.88 C-0.46 52.98, 0.35 28.64, 0.65 0.69" stroke="#000000" stroke-width="1" fill="none"></path></g><g transform="translate(905.7000274658203 35.199981689453125) rotate(0 79.5 14)"><text x="79.5" y="21" font-family="Virgil, Segoe UI Emoji" font-size="20px" fill="#000000" text-anchor="middle" style="white-space: pre;" direction="ltr">子 beforeCreate</text></g><g stroke-linecap="round"><g transform="translate(215.00003051757812 45.19993591308594) rotate(0 41.701978182750736 0.1851312495768127)"><path d="M-1.18 0.86 C12.61 0.77, 68.1 -0.38, 82.33 -0.49 M0.39 0.27 C14.6 0.34, 70.66 0.57, 84.59 0.78" stroke="#000000" stroke-width="1" fill="none"></path></g><g transform="translate(215.00003051757812 45.19993591308594) rotate(0 41.701978182750736 0.1851312495768127)"><path d="M57.75 9.35 C63.01 10.09, 71.65 6.37, 83.46 -0.29 M55.58 9.81 C64.87 6.68, 73.25 3.33, 83.96 0.94" stroke="#000000" stroke-width="1" fill="none"></path></g><g transform="translate(215.00003051757812 45.19993591308594) rotate(0 41.701978182750736 0.1851312495768127)"><path d="M57.93 -11.18 C63.15 -4.97, 71.74 -3.22, 83.46 -0.29 M55.76 -10.71 C65.03 -7.39, 73.35 -4.29, 83.96 0.94" stroke="#000000" stroke-width="1" fill="none"></path></g></g><g stroke-linecap="round"><g transform="translate(511.00006103515625 46.7999267578125) rotate(0 37.41271452961024 0.01680322631243314)"><path d="M0.19 -1.02 C12.79 -1.11, 63.26 -0.68, 76 -0.26 M-1.17 1.06 C11.23 1.06, 62.16 0.97, 75.05 0.72" stroke="#000000" stroke-width="1" fill="none"></path></g><g transform="translate(511.00006103515625 46.7999267578125) rotate(0 37.41271452961024 0.01680322631243314)"><path d="M45.26 11.24 C54.52 8.75, 66.87 5.01, 74.72 1.45 M47.05 10.41 C54.57 8.73, 60.86 6.44, 75.91 1.47" stroke="#000000" stroke-width="1" fill="none"></path></g><g transform="translate(511.00006103515625 46.7999267578125) rotate(0 37.41271452961024 0.01680322631243314)"><path d="M45.07 -9.28 C54.45 -4.94, 66.86 -1.85, 74.72 1.45 M46.86 -10.11 C54.28 -6.42, 60.62 -3.34, 75.91 1.47" stroke="#000000" stroke-width="1" fill="none"></path></g></g><g stroke-linecap="round"><g transform="translate(801.400146484375 49.99992370605469) rotate(0 39.18282400350546 0.630531068407123)"><path d="M0.29 0.91 C13.57 0.75, 66.27 -0.06, 79.39 0.03 M-1.02 0.35 C12.22 0.25, 65.7 1.36, 78.96 1.23" stroke="#000000" stroke-width="1" fill="none"></path></g><g transform="translate(801.400146484375 49.99992370605469) rotate(0 39.18282400350546 0.630531068407123)"><path d="M52.22 12.93 C57.2 9.44, 67.29 7.11, 77.83 1.85 M50.76 12.1 C59.19 8.71, 69.47 4.3, 78.51 0.79" stroke="#000000" stroke-width="1" fill="none"></path></g><g transform="translate(801.400146484375 49.99992370605469) rotate(0 39.18282400350546 0.630531068407123)"><path d="M52.37 -7.59 C57.48 -5.5, 67.53 -2.25, 77.83 1.85 M50.91 -8.42 C59.41 -5.2, 69.64 -2.99, 78.51 0.79" stroke="#000000" stroke-width="1" fill="none"></path></g></g><g stroke-linecap="round" transform="translate(882.0000305175781 175.60000610351562) rotate(0 103.19999694824219 39.199981689453125)"><path d="M0 0 C0 0, 0 0, 0 0 M0 0 C0 0, 0 0, 0 0 M0.28 7.07 C1.34 4.72, 3.29 1.51, 5.68 0.42 M-0.39 6.38 C1.8 4, 3.21 2.02, 4.91 0.6 M-0.65 13.36 C2.55 7.84, 9.15 2.29, 11.54 -0.85 M0.11 12.64 C2.18 9.42, 5.54 6.96, 10.63 -0.58 M1.8 16.47 C6.53 11.76, 13.11 6.83, 17.6 0.4 M0.01 17.48 C4.47 13.82, 8.56 8.98, 16.26 0.09 M0.86 25.44 C7.66 14.72, 12.33 7.72, 21.76 -0.71 M0.17 24.15 C4.51 18.98, 10.79 12.62, 21.22 0.59 M1.85 28.93 C11.44 19.17, 21.85 7.54, 27.01 -0.24 M0.42 31.32 C6.41 21.64, 13.71 13.01, 27.08 0.55 M-0.91 36.71 C7.51 26.75, 17.67 18.32, 33.25 0.95 M-0.23 36.3 C9.16 25.28, 21.37 13.22, 32.34 -0.39 M0.42 41.6 C7.41 32.82, 14.74 24.83, 34.89 -1.52 M0.01 42.77 C8.92 33.92, 17.11 22.76, 36.95 0.61 M-0.15 49.12 C15.41 30.55, 31.46 12.47, 40.72 1.75 M-0.46 48.36 C16.14 29.75, 31.89 11.68, 43.18 0.86 M0.74 55.58 C12.79 43.58, 22.72 28.51, 47.26 -0.63 M-0.43 54.71 C14.97 39.85, 28.2 23.34, 48.06 -0.46 M1.24 61.49 C13.32 44.38, 28.9 31.31, 54.69 0.49 M0.62 60.75 C15.54 42.4, 33.61 22.67, 52.38 -1.1 M1.45 65.66 C18.59 47.28, 37.08 23.87, 56.19 0.19 M0.75 66.82 C12.9 51.47, 25.58 37.13, 59.05 -0.34 M0.1 74.82 C22.54 47.49, 48.21 19, 61.8 0.88 M-0.71 72.17 C14.58 55.48, 30.51 38.83, 64.08 0.3 M-0.13 80.54 C26.09 49.08, 53.85 15.52, 67.82 1.63 M1.25 77.81 C17.64 60.45, 33.27 40.66, 69.03 0.34 M4.56 79.02 C32.37 50.01, 61.71 19.1, 72.69 -0.42 M5.52 78.29 C22.91 57.04, 42.73 35.5, 73.88 -0.32 M11.95 78.33 C37.33 48.14, 64.82 15.54, 78.35 -0.68 M10.83 78.85 C32.39 54.93, 52.58 31.42, 79.57 -0.06 M15.57 80.96 C36.76 50.53, 62.36 24.93, 86.11 -1.8 M16.53 79.89 C38.63 54.7, 58.48 30.62, 84.84 -0.3 M23.33 79.19 C44.86 54.15, 65.5 27.66, 90.04 -0.19 M22.33 78.29 C38.13 60.37, 53.03 43.38, 90.73 -0.11 M26.9 80.49 C51.18 54.5, 72.49 26.73, 96.84 -0.74 M26.73 78.77 C48.23 54.8, 68.34 29.85, 95.48 -0.97 M33.56 76.9 C49 60.68, 65.13 41.53, 99.22 0.62 M31.92 79.17 C46.59 61.55, 59.14 45.76, 101.02 0.62 M35.61 78.38 C57.05 56.08, 75.02 35.73, 107.75 -1.76 M38.27 79.77 C61.13 52.22, 84.66 25.62, 105.82 0.37 M42.23 78.19 C58.39 60.89, 74.45 44.74, 112.27 -1.82 M43.22 78.59 C57.72 61.78, 73.25 42.74, 111.43 -0.39 M48.85 78.3 C64.14 61.24, 81.18 41.51, 117.09 0.3 M47.75 78.73 C75.33 49.07, 100.47 18.55, 116.67 1.23 M53.03 78.71 C70.18 62, 84.29 44.94, 121.65 -0.13 M53.32 77.65 C72.63 54.35, 94.1 31.22, 121.41 -0.64 M59.83 78.89 C87.13 48.63, 111.59 16.27, 125.16 1.27 M58.27 78.53 C80.49 53.63, 101.58 29.19, 126.27 0.87 M65.68 79.07 C78.7 62.78, 95.8 43.63, 133.87 0.02 M64.79 77.51 C79.83 61.17, 95.36 43.19, 132.89 -0.57 M67.79 77.71 C90.1 57.36, 109.22 34.51, 138.36 0.21 M69.36 79.08 C90.11 53.88, 112.63 27.82, 138.38 0.84 M75.97 76.8 C92.28 58.94, 113.4 33.62, 141.5 -0.14 M75.66 79.34 C88.71 62.72, 104.1 44.57, 142.25 0.36 M78.06 79.27 C105.96 49.89, 132.6 17.58, 147.77 0.32 M79.05 79.34 C101.1 54.78, 120.64 33.71, 148.87 -0.02 M83.11 79.11 C104.02 58.12, 117.94 41.45, 155.18 -0.41 M84.78 79.11 C103.59 57.17, 124.04 35.21, 154.37 -0.23 M90.04 79 C112.58 52.38, 137.07 27.47, 160.58 1.76 M89.81 79.27 C118.71 46.26, 144.63 16.3, 159.1 1.16 M96.32 79.93 C114.58 56.77, 132.24 33.62, 163.61 -1.66 M96.43 78.55 C112.83 59.62, 129.98 40.99, 164.56 0.28 M101.17 79.29 C122.05 53.92, 143.46 32.2, 168.01 1.65 M100.61 77.88 C124.82 53.21, 147.4 26.04, 169.87 -0.73 M106.94 80.33 C130.66 53.75, 153.16 24.55, 173.55 -1.82 M106.39 79.69 C127.95 53.33, 149.03 30.56, 174.64 -0.44 M110.97 77.45 C126.8 60.12, 141.69 42.13, 181.37 2 M110.86 79.21 C134.01 52.98, 155.72 27.32, 179.46 -0.76 M115 77.61 C132.59 58.7, 154.48 37.77, 185.84 0.1 M116.57 79.82 C138.49 54.74, 159.86 30.34, 184.85 0.3 M121.01 77.73 C149.37 47.41, 173.47 21.27, 191.99 1.79 M122.47 78.33 C136.87 61.06, 153.16 42.94, 191.64 0.02 M128.62 78 C150.27 54.65, 172.31 28.78, 195.35 0.05 M128.35 78.29 C143.33 57.89, 161.44 39.27, 195.95 0.23 M134.93 79.32 C158.96 49.3, 184.56 19.94, 203.31 0.93 M133.78 79.33 C152.18 58.31, 169.12 38.34, 201.62 0.62 M139.95 80.64 C153.48 61.03, 166.44 47.47, 206.38 1.66 M138.57 78.46 C163.12 49.34, 189.29 17.98, 206.47 0.85 M142.43 80.35 C165.04 54, 190.44 24.47, 205.56 6.3 M143.64 79.35 C163.93 55.68, 183.28 31.27, 206.83 6.09 M149.24 77.64 C166.88 58.03, 183.24 38.46, 204.76 13.31 M149.54 79.72 C168.47 57.59, 186.17 36.32, 206.92 12.53 M155.27 77.89 C168.64 61.22, 182.06 42.84, 206.28 19.69 M155.33 78.55 C166.77 63.45, 177.54 49.79, 207.44 17.48 M160.78 78.03 C167.69 66.54, 179.68 55.69, 205.41 24.43 M159.05 79.5 C173.74 62.53, 187.36 45.59, 207.26 24.75 M163.28 79.93 C182.41 61.54, 195.75 41.14, 205.67 30.54 M164.63 78.13 C176.14 63.47, 188.52 50.88, 205.67 30.6 M170.92 79.78 C178.51 71.62, 185.12 60.69, 207.46 34.72 M170.35 79.27 C184.52 64.2, 196.84 48.67, 206.11 37.37 M174.34 77.43 C181.59 69.08, 191.88 60.54, 204.71 41 M175.77 78.31 C184.4 67.56, 195.32 56.47, 205.92 43.05 M180.08 77.81 C188.56 68.23, 202.7 55.94, 208.11 46.8 M180.16 78.52 C189.73 68.95, 198.25 57.51, 206.56 49.27 M186.41 80.25 C190.44 71.39, 197.03 65.68, 206.47 56.41 M185.46 78.35 C189.76 72.97, 195.41 67.87, 206.1 54.73 M192.74 79.95 C196.51 73.52, 201.72 67.42, 205.97 63 M190.67 78.76 C196.61 73.46, 200.23 68.14, 205.49 61.12 M195.11 78.21 C200.07 75.92, 203.77 69.4, 206.75 66.46 M196.21 79.25 C197.69 76.91, 201.01 73.75, 206.34 66.87 M201.71 78.83 C204.08 77.07, 205.18 75.58, 206.88 73.75 M201.74 79.03 C203.28 77.08, 204.39 75.66, 206.37 73.77 M-0.33 78.11 C-0.33 78.11, -0.33 78.11, -0.33 78.11 M-0.33 78.11 C-0.33 78.11, -0.33 78.11, -0.33 78.11 M5.41 79.15 C4.25 75.96, 1.06 75.16, 0.58 72.89 M5.83 78.28 C4.31 77.08, 2.49 75.59, 0.04 73.21 M13.28 79.67 C7.82 73.39, 4.43 72.12, -0.87 68.57 M12.24 78.05 C9.17 75.24, 5.85 72.58, 0.43 67.45 M16.51 79.17 C12.79 72.83, 10.89 69.44, 1.56 62.13 M17.31 78.72 C15.29 75.48, 9.99 72.02, 0.87 63.12 M23.67 77.42 C15.57 70.03, 4.22 62.28, -1.13 58.7 M23.9 78.5 C16.72 72.34, 9.05 65.84, 0.08 58.13 M30.66 78.9 C19.24 67.74, 10.5 58.82, 1.25 50.73 M29.29 78.69 C21.67 68.96, 13 61.43, -0.3 52.07 M35.62 77.76 C25.82 67.34, 11.26 57.86, 0.25 46 M36.7 78.66 C22.37 68.05, 10.68 55.08, -0.39 47.6 M44.42 76.7 C32.71 69.99, 22.81 58.61, -1.95 42.58 M43.7 78.4 C34.37 69.84, 24 63.05, 0.44 41.24 M47.58 76.38 C38.45 66.86, 24.03 59.35, 0.07 37.51 M48.12 77.87 C31.92 62.92, 13.64 48.94, -0.69 35.85 M53.13 76.73 C34.03 61.02, 12.4 42.38, -0.39 28.87 M54.03 78.23 C43.93 66.94, 30.45 55.96, -0.54 30.74 M59.95 79.73 C46.73 64.05, 29.49 49.4, -1.52 24.42 M60.14 78.6 C41.05 61.57, 20.36 44.12, 0.01 26.22 M66.46 78.05 C40.89 56.23, 15.53 32.73, -0.38 19.72 M67.51 78.59 C41.7 56.68, 17.49 33.7, -0.42 19.69 M71.93 77.84 C48.82 54.85, 22.81 33.21, -0.28 14.8 M73.97 79.02 C57.08 64.79, 40.91 50.89, 0.02 14.14 M77.39 80.02 C59.08 61.67, 38.72 41.54, -2.15 8.21 M78.07 77.24 C50.98 54.14, 23.71 30.29, 0.09 10.26 M86.52 77.7 C55.51 49.79, 26.55 24.16, 0.08 5.7 M85.03 78.36 C62.2 57.64, 38.9 37.37, 1.14 5.01 M90.98 78.91 C60.18 51.35, 31.27 26.52, 0.87 -1.02 M91.13 78 C71.49 61.34, 52.57 45.76, 1.53 0.3 M99.06 79.23 C66.73 54.7, 39.61 27.09, 6.72 0.98 M97.46 78.84 C75.35 59.3, 53.2 41.41, 7.4 0.21 M105.07 80.6 C81.2 60.48, 59.58 42.14, 11.15 0.17 M104.31 79.34 C81.55 60.03, 60.87 41.61, 12.7 -0.78 M110.18 76.63 C72.15 47.12, 38.58 16.83, 18.53 -1.74 M109.13 79.05 C75.28 48.84, 41.39 19.14, 18.02 -0.09 M115.34 77.95 C94.13 59.19, 74.44 43.15, 23.31 -0.19 M116.45 77.84 C88.98 55.71, 59.37 31.59, 24.97 -1.57 M122.59 79.01 C94.73 53.61, 66.87 29.54, 30.72 0.78 M122.35 78.64 C100.64 59.56, 79.04 41.03, 31.9 -0.95 M127.76 78.69 C104.31 58.69, 84.51 41.41, 38.11 -0.63 M128.12 78.02 C102 56.85, 75.75 32.54, 38.28 -1.12 M133.79 79.1 C107.09 51.7, 75.65 28.79, 43.83 -2.67 M134.7 78.91 C111.79 57.85, 87.89 37.63, 42.7 -0.82 M139.63 78.88 C117.69 61.85, 100.55 42.45, 48.13 1.3 M140.6 77.84 C115.13 56.7, 89.88 34.5, 48.76 -1.42 M145.11 78.59 C126.22 58.32, 104.32 39.89, 54.47 -2.37 M145.91 78.25 C125.26 61.61, 106.57 43.38, 55.54 -0.13 M152.31 79.47 C117.25 46.61, 82.45 17.91, 62.25 0.94 M152.65 77.24 C119.45 49.24, 85.71 21.63, 61.27 -1.48 M158.19 80.07 C140.09 62.16, 121.07 41.95, 68.07 0.99 M158.5 78.05 C122.83 48.7, 89.91 17.66, 67.78 -0.59 M163.96 79.03 C130.42 47.37, 94.22 17.02, 74.68 -0.08 M165.23 78.87 C145.15 59.77, 124.79 41.29, 74.4 0.1 M171.97 76.43 C138.27 50.5, 102.44 22.78, 79.84 -2.31 M170.65 78.05 C142.73 54.89, 115.05 29.42, 79.96 0.13 M178.57 79.11 C148.81 54.82, 122.47 28.9, 85.67 -1.2 M176.53 79.44 C143.62 50.74, 110.59 22.15, 85.19 -0.28 M183.48 79.48 C154.24 54.27, 124.34 27.9, 91.33 0.94 M183.04 79.05 C158.7 57.24, 134.48 36.94, 92.39 -1.64 M190.43 80.13 C160.93 51.33, 131.69 27.98, 98.32 -2.25 M188.46 77.67 C163.71 57.77, 139.37 35.59, 97.91 -0.51 M196.54 76.63 C167.56 53.19, 140.88 30.23, 103.4 0.2 M195.58 79.52 C174.85 60.59, 154.56 42.4, 104.05 -0.19 M201.15 78.83 C181.08 62.43, 161.88 45.48, 111.49 -2.11 M201.65 77.63 C177.93 59.05, 156.35 40.46, 111.04 -1.44 M206.02 79.59 C184.28 59.9, 162.45 38.35, 116.97 -2.13 M207.6 78.35 C182.32 57.52, 157.05 35.15, 115.43 -1.77 M206.35 71.6 C188.39 57.82, 165.47 41.3, 124.39 1.25 M206.15 72.19 C173.95 44.52, 140.04 14.76, 121.8 -0.89 M205.31 68.48 C188.63 52.35, 171.89 37.89, 129.78 -2.03 M207.37 66.87 C176.35 41.37, 147.41 17.26, 129.2 0.03 M207.78 61.06 C188.57 47.57, 170.27 28.61, 133.54 0.16 M207.53 61.5 C191.62 49.19, 176.3 34.43, 135.1 -0.34 M207 56.7 C188.65 41.04, 167.35 22.34, 141.35 -0.53 M206.77 55.86 C192.37 43.64, 176.09 31.98, 141.28 -0.28 M205.25 51.97 C193.49 40.76, 176.76 26.98, 145.51 -2.14 M206.85 50.99 C194.41 40.68, 180.16 28.69, 146.33 -0.21 M206.41 46.74 C195.31 34.99, 179.2 22.55, 153.56 0.23 M206.8 45.25 C195.28 36.85, 184.19 27.27, 153.29 -0.22 M208.64 40.82 C191.51 27.82, 174.37 11.62, 157.69 1.2 M206.63 40.87 C190.83 28.13, 175.75 13.26, 160.11 -1.26 M204.94 36.05 C188.88 22.71, 175.91 5.89, 163.57 -1.57 M206.97 36.02 C190.11 22.46, 174.64 7.71, 165.58 0.08 M207.85 29 C201.2 25.41, 192.82 18.36, 171.27 -2 M206.83 29.37 C199.24 23.42, 190.18 15.29, 171.27 -1.14 M206.02 25.02 C199.54 19.53, 194.89 12.32, 176.6 -2.85 M207.21 24.17 C195 14.52, 183.4 3.91, 177.95 -1.49 M204.87 18.88 C200.37 11.65, 193.84 6.11, 183.77 0.97 M206.88 18.77 C200.08 14.21, 194.18 8.99, 183.34 -0.56 M207.17 12.94 C199.34 8.43, 196.65 4.44, 190.72 1.1 M205.96 14.74 C202.44 9.05, 197.46 4.85, 190.46 -0.33 M206 9.56 C203.18 6.7, 197.42 1.6, 194.38 0.65 M207.47 9.29 C202.18 5.39, 197.72 1.85, 195.58 -0.06 M207.7 3.6 C205.23 2.3, 203.36 1.51, 201.83 -1.07 M207.05 4.2 C205.87 2.65, 203.85 1.51, 202.03 -0.28" stroke="#82c91e" stroke-width="0.5" fill="none"></path><path d="M1.16 -0.09 C55.41 0.55, 108.19 0.36, 206.48 1.09 M-0.87 0.15 C81.78 -1.89, 164.09 -0.38, 205.87 0.7 M208.29 1.16 C207.77 30, 205.81 62.63, 205.71 80.34 M206.59 0.71 C205.77 22.56, 206.48 46.7, 206.16 78.82 M205.44 79.02 C129.53 79.46, 53.21 81.01, 1.11 77.88 M206.12 79.16 C162.82 78.59, 119.49 78.96, 0.21 78.24 M1.02 76.54 C2.22 56.31, 0.62 37.57, -1.89 -1.22 M-0.83 79.19 C0.47 59.86, 0.05 43.52, -0.89 -0.44" stroke="#000000" stroke-width="1" fill="none"></path></g><g transform="translate(932.2000274658203 200.79998779296875) rotate(0 53 14)"><text x="53" y="21" font-family="Virgil, Segoe UI Emoji" font-size="20px" fill="#000000" text-anchor="middle" style="white-space: pre;" direction="ltr">子 created</text></g><g stroke-linecap="round" transform="translate(591.3333536783854 175.60000610351562) rotate(0 103.19999694824219 39.199981689453125)"><path d="M0 0 C0 0, 0 0, 0 0 M0 0 C0 0, 0 0, 0 0 M-0.18 5.89 C1.29 4.13, 3.04 2.57, 5.74 0.95 M-0.48 6.65 C1.26 4.43, 3.25 2.35, 5.39 0.12 M0.95 13.03 C4.73 8.32, 6.21 4.59, 9.95 -0.29 M0.25 12.78 C3.13 9.9, 4.7 6.97, 10.08 -0.42 M0.4 18.14 C2.78 15.57, 9.15 10.51, 16.28 0.76 M-0.33 17.49 C6.99 11.14, 13.21 3.11, 14.68 0.64 M-1.43 23.04 C6.7 16.72, 10.14 11.36, 21.27 -1.59 M-0.27 23.59 C4.19 17.84, 9.35 14.49, 20.74 0.59 M1.83 28.85 C6.95 25.07, 10.61 16.23, 27.33 -1.03 M-0.83 29.61 C5.81 23.47, 12.72 16.21, 26.75 1.27 M1.64 35.26 C10.85 24.8, 18.24 13.73, 33.37 -1.42 M-1.09 37.68 C8.52 27.54, 15.42 17.8, 32.08 0.8 M0.15 41.75 C9.37 35.72, 16.92 23.62, 36.7 -0.26 M-0.57 41.6 C13.73 26.69, 27.68 10.34, 36.8 1.21 M-0.4 48.43 C14.93 32.24, 27.73 14.59, 41.72 -0.04 M0.12 48.88 C10.59 36.45, 21.41 25.33, 42.34 0.12 M2.26 53.39 C15.87 35.87, 34.18 14.14, 45.98 0.39 M1.19 55.09 C10.57 41.98, 20.97 31.09, 47.49 0.45 M0.62 61.38 C12.72 46.04, 23.34 33.49, 52.88 -1.59 M-0.28 61.61 C15.36 42.67, 31.93 25.57, 52.95 0.06 M1.31 69.12 C15.97 50.84, 28.86 33.96, 57.71 0.3 M-0.41 67.98 C19.2 44.82, 37.82 22.73, 57.48 -0.51 M-1.5 74.24 C22.71 48.59, 44 19.82, 64.35 -2.16 M0.77 73.96 C22.93 45.47, 46.98 18.59, 64.35 -0.4 M0.01 79.36 C24.02 51.01, 49.9 25.52, 67.35 0.93 M1.41 78.6 C17.76 58.63, 35.03 38.45, 69.49 -0.71 M5.21 79.19 C20.18 63.01, 36.4 44.35, 72.58 -1.77 M5.6 78.48 C27.83 53.96, 47.81 29.69, 74 -0.83 M10.6 79.01 C39.31 48.44, 65.35 17.33, 79.32 1.79 M11.03 79.19 C27.42 60.08, 42.9 42.65, 80.26 -0.74 M16.4 80.48 C33.86 60.2, 50.98 38.94, 84.93 -0.36 M15.33 78.22 C40.08 51.08, 65.11 21.32, 84.42 0.67 M21.86 80.2 C43.92 52.7, 63.97 27.15, 90.96 0.45 M21.49 78.62 C41.58 55.15, 62.23 32.01, 90.56 -0.7 M27.42 78.47 C51.58 53.46, 72.89 26.72, 95.74 -1.84 M25.86 78.73 C43.57 59.7, 59.64 40.93, 95.15 -0.51 M31.34 79.79 C49.73 61.02, 65.64 41.31, 100.56 0.56 M32.71 77.87 C59.84 47.28, 86.16 17.6, 101.2 -0.23 M35.81 77.56 C58.85 57.26, 74.44 31.83, 106.25 -2.04 M38.36 78.01 C59.54 54.26, 79.11 29.55, 106.75 0.47 M43.57 78.68 C66.28 54.38, 86.13 27.67, 111.33 -0.2 M43.63 79.43 C57.82 61.29, 75.58 42.73, 111 -0.5 M48.04 80.19 C61.26 60.89, 78.8 47.33, 115.99 0.03 M48.04 78.49 C72.71 51.73, 97.34 23.85, 116.17 0.68 M53.96 77.87 C73.29 57, 94.32 34.47, 123.45 1.95 M54.23 79.23 C71.27 56.79, 91.46 35.9, 122.84 -0.22 M59.51 78.89 C81.63 50.39, 103.8 24.5, 125.4 -0.85 M58.14 79.12 C75.17 59.6, 92.55 39.38, 127.34 0.39 M64.92 78.4 C83.44 56.16, 105.51 31.38, 133.99 0.83 M63.5 78.68 C87.36 53.55, 108.63 30.02, 131.61 0.39 M70.58 80.21 C97.28 48.89, 121.3 17.32, 135.9 0.45 M69.94 79.27 C87.07 56.94, 107.86 33.98, 137.29 -0.39 M73.74 77.36 C92.53 55.99, 110.74 38.36, 145.01 0.33 M75.5 78.66 C94.6 55.94, 114.28 32.07, 142.25 -0.44 M78.53 76.8 C105.04 52.86, 129.6 23.05, 148.49 0.32 M80.74 78.81 C93.24 63.73, 106.53 46.55, 148.69 1.06 M84.02 80.7 C108.65 50.48, 137.42 23.02, 155.46 -1.61 M84.62 78.26 C106.91 54.13, 128.25 30.06, 153.7 -0.01 M89.58 79.36 C104.76 63.65, 117.38 45.5, 159.1 -0.73 M89.87 78.07 C116.46 47.04, 144.9 15.3, 159.28 0.93 M96.28 80.12 C118.76 52.72, 142.01 26.06, 165.27 -0.96 M96.29 79.79 C110.37 61.53, 125.56 44.9, 164.96 -1.14 M102.89 80.66 C122.13 52.64, 147.49 24.98, 170.62 1.82 M100.7 77.85 C122.68 53.26, 142.45 29.64, 169.82 0.87 M107.98 77.68 C132.6 52.38, 154.02 22.24, 175.27 0.34 M106.98 79.29 C133.24 48.01, 158.67 18.98, 175.06 -0.19 M110.55 79.51 C131.29 54.92, 152.02 29.92, 180.86 0.59 M112.63 79.42 C127.41 60.11, 143.02 42.74, 180.08 0.01 M116.18 78.73 C141.02 48.66, 164.35 21.65, 187.25 -1.57 M116.85 79.51 C139.56 49.88, 163.85 23.95, 185.04 -1.05 M121.61 76.81 C143.4 53.05, 166.09 27.02, 190.58 0.24 M123.08 78.5 C141.96 55.83, 160.79 35.38, 190.89 0.95 M128.89 80.7 C150.03 54.12, 169.28 29.47, 195.93 -0.49 M127.09 78.67 C153.15 47.94, 181.61 15.75, 195.99 -1.14 M134.02 79.5 C157.46 51.67, 178.37 26.38, 199.46 1.51 M133.51 79.32 C151.34 58.15, 168.52 38.53, 202.1 -0.25 M137.05 77.06 C164.77 49.35, 191.93 17.15, 204.32 0.61 M137.93 78.46 C162.83 51.78, 186.99 22.32, 206.37 1.34 M142.71 76.6 C169.63 52.37, 193.7 23.3, 204.88 7.23 M143.42 78.53 C167.35 51.8, 189.41 26.24, 207.35 5.98 M150.54 77.36 C168.66 55.17, 189.57 33.02, 207.82 10.61 M148.63 78.04 C159.53 66.47, 170.95 51.93, 206.14 12.49 M155.52 79.19 C166.28 65.58, 177.45 49.96, 208.41 18.26 M154.33 79.28 C169.07 61.16, 184.19 43.16, 206.54 18.65 M158.17 79.2 C177.55 59.98, 191.69 40.14, 205.82 22.58 M159.48 78.02 C171.77 65.54, 183.01 50.47, 206.32 24.95 M165.22 80.39 C177.97 64.87, 191.25 51.25, 207.14 30.22 M165.79 79.18 C178.45 62.26, 192.94 44.89, 207.2 30.93 M171.7 80.26 C176.02 72.08, 185.69 59.97, 204.78 34.96 M169.78 78.52 C184.3 61.53, 197.86 44.99, 206.13 37.19 M177.55 79.42 C185.05 64.66, 198.62 55.16, 205.84 42.6 M175.37 78.31 C185.98 66.85, 195.8 55.94, 206.64 43.27 M181.81 78.26 C186 71.25, 195.65 62.38, 208.11 48.28 M179.9 79.08 C185.43 73.11, 191.58 67, 206.79 48.12 M187.17 77.53 C190.01 74.76, 195.4 69.02, 206.21 53.19 M186.71 79.23 C190.67 73.03, 194.7 69.8, 207.2 55.81 M190.14 79 C195.59 71.64, 200.37 66.85, 207.51 61.86 M191.22 78.75 C195.91 73.9, 200.57 68.47, 206.93 61.91 M196.84 78.87 C198.67 76.47, 202.18 72.5, 205.8 67.09 M196.68 79.58 C198.42 76.74, 201.59 72.46, 206.87 67.37 M201.64 79.3 C203.02 76.85, 204.88 75.4, 206.14 73.94 M201.95 78.49 C203.7 77.3, 204.77 74.94, 206.7 73.26 M-0.33 78.11 C-0.33 78.11, -0.33 78.11, -0.33 78.11 M-0.33 78.11 C-0.33 78.11, -0.33 78.11, -0.33 78.11 M5.33 78.97 C3.75 76.32, 3.07 75.23, 0.54 73.59 M5.92 78.45 C4.66 76.96, 3.85 75.85, -0.13 73.39 M10.96 78.32 C7.81 72.56, 1.82 69.53, -1.84 66.18 M12.24 79.36 C9.38 75.79, 6.32 73.27, -0.25 67.22 M19.74 80.1 C14.18 75.77, 9.88 69.86, -1.21 63.03 M18.61 78.32 C13.1 72.68, 7.51 68.76, 0.6 63.46 M24.2 78.49 C20.69 75.06, 15.02 69.01, 0.1 59.06 M24.73 78.27 C18.78 74.13, 11.63 67.55, 0.07 58.01 M29.36 78.89 C20.49 71.2, 12.99 63.28, -0.23 50.21 M30.55 78.01 C18.98 68.59, 8.18 59.45, -0.89 51.48 M38.34 79.05 C27.86 69.74, 14.98 57.42, -0.82 47.88 M35.56 78.62 C22.73 66.52, 8.95 53.88, 1.24 47.46 M42.15 78.98 C30.34 70.86, 19.84 58.87, 1.26 40.72 M42.81 78.66 C30.48 67.65, 18 57.63, 0.58 41.58 M49.4 77.58 C33.11 66.45, 20.25 53.56, -0.11 34.49 M48.49 77.88 C33.57 65.32, 19.92 53.56, 1.22 36.42 M55.86 77.23 C34.28 60.16, 9.67 40.49, 1.24 29.49 M55.46 78.8 C35 62.32, 17.44 46.09, 0.47 29.97 M62.61 77.79 C38.15 57.3, 14.62 35.31, 1.18 24.37 M61.35 77.88 C38.34 60.55, 17.38 41.28, 0.23 26.57 M65.43 76.52 C50.2 63.21, 32.89 46.62, -1.38 21.55 M67.85 78.39 C47.26 60.94, 27.16 41.97, 0.27 19.33 M72.88 78.09 C52.37 62.15, 34.88 42.09, 0.92 15.07 M72.77 79.57 C49.72 57.59, 26.14 38.36, -0.45 15.07 M79.98 79.16 C56.9 60.04, 34.59 39.2, 1.24 7.97 M79.61 78.23 C54.64 57.28, 30.29 37.96, -0.49 8.79 M85.8 76.99 C57.61 56.05, 32.92 32.81, -0.07 4.18 M85.13 78.42 C64.93 60.46, 42.63 43.12, -0.56 4.55 M91.59 79.49 C68.34 57.21, 48.1 39.27, -1.36 -1.46 M91.4 78.56 C68.92 60.12, 48.03 41.23, 0.49 -1.39 M98.16 77.05 C64.26 49, 26.83 14.83, 8.75 -0.72 M97.12 78.32 C77.87 62.91, 59.2 45.64, 6.03 -1.01 M104.01 80.6 C68.52 49.57, 34.22 17.24, 11.11 -2.36 M103.68 77.76 C73.86 52.98, 43.51 27.13, 13.36 0.07 M110.93 78.2 C81.59 53.96, 55.16 30.53, 20.56 0.8 M108.7 78.96 C78.73 52.32, 49.39 25.56, 18.14 -1.33 M117.67 79.64 C91.29 57.44, 62.04 33.13, 25.99 0.71 M115.64 77.7 C84.07 51.22, 50.74 22.37, 24.41 -0.12 M122.01 78.46 C88.38 48.99, 56.56 24.22, 31.72 -2.06 M121.84 78.53 C102.85 62.75, 83.39 46.06, 31.9 0.01 M126.2 79.83 C93.37 47.06, 59.12 17.7, 35.62 -0.28 M127.82 77.7 C106.53 58.44, 82.84 39.95, 38.06 -0.3 M135.01 78.57 C107.52 56.9, 78.22 31.26, 42.77 0.54 M135.35 78.31 C111 58.12, 88.2 37.54, 43.69 -0.48 M141.42 79.76 C112.87 55.8, 84.47 29.44, 51.05 -1.26 M141 77.89 C115.05 56.42, 90.73 36.21, 48.47 -0.29 M148.21 79.34 C121.1 57.91, 97.79 35.23, 53.24 -1.47 M145.75 78.12 C116.83 51.23, 85.32 24.21, 54.98 -0.83 M150.09 78.11 C128.03 58.87, 105.12 35.7, 62.48 -2.12 M152.98 77.86 C129.28 58.43, 106.03 38.35, 62.09 -1.49 M159.08 77.64 C135.48 57.09, 111.4 37.68, 66.31 -1.45 M157.88 78.18 C123.75 50.01, 90.63 20.62, 66.98 -0.94 M166.64 78.27 C139.03 54.61, 109.5 32.08, 72.33 -1.34 M165.39 79.34 C132.11 51.32, 98.64 22.4, 72.68 -1.46 M169.28 79.73 C137.11 46.55, 103.63 20.81, 81.84 1.33 M169.87 78.54 C139.97 50.74, 108.81 24.32, 79.7 -1.23 M178.2 77.71 C157.26 60.34, 137.76 43.29, 83.94 0.65 M176.59 77.53 C149.25 55.64, 124.18 33.5, 86.01 -1.31 M181.4 77.92 C163.81 62.12, 142.02 44.17, 92.92 -2.38 M181.85 77.72 C162.9 60.77, 141.32 43.98, 92.42 -0.65 M189.08 79.95 C164.57 56.24, 137.36 34.56, 98.37 -1.86 M188.25 79.1 C159.21 52.95, 131.8 29.08, 98.62 -1.03 M195.74 79.28 C169.75 53.29, 142.22 31.49, 102.8 -2.39 M194.76 79.36 C168.09 54.2, 139.91 30.14, 104.72 -1.37 M201.8 79.91 C172.05 52.29, 142.81 30.12, 111.31 -2.47 M200.31 77.53 C178.17 58.5, 156.13 40.77, 110.86 -0.11 M206.5 78.27 C187.49 61.63, 166.4 43.96, 117.65 -0.48 M206.56 76.96 C182.46 55.07, 155.72 34.61, 115.2 -0.07 M207.75 71.31 C179.05 48.35, 147.01 20.22, 121.68 1.23 M207.71 72.49 C188.82 57.71, 169.8 41.71, 123.33 -1.57 M205.29 68.89 C185.76 47.95, 161.75 26.89, 127.38 -1.69 M205.65 67.89 C183.97 46.98, 159.9 26.75, 128.24 -1.31 M207.3 61.22 C189.92 48.07, 171.39 32.7, 132.58 1.06 M206.45 62.4 C181.36 40.99, 155.59 19.9, 133.94 -0.67 M205.76 57.54 C179.83 36.13, 155.86 13.25, 142.53 -1 M205.65 56.41 C183.53 36.28, 160.08 15.06, 141 -0.14 M205.82 49.97 C193.64 41.96, 181.71 30.43, 148.04 -1.09 M207.62 52.39 C188.88 37.5, 172.24 23.01, 146.61 -0.16 M207.2 46.87 C189.18 27.71, 167.9 10.49, 154.86 0.69 M206.85 45.35 C189.87 30.62, 172.92 16.92, 153.91 -0.21 M205.56 40.74 C189.74 26.89, 175.82 13.07, 157.79 -0.6 M207.28 41.79 C187.56 23.88, 169.22 8.51, 160.05 0.31 M205.84 33.57 C194.4 26.08, 183.99 14.79, 166.31 -2.15 M205.58 36.07 C195.85 26.03, 184.23 17.52, 165.72 -0.31 M207.7 28.75 C198.53 23.36, 186.21 11.8, 170.22 -0.79 M206.53 29.42 C198.3 23.06, 188.65 15.71, 170.76 -0.38 M206.83 24.42 C197.14 17.03, 191.52 13.14, 177.76 1.03 M206.22 24.35 C197.4 15.91, 187.03 9.11, 176.18 -1.78 M208.38 21.32 C199.83 12.8, 196.52 10.19, 184.95 -0.91 M207.5 19.57 C199.88 12.37, 191.74 7.29, 183.5 -0.95 M208.27 12.22 C199.18 7.58, 196.15 2.91, 189.78 1.48 M207.16 14.46 C201.08 8.83, 196.99 5.45, 188.82 0.15 M206.68 9.6 C202.42 6.06, 199.42 3.55, 194.18 0.68 M207.21 9.75 C204.37 6.04, 201.13 4.24, 196.12 -0.41 M206.73 4.23 C205.7 2.91, 203.92 2.34, 202.47 -0.14 M207.3 3.97 C205.35 2.52, 203.25 0.72, 201.9 -0.43" stroke="#82c91e" stroke-width="0.5" fill="none"></path><path d="M-1.75 0.9 C71.95 -0.12, 145.42 0, 206.46 -1.09 M-0.85 0.59 C41.7 0.63, 83.25 0.32, 206.19 0.26 M207.76 0.33 C204.88 16.88, 205.85 38.1, 205.76 77.08 M206.47 -0.63 C205.97 25.39, 205.26 49.29, 207.06 79.33 M205.02 79.39 C145.32 81.17, 84.08 80.77, -0.47 77.92 M207.15 77.95 C126.16 78.84, 46.1 79.91, 0.23 78.13 M-0.17 77.47 C0.09 56.47, 1.61 34.76, 1.05 0.6 M-0.58 77.55 C0.37 48.42, 0.51 17.38, -0.28 -0.87" stroke="#000000" stroke-width="1" fill="none"></path></g><g transform="translate(619.5333506266276 200.79998779296875) rotate(0 75 14)"><text x="75" y="21" font-family="Virgil, Segoe UI Emoji" font-size="20px" fill="#000000" text-anchor="middle" style="white-space: pre;" direction="ltr">子 beforeMount</text></g><g stroke-linecap="round" transform="translate(300.6666768391927 175.60000610351562) rotate(0 103.19999694824216 39.199981689453125)"><path d="M0 0 C0 0, 0 0, 0 0 M0 0 C0 0, 0 0, 0 0 M-0.25 7.05 C0.48 5.69, 2.29 3.89, 4.19 0.67 M-0.22 6.11 C2.09 4.43, 3.61 1.47, 5.27 0.15 M1.14 12.63 C1.61 9.71, 3.76 6.03, 9.23 -1.59 M0.18 12.02 C3.78 8.2, 8.19 3.14, 11.27 -0.8 M-0.89 17.48 C7.51 9.48, 13.74 5.26, 14.97 -0.07 M0.08 17.87 C5.09 13.01, 10.44 7.19, 15.5 1.14 M-0.65 22.69 C4.9 17.34, 11.9 10.98, 22.6 -0.38 M-0.08 23.53 C5.15 17.49, 11.26 11.72, 22.23 0.59 M1.43 29.06 C8.85 22.39, 17.96 11.66, 25.62 0.25 M-0.67 29.64 C7.38 23.14, 13.14 14.45, 26.32 -0.1 M0.75 35.42 C12.1 23.18, 23.72 11.14, 30.24 0.78 M-0.54 37.31 C8 27.22, 18.76 16.8, 31.83 -0.87 M1.47 44.37 C12.46 30.37, 22.1 15.27, 36.46 1.4 M0.65 41.64 C13.32 27.56, 25.21 13.55, 36.58 1.14 M1.15 48.01 C9.78 36.89, 18 27.32, 41.87 0.79 M0.18 49.28 C14.88 31.84, 28.6 14.67, 43.13 -1.07 M2.01 53.94 C12.64 41.76, 22.28 28.64, 47.08 1.64 M0.56 54.54 C15.82 35.74, 32.28 19.49, 47.17 0.94 M0.23 62.73 C12.85 45.05, 29.39 24.97, 51.57 -0.13 M-0.06 60.63 C14.83 43.14, 30.43 26.86, 52.51 0.34 M1.25 65.99 C13.6 52.18, 28.19 34.55, 59.1 2.16 M0.41 67.8 C22.33 41.3, 44.92 17.05, 57.46 0.39 M0.37 72.02 C17.45 53.9, 35.78 32.04, 65.53 -0.82 M-0.28 72.83 C15.8 54.69, 30.02 37.65, 63.82 -0.29 M0.09 78.67 C20.45 56.52, 42.87 31.39, 68.24 -0.91 M-0.35 77.91 C18.85 56.88, 37.95 35.48, 69.28 -0.38 M7.28 77.21 C21.35 60.13, 33.92 43.97, 73.98 0.82 M6.23 78.36 C21.39 59.3, 37.1 40.6, 74.37 -0.56 M10.03 79.52 C24.69 60.72, 43.5 43.04, 80.25 -0.5 M11.73 77.82 C36.41 50.31, 61.51 21.65, 78.91 -0.2 M15.45 80.63 C33.47 58.21, 51.55 36.05, 83.2 -0.19 M15.4 78.74 C32.98 59.88, 51.01 40.41, 84.94 -0.04 M20.28 78.13 C42.97 53.7, 65.4 30.04, 90.96 1.38 M21.23 77.67 C38.52 59.79, 53.06 42.9, 89.14 -0.88 M28.23 77.56 C52.04 51.71, 75.56 21.3, 95.56 0.13 M26.35 78.6 C47.98 55.05, 67.6 31.81, 95.78 -0.27 M33.93 77.73 C51.74 59.65, 65.54 40.45, 102.26 1.68 M32.01 78.27 C49.22 60.39, 64.6 41.74, 101.19 0.8 M36.25 80.19 C62.62 48.74, 89.08 21.12, 105.47 -1.3 M37.97 79.52 C60.59 51.28, 82.6 25.5, 106.62 -0.76 M42.17 78.49 C58.34 60.46, 76.29 38.94, 110.09 0.28 M43.44 78.51 C69.1 48.64, 92.64 20.3, 110.77 -0.89 M48.2 79.65 C67.98 55.85, 88.35 29.95, 114.75 2.1 M47.56 78.13 C63.22 59.55, 80.18 41.49, 115.99 -0.24 M52.22 77.49 C72.08 55.99, 91.5 34.15, 120.47 -0.01 M54.32 79.27 C66.24 62.67, 81.05 46.42, 122.05 -0.67 M58.86 78.01 C82.35 54.67, 101.79 27, 127.28 -0.38 M58.95 78.11 C82.05 52.49, 106.28 26.18, 127.85 0.35 M63.38 76.77 C81.9 58.67, 96.24 41.31, 133.47 -1.43 M64.93 77.48 C86.38 52.8, 108.85 28.44, 131.68 -0.22 M69.04 80.27 C93.3 50.77, 115.14 22.12, 136.99 -0.27 M68.38 78.14 C90.23 54.28, 110.59 29.96, 137.68 0.34 M74.99 79.3 C86.86 60.86, 104.53 46.22, 143.24 0.7 M75.02 78.11 C96.22 53.96, 118.98 28.53, 142.77 -0.2 M81.64 78.37 C97.75 58.23, 110.11 39.57, 146.55 -0.9 M80.6 77.96 C101.16 54.7, 122.59 30.13, 149.07 0.34 M85.84 77.75 C109.91 51.11, 135.69 20.92, 153.97 -1.99 M85.16 78.89 C112 48.5, 138.33 17.67, 152.89 -0.21 M89.6 79.18 C117.25 48.93, 140.37 20.47, 158.7 -0.69 M90.81 78.31 C105.18 62.13, 121.45 44.84, 159.09 1 M96.7 79.46 C113.26 56.48, 135.86 34.22, 163.92 1.07 M95.36 79.35 C115.86 56.41, 136.79 31.53, 164.1 -0.86 M99.94 80.53 C123.92 54.21, 145.94 26.41, 168.22 -1.09 M100.68 78.98 C127.7 49.54, 152.74 18.39, 170.27 1.01 M106.47 78.95 C122.42 61.96, 141.39 39.17, 173.43 -0.62 M107.1 79.29 C125.95 58.1, 143.69 36.57, 174.9 0.32 M113.73 79.17 C137.71 50.16, 163.64 19.04, 181.99 1.36 M112.36 78.79 C131.52 54.88, 151.22 33.4, 180.61 1.06 M118.75 78.97 C139.78 52.64, 160.85 27.21, 184.87 1.38 M116.03 79.79 C135.89 54.89, 155.02 32.95, 186.3 -1.22 M122.11 78.78 C149.27 47.68, 172.04 20.43, 190.91 -0.93 M122.46 79.6 C143.41 54.66, 166.23 29.22, 191.58 -0.09 M129.22 79.15 C143.83 58.3, 164.56 36.42, 194.7 -1.55 M127.22 79.97 C153.11 50.8, 177.84 20.34, 195.73 -0.95 M134.28 78 C155.32 53.49, 179.84 26.93, 201.96 1.39 M134.05 78.28 C155.38 53.68, 177.47 27.44, 202.12 0.32 M137.6 80.1 C154.5 59.38, 172.91 38.37, 204.77 1.66 M137.26 78.97 C159.09 56, 178.45 31.34, 206.48 1.4 M145.5 78.39 C165.66 53.43, 187 26.58, 204.95 4.65 M144.69 78.75 C163.47 54.57, 183.07 32.31, 207.39 5.13 M147.68 79.36 C167.15 55.49, 189.97 33.6, 206.48 10.83 M148.16 77.99 C165.8 58.71, 181.94 38.57, 205.74 12.98 M153.1 80.45 C171.64 58.19, 189.81 39.77, 206.97 20.05 M154.39 77.95 C173.83 56.08, 192.14 34.09, 207.27 17.18 M159.33 79.4 C168.31 69.79, 178.66 56.64, 208.3 22.83 M159.44 78.21 C175.76 59.16, 193.27 38.79, 206.22 24.06 M164.47 79.62 C177.44 64.47, 191.01 49.54, 207.8 30.49 M165.64 77.86 C176.48 65.11, 186.4 52.65, 205.68 30.05 M168.47 79.62 C182.18 62.69, 195.44 49.18, 206.94 36.79 M170.06 78.89 C183.37 63.35, 195 50.45, 207.25 37.28 M177.05 78.29 C185.26 69.64, 193.35 58.25, 207.97 43.55 M175.4 77.48 C184.18 68.59, 194.83 57.77, 206.77 43.13 M179.07 80.37 C184.75 72.82, 189.95 65.53, 205.15 46.76 M180.46 79.3 C187.13 71.76, 191.9 64.46, 206.62 48.3 M186.36 77.76 C194.48 70.4, 197.98 61.82, 206.11 54.01 M187.08 78.84 C191.63 71.37, 196.26 66.76, 206.15 54.11 M191.17 78.94 C196.35 70.56, 203.84 65.33, 207.1 62.52 M190.55 78.74 C194.7 74.05, 199.19 69.24, 205.95 60.56 M197.1 79.07 C200.93 74.89, 201.86 70.2, 205.82 68.49 M195.98 79.65 C198.54 76.66, 201.54 72.63, 207.41 67.75 M201.52 78.32 C203.38 76.59, 204.16 75.71, 205.94 73.82 M201.8 78.67 C202.65 77.66, 204.18 76.5, 206.74 73.75 M-0.33 78.11 C-0.33 78.11, -0.33 78.11, -0.33 78.11 M-0.33 78.11 C-0.33 78.11, -0.33 78.11, -0.33 78.11 M6.04 78.63 C3.96 77.05, 3.41 75.97, 0.26 73.44 M6.18 78.12 C3.82 76.42, 1.68 74.05, 0.27 72.92 M11.28 78.57 C9.53 73.81, 5.59 70.76, -0.91 68.41 M13.15 79.46 C8.47 75.32, 5.82 72.47, -0.39 68.32 M16.92 80.01 C12.73 72.7, 4.81 68.29, 1.83 60.71 M19.05 78.3 C12.76 72.09, 6.23 67.95, 0.58 63.41 M25.09 77.06 C15.71 72.89, 6.32 62.88, -0.16 57.73 M23.68 78.88 C15.73 70.96, 6.1 62.51, 0.96 56.89 M30.16 77.34 C20.93 69.81, 15.3 64.2, -0.62 49.92 M29.75 77.41 C19 68.36, 9.2 59.51, 0.9 51.78 M36.33 79.02 C24.83 69.37, 16.57 61.04, -0.68 47.87 M36.15 77.55 C23.97 67.4, 10.72 56.01, 1.3 47.67 M42.82 77.62 C29.84 68.7, 15.17 53.07, 0.4 41.23 M42.47 79.2 C31.88 69.48, 19.58 59.52, 0.2 41.58 M48.69 79.35 C30.7 63.58, 9.65 46.39, 1.86 35.32 M48.94 77.85 C29.84 62.6, 10.72 45.13, 0.48 36.56 M53.81 78.45 C42.25 69.69, 32.95 57.66, -1.92 29.27 M54.41 77.84 C39.4 63.8, 22.38 50.79, -0.45 29.69 M60.12 79.96 C37.76 60.96, 16.71 42.04, -0.81 24.65 M60.74 79.05 C49.2 68.07, 36.62 57.48, 1.06 24.71 M68.37 80.34 C49.42 61.76, 29.85 49.52, -0.31 19.6 M66.52 77.5 C48.32 62.49, 28.61 46.33, 0.52 20.03 M75.39 78.3 C48.29 57.54, 27.22 35.98, -0.89 13.42 M73.48 78.07 C57.89 64.49, 40.57 50.36, 1.07 15.31 M79.03 80.07 C53.93 57.03, 31.47 36.9, -1.44 8.73 M78.45 77.75 C56.19 58.24, 32.84 38.53, -0.89 9.54 M87.05 76.81 C59.44 53.89, 31.94 31.09, 1.46 4.09 M85.3 78.93 C53.92 51.41, 24.01 26.13, 0.01 3.56 M90.42 79.36 C58.89 47.45, 25.41 18.91, -1.18 0.76 M91.34 78.16 C58.72 49.69, 26.58 22.76, 0.56 -1.16 M96.01 78.85 C67.22 52.2, 34.92 25.73, 4.96 -2.03 M97.06 78.64 C75.47 57.45, 53.53 38.82, 7.65 0.61 M103.94 77.52 C71.34 49.85, 37.99 24.22, 12.49 -0.76 M104.53 79.01 C73.81 52.04, 41.47 24.18, 12.4 0.14 M108.46 78.04 C78.44 49.28, 48.38 25.8, 20.08 -1.9 M109.34 78.57 C90.81 61.62, 71.47 44.5, 18.92 0.41 M114.82 76.85 C81.09 49.86, 43.03 18.81, 23.76 -0.35 M116.57 78.63 C89.88 56.8, 64.66 32.37, 24.73 -0.38 M120.66 78.95 C85.47 46.91, 53.63 19.6, 29.59 1.18 M121.19 77.14 C95.94 55.36, 70.01 30.75, 30.44 -0.32 M128.62 78.53 C102.09 57.87, 79.53 33.88, 38.97 -1.09 M127.76 79.35 C103.34 57.87, 80.57 36.33, 38.19 -0.99 M135.71 77.73 C105.84 52.61, 75.57 28.39, 41.59 -2.59 M134.88 78.45 C113.38 61.13, 95.47 44.05, 43.59 -0.24 M138.18 80.03 C120.37 61.91, 99.4 44.5, 48.24 -1.12 M139.09 78.9 C110.09 53.82, 81.62 28.23, 49.64 -0.89 M144.46 79.52 C114.56 50.24, 87.83 25.05, 56.24 -2.03 M146.88 77.66 C126.95 60.86, 105.37 42.16, 55.21 0 M152.43 79.76 C121.14 51.86, 90.51 22.43, 62.03 -1.64 M153.04 78.99 C121.45 51.74, 89.03 23.8, 60.67 -0.31 M158.14 78.35 C128.17 52.36, 98.07 24.73, 66.54 -0.4 M158.41 78.94 C134.88 59.08, 113.23 39.55, 68.37 0.46 M165.11 77.73 C134.33 53.13, 102.88 28.27, 72.1 -1.59 M164.3 78.08 C129.82 48.56, 95.23 17.19, 72.56 -1.08 M169.25 78.53 C152.46 60.67, 129.46 41.41, 79.28 -1.97 M170.4 78.81 C138 51.81, 106.48 22.73, 79.34 -0.74 M175.74 76.9 C141.8 47.96, 108.7 18.92, 84.27 -0.98 M176.76 78.63 C148.62 53.87, 119.42 28.47, 85.09 -0.01 M184.36 79.31 C165.73 62.85, 145.07 46.44, 91.55 -0.12 M182.22 78.86 C156.85 56.78, 132.63 34.77, 92.14 -1.49 M190.18 79.16 C162.15 55.94, 134.55 30.09, 99.19 -0.19 M188.07 79.16 C170.03 62.35, 149.35 45.18, 99.24 -0.21 M196.87 79.55 C172.76 56.89, 150.87 38.98, 103.78 0.07 M194.5 78.33 C172.24 58.14, 148.57 38.21, 103.48 -0.29 M201.62 78.66 C168.55 50.71, 134.36 21.77, 109.29 1.33 M200.55 77.52 C168.9 50.31, 135.81 21.21, 110.22 0.26 M207.22 78.41 C182.54 56, 156.66 32.27, 116.45 -1.56 M207.3 76.89 C182.4 56.09, 159.24 34.69, 115.54 -1.63 M205.23 73.26 C182.03 50.76, 156.67 30.6, 123.36 1.05 M206 72.35 C188.32 54.95, 169.01 38.87, 121.95 0.35 M206.36 67.41 C179.32 43.47, 151.52 19, 126.86 0.42 M205.61 66.67 C179.81 44.38, 152.83 21.16, 128.75 -1.3 M206.32 62.98 C188.12 46.59, 172.95 33.38, 135.45 -1.27 M207.69 61.6 C184.51 43.37, 164.21 24.2, 134.07 -0.64 M208.43 55.4 C186.42 41.66, 170.24 23.85, 142.11 -1.56 M206.02 57.21 C189.95 40.68, 171.99 25.84, 140.72 -1.02 M208.28 50.05 C182.55 31.34, 160.43 8.92, 145.71 1.06 M206.41 52.46 C190.14 37.22, 174.79 22.72, 146.69 -0.34 M206.32 44.33 C195.18 36.09, 185.28 27.58, 151.62 -0.2 M206.27 45.24 C191.09 31.88, 176.2 18.75, 152.8 -0.52 M208.52 40.37 C196.64 29.8, 182.72 20.07, 161.09 -1.67 M206.38 40.93 C195.53 31.13, 184.53 21.93, 159.15 -0.73 M206.98 35.07 C194.76 24.11, 186.48 17.03, 164.12 0.11 M206.55 34.5 C191.5 22.68, 174.74 8.26, 165.05 -0.16 M208.54 28.79 C198.36 20.48, 185.32 13.1, 172.35 -2.22 M207.29 31.03 C197.57 22.71, 188.51 14.5, 170.99 -0.7 M207.42 23.44 C199.71 16.33, 191.52 9.13, 176.41 -0.11 M205.54 23.79 C199.33 19.93, 194.87 14.12, 177.01 -0.25 M205.87 19.1 C201.89 16.59, 196.82 8.28, 182.57 -0.43 M206.31 18.81 C201.65 14.55, 194.99 9.55, 182.47 -0.14 M206.72 12.19 C200.9 8.32, 198.78 7.41, 190.09 1.28 M206.38 14.93 C201.49 8.48, 194.26 3.77, 190.43 -0.43 M206.28 8.28 C202.3 5.29, 199.02 2.44, 195.96 -1.58 M206.23 8.53 C203.3 5.05, 199.76 2.26, 195.56 -0.64 M207.02 3.92 C205.73 2.99, 203.8 0.7, 201.41 0.13 M207.25 3.84 C206.08 3, 204.13 1.71, 202.01 -0.44" stroke="#82c91e" stroke-width="0.5" fill="none"></path><path d="M0.52 1.67 C72.62 3.08, 148.25 2.55, 207.38 -0.23 M0.6 0.04 C59.83 2.24, 118.97 1.72, 206.42 -0.53 M206.32 -0.54 C207.02 24.97, 206.04 46.97, 206.07 79.53 M206.35 -0.72 C205.96 22.07, 206.57 45.97, 206.48 78.52 M205.61 78.04 C145.67 79.41, 82.34 76.35, -1.76 79.31 M206.8 77.61 C157.53 79.5, 107.49 78.76, 0.5 78.08 M1.12 80.07 C-0.45 51.23, 1.56 25.34, -0.08 -0.9 M-0.62 78.49 C-0.12 54.78, 0.85 32.15, 0.61 -0.44" stroke="#000000" stroke-width="1" fill="none"></path></g><g transform="translate(349.8666737874348 200.79998779296875) rotate(0 54 14)"><text x="54" y="21" font-family="Virgil, Segoe UI Emoji" font-size="20px" fill="#000000" text-anchor="middle" style="white-space: pre;" direction="ltr">子 mounted</text></g><g stroke-linecap="round" transform="translate(10 175.60000610351562) rotate(0 103.19999694824219 39.199981689453125)"><path d="M0 0 C0 0, 0 0, 0 0 M0 0 C0 0, 0 0, 0 0 M-0.26 5.6 C1.42 5.47, 3.31 3.57, 4.21 0.83 M-0.52 6.51 C1.42 4.23, 3.1 2.4, 5.25 0.6 M-0.44 12.71 C0.96 8.71, 5.13 5.66, 9.57 0.25 M0.14 11.5 C2.74 7.5, 6.51 3.41, 11.04 -0.82 M-1.51 18.91 C3.93 13.41, 9.86 6.47, 15.31 -0.14 M-0.3 18.97 C5.46 11.9, 9.82 7.55, 15.81 -0.1 M-0.31 24.37 C6.51 19.04, 7.3 12.86, 21.55 0.15 M0.3 23.16 C5.29 20.03, 8.85 14.53, 20.45 -0.37 M0.79 30.89 C11.34 16.97, 20.73 6.02, 25.93 0.64 M-0.11 29.81 C9.61 20.32, 20.47 7.86, 27.11 -0.48 M-1.43 37.23 C8.67 28.08, 14.87 20.05, 32.44 0.73 M-0.19 37.47 C8.3 24.94, 19.46 13.42, 31.65 -0.03 M-1.73 44.14 C10.95 30.1, 25.17 14.18, 37.24 0.47 M0.05 43.24 C13.06 29.83, 23.79 15.58, 37.81 0.21 M-1.05 47.28 C10.78 35.59, 24.12 20.58, 41.3 1.15 M0.64 48.8 C16.67 29.9, 32.56 11.78, 41.77 -0.11 M1.5 54.52 C19.01 34.83, 33.9 15.87, 48.52 1.97 M-0.43 54.76 C19.65 34.34, 36.8 13.15, 48.22 0.84 M-1.29 62.65 C21.58 36.08, 39.83 15.36, 54.37 0.6 M0.81 60.41 C13.23 45.1, 26 31.13, 52.89 0.72 M-0.68 66.7 C21.33 44.14, 46.41 17.36, 60 1.85 M0.26 68.1 C19.37 45.87, 38.49 23.87, 58.66 0.74 M1.33 72.81 C25.7 45.83, 48.77 18.23, 64.85 -1.71 M1.04 73.23 C21.32 47.31, 44.12 22.67, 64.09 -0.71 M2.14 78.4 C21.29 59.66, 36.26 37.94, 68.82 -1.13 M-0.45 79.43 C16.94 60.33, 32.2 41.5, 69.5 -0.3 M4.46 79.22 C18.81 62.73, 35.4 45.82, 72.86 1.53 M5.3 78.66 C32.33 47.65, 59.53 17.53, 73.51 -0.13 M9.88 79.84 C34.15 54.38, 55.97 29.35, 81.1 1.85 M10.47 78.84 C35.94 49.56, 62.42 21.29, 79.14 -0.01 M17.45 79.45 C44.29 48.45, 73.5 15.05, 85.47 1.66 M16.37 78.6 C38.04 53.05, 59.68 28.48, 84.32 0.21 M23 78.47 C38.78 61.13, 54.33 39.58, 91.86 1.68 M22.74 79.03 C43.75 54.47, 66.56 28.56, 90 0.35 M25.33 79.2 C47.5 59.4, 67.08 36.4, 96.69 -1.88 M25.81 79.43 C50.09 51.51, 73.27 24.95, 94.7 -0.45 M30.76 78.44 C55.42 52.99, 76.87 23.84, 101.08 -0.68 M32.91 78.86 C48.92 61.04, 64.29 43.44, 100.56 -0.01 M39.33 80.14 C59.63 52.72, 81.95 25.91, 107.45 -1.63 M36.45 77.98 C57.95 54.88, 77.69 33.23, 105.89 0.56 M41.35 79.99 C64.12 56.64, 82.24 31.77, 109.66 1.77 M42.58 78.63 C57.22 63.44, 69.86 47.44, 111.29 0.56 M47.6 78.05 C68.54 53.23, 94.46 24.78, 116.97 -1.27 M47.16 79.56 C65.68 59.5, 82.79 39.71, 115.49 0.15 M53.89 79.41 C67.45 61.81, 81.09 46.43, 123.45 -1.89 M54.39 78.12 C71.55 56.92, 90.03 36.3, 122.72 0.23 M59.24 78.76 C83.81 47.64, 110.13 17.35, 125.39 1.28 M58.83 77.94 C83.26 48.57, 108.97 20.51, 126.08 0.45 M62.46 77.05 C77.45 62.01, 91.78 48.4, 133.24 -0.52 M63.99 78.59 C78.35 62.11, 92.85 46.01, 133.41 -0.4 M68.29 78.14 C87.88 58.8, 104.42 42.19, 137.79 -1.55 M68.39 79.34 C83.73 61.28, 100.43 42.69, 137.35 -0.69 M76.05 77.35 C102.26 47.83, 126.97 17.13, 142.75 -0.93 M74.09 78.76 C99.86 50.1, 124.46 23.13, 143.93 -0.26 M81.72 78.16 C94.65 60.49, 108.8 47.06, 146.87 1.97 M80.8 78.48 C98.34 58.49, 114.53 37.33, 148.62 -0.72 M85.95 77.53 C104.52 56.12, 123.26 34.93, 152.63 0.15 M85.75 79.57 C110.9 47.26, 138.29 17.41, 152.9 0.21 M91.43 78.81 C109.12 55.2, 131.59 33.72, 160.27 -0.36 M91.06 78.52 C113.24 53.76, 134.81 28.64, 158.3 0.41 M96.34 80.62 C121.37 47.11, 149.75 15.31, 164.48 0.06 M95.04 79.17 C118.31 52.26, 141.62 25.63, 164.98 -0.98 M102.28 78.19 C127.48 53.06, 151.67 25.19, 168.53 -0.69 M102.17 79.12 C125.14 49.99, 149.56 23.44, 169.79 0.19 M104.4 80 C122.35 60.14, 142.14 38.9, 176.85 -1.84 M107.09 79.44 C131.53 48.88, 156.31 20.14, 174.83 0.67 M112.04 80.42 C126.65 63.86, 140.04 45.75, 181.17 0.9 M111.21 78.37 C134.17 52.31, 156.71 26.17, 179.53 -0.41 M114.87 80.32 C141.5 47.97, 167.47 18.48, 185.19 -0.08 M116.73 78.98 C143.36 45.99, 170.83 15.69, 185.17 0.09 M123.45 79.7 C145.3 50.22, 171.45 19.32, 190.63 0.39 M123.24 78.86 C139.47 58.66, 157.36 37.33, 190.99 1.05 M127.43 78.33 C150.32 56.91, 167.58 33.46, 197.92 0.84 M127.79 79.84 C147.76 54.22, 168.21 31.99, 196.74 0.73 M132.15 80.31 C145.77 59.57, 163.46 42.7, 200.28 1.83 M133.39 77.64 C147.56 63.11, 160.21 46.91, 200.7 0.48 M136.73 78.8 C162.41 52.78, 183.5 25.31, 207.73 -0.74 M137.16 79.57 C156.41 57.66, 175.89 35.94, 205.65 1.21 M142.75 76.56 C158.92 58.47, 177.98 40.95, 207.2 7.35 M142.81 78.22 C161 58.87, 178.76 39.04, 206.93 5.3 M148.33 78.61 C162.73 63.96, 174.75 45.45, 207.72 13.38 M148.76 79.16 C165 57.76, 184.24 37.93, 205.53 12.48 M152.78 76.84 C174.63 58.39, 190.76 36.27, 208.63 17.14 M154.67 78.59 C166.91 63.06, 179.98 50.11, 206.25 18.35 M158.72 78.66 C175.3 59.39, 189.49 41.65, 206.95 25.58 M159.52 79.08 C171.43 64.47, 185.67 48.54, 207.04 24.04 M164.7 79.6 C180.96 61.4, 192.62 46.94, 205.35 30.13 M164.18 79.21 C176.34 63.68, 188.71 51.11, 206.86 30.66 M171.35 79.95 C182.61 63.65, 197.42 48.17, 205.58 35.62 M169.43 79.28 C178.57 68.13, 186.99 58.38, 207.06 37.19 M173.94 77.36 C182.6 67.45, 191.44 59.7, 205.81 41.12 M176.58 79 C185.7 68.11, 193.95 56.7, 206.7 42.5 M180.59 79.5 C188.81 69.66, 196.15 62.86, 208.7 49.33 M181.49 79.16 C186.6 71.55, 191.66 65.73, 206.47 47.69 M184.84 76.68 C191.38 72, 196.98 66.02, 207.42 55.21 M187.15 79.34 C192.43 71.4, 199.53 61.73, 206.77 55.88 M191.77 78.44 C193.93 74.85, 198.64 71.84, 205.7 63.34 M191.74 79.6 C196.47 73.67, 201.02 67.59, 205.56 60.54 M197.66 79 C198.91 73.66, 203.13 68.92, 207.09 68.47 M196.46 78.92 C199.52 74.79, 204.36 70.29, 205.96 67.42 M201.6 78.46 C203.66 76.75, 204.62 76.08, 205.89 73.69 M201.64 78.81 C203.11 77.31, 204.83 75.45, 206.5 73.27" stroke="#fa5252" stroke-width="0.5" fill="none"></path><path d="M0.39 -0.13 C58.4 0.67, 119.25 -0.5, 206.95 -0.81 M0.03 -0.43 C56.2 -0.21, 114.09 -0.57, 207.15 0.37 M208.04 -1.36 C205.86 16.67, 206.11 33.58, 207.48 78.25 M207.15 0.68 C206.2 24.27, 205.42 49.17, 206.41 77.9 M205.55 79.1 C134.16 77.86, 60.12 78.73, 0.72 77.28 M206.03 77.86 C165.05 79.59, 121.93 78.98, -0.18 78.92 M0.27 79.68 C-0.72 51.91, 1.39 21.58, 1.33 -1.24 M-0.9 78.43 C1.25 59.96, 0.38 41.93, -0.01 0.4" stroke="#000000" stroke-width="1" fill="none"></path></g><g transform="translate(59.19999694824219 200.79998779296875) rotate(0 54 14)"><text x="54" y="21" font-family="Virgil, Segoe UI Emoji" font-size="20px" fill="#000000" text-anchor="middle" style="white-space: pre;" direction="ltr">父 mounted</text></g><g stroke-linecap="round"><g transform="translate(987.8287702287946 91.22849382672996) rotate(0 -0.10024224762332778 39.21607918853141)"><path d="M1.07 0.2 C0.94 13.53, -0.2 65.88, -0.21 79.17 M0.17 -0.73 C-0.18 12.28, -1.37 64.05, -1.27 77.21" stroke="#000000" stroke-width="1" fill="none"></path></g><g transform="translate(987.8287702287946 91.22849382672996) rotate(0 -0.10024224762332778 39.21607918853141)"><path d="M-10.91 48.56 C-7.46 60.28, -2.71 67.84, 0.72 76.03 M-10.71 48.15 C-8.88 53.79, -6.36 60.71, -0.35 77.74" stroke="#000000" stroke-width="1" fill="none"></path></g><g transform="translate(987.8287702287946 91.22849382672996) rotate(0 -0.10024224762332778 39.21607918853141)"><path d="M9.61 48.77 C5.95 60.6, 3.61 68.08, 0.72 76.03 M9.81 48.36 C7.52 53.77, 5.94 60.65, -0.35 77.74" stroke="#000000" stroke-width="1" fill="none"></path></g></g><g stroke-linecap="round"><g transform="translate(874.6857212611608 211.22851562500006) rotate(0 -37.76674684597316 -0.17694901329036838)"><path d="M-0.83 0.61 C-13.38 0.86, -62.89 0.66, -75.49 0.68 M0.93 -0.11 C-11.76 -0.15, -63.97 -0.91, -76.46 -1.09" stroke="#000000" stroke-width="1" fill="none"></path></g><g transform="translate(874.6857212611608 211.22851562500006) rotate(0 -37.76674684597316 -0.17694901329036838)"><path d="M-47.11 -11.04 C-55.03 -10.01, -62.89 -5.39, -74.82 -1.93 M-47.37 -10.02 C-55.07 -8.34, -60.06 -7.21, -76.77 -1.47" stroke="#000000" stroke-width="1" fill="none"></path></g><g transform="translate(874.6857212611608 211.22851562500006) rotate(0 -37.76674684597316 -0.17694901329036838)"><path d="M-47.41 9.48 C-55.11 4.74, -62.89 3.59, -74.82 -1.93 M-47.66 10.5 C-55.35 7.5, -60.28 3.96, -76.77 -1.47" stroke="#000000" stroke-width="1" fill="none"></path></g></g><g stroke-linecap="round"><g transform="translate(584.4000767299107 214.65707833426342) rotate(0 -37.71618074536519 0.7670847264910208)"><path d="M1.02 1.04 C-11.45 1.1, -62.77 0.12, -75.48 0 M0.1 0.54 C-12.49 0.83, -63.78 1.33, -76.46 1.54" stroke="#000000" stroke-width="1" fill="none"></path></g><g transform="translate(584.4000767299107 214.65707833426342) rotate(0 -37.71618074536519 0.7670847264910208)"><path d="M-46.66 -9.17 C-55.42 -5.93, -61.89 -4.51, -75.02 -0.19 M-48.56 -8.99 C-54.77 -5.95, -60.82 -3.9, -77.37 0.77" stroke="#000000" stroke-width="1" fill="none"></path></g><g transform="translate(584.4000767299107 214.65707833426342) rotate(0 -37.71618074536519 0.7670847264910208)"><path d="M-46.4 11.35 C-55.17 9.47, -61.7 5.78, -75.02 -0.19 M-48.3 11.53 C-54.76 9.91, -60.87 7.32, -77.37 0.77" stroke="#000000" stroke-width="1" fill="none"></path></g></g><g stroke-linecap="round"><g transform="translate(299.93815897309355 215.79991803850453) rotate(0 -40.522457645441676 0.0831317596603185)"><path d="M0.11 -0.16 C-13.3 -0.27, -66.93 -0.28, -80.17 -0.05 M-1.29 -1.29 C-14.88 -1.25, -68.08 1.33, -81.15 1.46" stroke="#000000" stroke-width="1" fill="none"></path></g><g transform="translate(299.93815897309355 215.79991803850453) rotate(0 -40.522457645441676 0.0831317596603185)"><path d="M-53.57 -9.79 C-62.3 -4.83, -69.22 -3.22, -82.8 -0.04 M-53.81 -10.3 C-59.98 -6.51, -67.8 -3, -81.13 2.27" stroke="#000000" stroke-width="1" fill="none"></path></g><g transform="translate(299.93815897309355 215.79991803850453) rotate(0 -40.522457645441676 0.0831317596603185)"><path d="M-52.93 10.72 C-61.96 9.08, -69.09 4.09, -82.8 -0.04 M-53.17 10.21 C-59.62 8.34, -67.62 6.19, -81.13 2.27" stroke="#000000" stroke-width="1" fill="none"></path></g></g></svg>