<svg version="1.1" xmlns="http://www.w3.org/2000/svg" viewBox="0 0 1098.4000244140625 98.39996337890625" width="1098.4000244140625" height="98.39996337890625">
  <!-- svg-source:excalidraw -->
  
  <defs>
    <style>
      @font-face {
        font-family: "Virgil";
        src: url("https://excalidraw.com/Virgil.woff2");
      }
      @font-face {
        font-family: "Cascadia";
        src: url("https://excalidraw.com/Cascadia.woff2");
      }
    </style>
  </defs>
  <g stroke-linecap="round" transform="translate(10 10) rotate(0 103.19999694824219 39.199981689453125)"><path d="M0 0 C0 0, 0 0, 0 0 M0 0 C0 0, 0 0, 0 0 M-0.16 6.21 C1.11 4.22, 2.08 3.81, 5.47 0.48 M0 6.47 C0.67 5, 2.05 3.2, 4.82 0.34 M0.55 13.06 C2.23 7.78, 6.01 5.55, 10.63 -1.07 M0.24 12.27 C3.52 9.05, 6.33 4.89, 11.05 0.71 M-1.42 19.24 C2.51 13.03, 9.98 8.59, 13.74 1.23 M-0.79 19.43 C4.96 12.02, 8.48 6.33, 16.5 0.75 M0.76 22.38 C5.95 14.63, 12.3 10.24, 22.29 0.27 M-0.4 23.29 C5.29 19.43, 8.84 13.31, 21.46 -0.15 M0.95 29.62 C7.21 23.32, 13.09 16.58, 25.45 -1.66 M-0.85 30.69 C9.5 19.76, 18.71 9.38, 25.37 1.28 M-1.12 38.15 C9.1 28.53, 17.51 15.55, 30.65 -2.1 M-0.9 37.75 C6.27 29.67, 13.53 19.84, 30.95 0.57 M0.92 41.08 C8.47 34.67, 17.35 25.2, 36.92 -1.27 M-0.02 41.54 C9.8 30.82, 19.94 20.87, 36.79 1 M0.71 49.09 C11.46 36.61, 21.56 26.4, 42.84 -0.74 M-0.68 49.65 C13.13 33.66, 26.88 17.07, 42.24 -1.09 M-1.61 56.55 C8.96 42.15, 20.58 31.81, 47.83 2.03 M-0.07 54.22 C12.66 40.38, 23.94 27.33, 47.86 1.03 M1.99 62.87 C15.88 40.63, 34.82 21.62, 52.08 -1.02 M0.33 61.25 C19.63 37.17, 40.98 14.47, 52.39 -0.25 M-1.36 66.66 C23.56 42.83, 43.76 15.41, 57.9 0.86 M-0.95 66.72 C15.55 50.06, 30.14 33.98, 57.14 0.51 M-0.78 71.32 C17.63 52.4, 31.82 37.14, 65.62 -1.39 M0.32 72.07 C13.57 57.83, 26.26 42.05, 62.97 -0.99 M-0.34 77.96 C13.24 61.15, 28.91 45.34, 66.93 0.74 M0.48 79.08 C17.72 56.25, 35.58 36.53, 68.67 0.61 M6.18 77.2 C22.43 58.57, 40.92 41.09, 72.79 -1.33 M6.2 79.61 C24.83 57.38, 42.92 36.76, 73.98 -0.39 M12.06 80.41 C33.75 50.87, 57.93 25.1, 78.77 0.14 M10.4 78.79 C26.37 60.42, 42.1 42.17, 79.95 0.56 M15.48 78.24 C39.42 50.54, 62.99 22.05, 84.97 -1.41 M17.09 79.47 C30.2 60.62, 44.66 44.97, 85.92 -0.45 M22.12 80 C37.1 63.21, 51.76 48.11, 89.35 -1.51 M21.07 79.54 C45.92 50.71, 70.92 22.81, 89.94 -0.41 M26.54 79.11 C44.37 60.51, 63.5 38.98, 95.62 0.75 M26.34 79.3 C46.98 56.07, 66.69 31.78, 95.73 -0.17 M32.04 78.37 C54.98 57.06, 75.58 31.72, 102.64 0.11 M33.07 78.71 C57.18 49.21, 84.31 19.12, 101.09 0.96 M36.09 79.43 C58.73 56.21, 78.87 30.63, 108.25 -1.53 M38.01 78.75 C62.14 49.89, 86.47 21.59, 106.84 0.48 M42.1 80.08 C65.65 52.16, 88.92 27.11, 110.68 -1.7 M43.45 78.7 C67.13 52.87, 88.34 27.84, 111.3 0 M48.92 79.72 C66.08 56.7, 83.38 37.1, 115.77 0.75 M47.64 79.48 C67.56 57.23, 85.4 36.77, 116.49 1.32 M54.62 76.64 C79.05 51, 100.7 22.95, 121.6 -0.73 M53.73 78.95 C77.34 50.54, 101.79 22.54, 121.95 0.02 M57.9 77.46 C82.47 51.04, 108.97 18.63, 127.15 1.28 M58.23 79.22 C78.75 57.04, 97.79 33.95, 126.36 0.96 M65.98 78.48 C84.83 55.6, 105.87 29.64, 131.54 -1.8 M63.9 77.96 C83.34 57.13, 100.06 35.11, 131.88 0.4 M67.94 79.06 C90.85 51.75, 114.15 24.98, 139.41 -1.07 M70.24 79.71 C88.22 56.59, 108.17 35.11, 136.6 1.27 M74.63 78.99 C99.42 48.96, 122.21 21.02, 144.76 -0.83 M74.4 79.21 C90.5 59.03, 106.13 40.16, 143.42 0.53 M80.02 79.87 C95.68 60.68, 115.62 41.95, 148.33 -1.22 M79.62 78.71 C101.11 54.67, 122.74 30.47, 148.53 0.42 M84.44 79.23 C112.03 49.79, 133.24 20.22, 153.53 -0.79 M85.52 80.01 C102.97 56.14, 124.33 34.19, 154.34 -0.16 M91.19 80.16 C109.88 55.23, 131.73 33.24, 159.73 0.83 M89.78 78.03 C106.8 59.16, 125.53 37.87, 157.9 -0.4 M95.28 80.94 C117.57 53.82, 143.47 26.72, 166.21 0.3 M95.94 78.41 C122.84 48.95, 146.78 19.47, 163.89 -0.21 M102.56 77.16 C121.09 54.53, 145.47 29.96, 169.5 0.01 M101.59 79.5 C126.71 48.67, 153.11 19.19, 168.97 1.04 M107.14 79.08 C125.27 57.66, 142.85 38.23, 175.23 1.36 M106.87 79.77 C129.95 50.74, 154.16 23.23, 174.79 -0.13 M111.28 77.02 C135.05 52.27, 156.76 24.44, 179.58 -1.79 M111.39 79 C137.18 48.96, 161.26 19.33, 180.42 -0.01 M118.72 78.77 C134.95 58.4, 151.74 39.56, 185.07 -1.78 M116.65 79.71 C142.92 50.21, 167.62 21.28, 185.24 -0.4 M122.6 78.86 C143.43 53.47, 167.02 26.33, 190 0.24 M123 78.41 C143.77 55.22, 163.45 29.97, 191.43 0.74 M126.79 80.07 C154.05 51.34, 176.49 19.96, 196.27 -0.34 M128.08 78.91 C144.72 58.22, 163.23 36.14, 196.88 0.54 M133.8 78.69 C158.45 45.69, 185.06 14.47, 202.82 1.85 M133.71 77.66 C152.73 57.99, 171.11 36.9, 201.65 0.61 M138.16 77.99 C151.42 60.47, 167.53 43.42, 204.78 0.18 M138.41 79.05 C154.45 61.17, 168.92 42.98, 206.2 1.03 M142.25 77.5 C169.06 52.49, 192.32 23.65, 204.93 7.77 M144.26 78.72 C164.85 53.41, 187.57 28.31, 205.93 5.99 M149.73 78.47 C168.14 56.6, 191.27 31.67, 206.08 12.98 M149.39 78.87 C167.11 57.29, 185.83 34.94, 206.6 13.24 M153.36 77.18 C173.11 59.53, 188.9 38.11, 206.54 19.63 M154.88 77.57 C165.4 64.75, 176.35 51.38, 206.87 18.25 M160.44 78.38 C173.67 62.16, 188.74 45.47, 206.75 26.35 M159.22 78.11 C172.28 62.79, 187.37 45.51, 205.98 25.5 M164.62 76.6 C178.16 63.88, 193.26 48.41, 204.5 32.71 M165.24 78.24 C180.24 59.14, 197.84 41.75, 206.09 30.53 M171.31 77.55 C178.25 69.11, 188.41 57.66, 207.58 36.83 M170.57 79.56 C177.09 69.02, 185.74 61.28, 205.89 37.5 M177.56 79.52 C186.95 67.41, 198.52 52.04, 206.44 41.01 M176.52 78.78 C187.21 65.72, 196.67 52.72, 206.42 42.77 M181.42 78.72 C187.71 69.42, 195.24 58.83, 205.43 49.87 M180.59 79.05 C186.89 70.34, 194.17 63.07, 207.31 48.94 M185.8 78.68 C192.39 71.45, 200.49 61.02, 208.11 55.72 M185.34 79.28 C189.94 73.75, 195.38 68.6, 207.21 54.18 M191.89 79.59 C197.47 73.33, 200.81 68.91, 204.55 60.65 M190.88 79.43 C196.51 73.49, 202.25 67.09, 206.07 62.31 M194.72 80.21 C197.3 77.01, 201.55 74.12, 207.7 66.38 M196.95 78.7 C198.75 75.52, 202.14 73.64, 206.85 66.44 M201.88 78.06 C203.74 76.8, 206.12 74.94, 206.73 74 M201.74 78.68 C203.92 76.73, 205.1 74.7, 206.78 73.61" stroke="#fa5252" stroke-width="0.5" fill="none"></path><path d="M-1.69 0.24 C55.16 -0.57, 109 -0.99, 207.03 1.06 M0.87 -0.12 C71.78 -0.5, 142.73 -0.21, 205.95 -0.42 M208.08 -1.14 C208.7 25.39, 208.31 52.44, 208.11 76.9 M206.3 0.11 C206.34 17.7, 205.01 37.21, 206.97 77.57 M205.98 80.08 C140.34 76.58, 75.88 79.08, 1.62 77.94 M206.88 79.29 C150.01 77.17, 92.35 77.11, 0.54 78.4 M1.81 76.65 C0.68 57.7, 1.53 37.87, 0.89 -1.56 M-0.22 77.99 C-0.43 54.15, -0.03 29.05, -0.97 0.55" stroke="#000000" stroke-width="1" fill="none"></path></g><g transform="translate(32.19999694824219 35.199981689453125) rotate(0 81 14)"><text x="81" y="21" font-family="Virgil, Segoe UI Emoji" font-size="20px" fill="#000000" text-anchor="middle" style="white-space: pre;" direction="ltr">父 beforeUpdate</text></g><g stroke-linecap="round" transform="translate(300.6666768391927 10) rotate(0 103.19999694824219 39.199981689453125)"><path d="M0 0 C0 0, 0 0, 0 0 M0 0 C0 0, 0 0, 0 0 M-0.18 5.74 C1.47 4.55, 4.15 1.99, 4.44 -0.1 M-0.58 6.41 C1.21 4.09, 2.85 2.56, 4.98 0.42 M-0.89 11.31 C1.96 10.04, 4.6 5.77, 10.31 0.16 M0.59 12.53 C4.6 6.95, 8.83 3.2, 10.38 0.61 M-1.57 18 C7.6 11.68, 9.74 5.9, 15.79 2.06 M0.26 17.73 C4.87 10.76, 12.55 5.28, 15.75 0.15 M-0.67 22.12 C4.67 19.02, 12.45 11.7, 19.6 1.88 M0.97 24.77 C7.44 15.64, 15.26 7.34, 20.66 -0.3 M0.83 30.54 C7.77 22.53, 14.09 11.37, 27.2 1.51 M0.56 30.18 C8.05 22.03, 13.69 14.96, 25.98 -0.4 M0.04 38.74 C10.33 23.58, 19.69 10.48, 30.29 0.83 M-0.63 37.66 C8.02 26.22, 15.49 18.36, 31.09 0.37 M0.59 44.27 C15.21 28.27, 28.01 9.06, 36.04 -0.83 M0.08 41.77 C12.24 29.95, 22.99 17.32, 36.27 0.25 M1.24 48.36 C13.61 35.26, 25.38 19.08, 43.03 0.66 M-0.56 49.56 C11.67 34.71, 24.05 19.84, 41.66 0.45 M-0.83 54.04 C17.97 35.56, 34.68 17.28, 46.58 -0.39 M0.52 54.53 C17.96 34.78, 36.69 14.26, 47.66 0.51 M-0.71 59.54 C13.01 45.33, 22.65 31.63, 54.62 -2.1 M-0.81 60.02 C16.49 41.59, 31.06 23.91, 53.91 -0.41 M1.48 68.39 C21.03 42.34, 41.7 20.13, 57.13 -1.67 M0.36 67.25 C22.69 43.18, 42.9 17.8, 57.67 -0.18 M1.25 71.04 C19.88 51.6, 42.74 25.85, 61.92 -1.97 M-0.24 72.86 C17.04 52.24, 34.98 31.64, 62.83 -0.48 M-0.92 77.77 C27.37 48.08, 51.51 19.1, 68.09 1.78 M0.22 77.76 C26.8 47.76, 54.12 17.11, 68.28 0.65 M5.53 78.51 C27.68 57.15, 46.05 29.74, 73.84 -0.55 M6.01 78.88 C25.47 55.65, 45.77 31.03, 74.89 -0.02 M10.17 78.04 C29.14 57.25, 47.99 34.54, 77.9 -0.67 M10.7 78.36 C34.81 51.04, 58.59 25.7, 79.94 0.51 M15.31 78.58 C34.72 55.43, 56.36 32.06, 83.36 1.51 M16.02 77.98 C37.84 52.66, 62.29 25.53, 84.05 -1.27 M22.64 79.11 C45.65 53.77, 65.29 25.52, 91.08 -0.71 M21.53 78.52 C44.69 52.74, 65.59 27.59, 89.59 -0.05 M26.61 80.85 C49.05 55.56, 68.56 31.93, 95.54 0.5 M27.09 79.1 C45.35 56.62, 64.02 36.46, 95.69 -0.41 M34.29 80.52 C52.43 58.24, 70.54 37.26, 102.21 0.92 M31.75 78.43 C48.73 59.31, 64.62 42.22, 100.61 0.53 M38.76 79.82 C61.81 51.31, 85.33 25.25, 107.47 1.63 M38.24 78.18 C56.99 55.85, 76.65 34.77, 106.71 0.38 M42.98 78.73 C62.3 58.13, 80.63 32.76, 111.92 -1.59 M43.86 78.28 C56.31 62.85, 71.12 45.73, 110.86 0.84 M49.15 76.94 C69.18 53.52, 88.5 31.43, 115.67 -0.17 M48.96 78.2 C67.35 57.04, 85.85 36.52, 116.78 -0.28 M54.61 79.16 C78.89 48.29, 106.84 16.46, 122.92 0.89 M53.83 78.32 C77.99 50.27, 100.94 23.82, 122.68 0.52 M57.21 80.58 C78.79 54.66, 100.11 33.2, 126.68 0.68 M59.19 79.17 C74.25 60.81, 89.18 43.87, 127.04 0.01 M63.18 80.15 C82.16 55.81, 102.62 30.7, 131.95 0.42 M65.09 78.82 C88.91 49.34, 114.41 21.2, 132.86 0.24 M68.48 78.06 C93.32 50.04, 118.91 23.04, 137.14 0.96 M69.36 78.13 C85.46 59.61, 99.6 42.36, 138.11 -0.08 M74.72 76.99 C93.4 53.72, 116.98 31.05, 141.86 0.01 M74.56 78.09 C101.83 45.76, 130.01 15.89, 142.67 -0.32 M78.52 79.63 C96 63.31, 109.18 43.41, 148.4 1.65 M80.37 79.13 C101.34 56.02, 121.28 32.09, 148.74 -0.58 M86.7 78.66 C109.15 47.85, 136.25 19.27, 153.53 1.6 M83.95 79.2 C109.76 50.98, 134.24 21.8, 153.84 -0.42 M88.97 78.48 C104.97 62.43, 121.42 44.13, 157.89 0.66 M89.57 79.29 C113.24 53.5, 133.73 28.6, 159.16 0.49 M94.58 80.79 C121.03 52.55, 144.7 24.54, 165.9 -1.95 M96.42 79.03 C120.08 50, 146.16 20.3, 164.58 -0.32 M99.53 78.74 C117.95 60.93, 132.76 42.18, 171.09 0.83 M100.8 78.74 C121.04 55.44, 141.02 32.28, 169.05 1.16 M107.95 78.26 C125.61 58.28, 143.07 37.91, 176 1.2 M106.63 78.73 C132.39 48.31, 157.29 18.88, 175.56 0.78 M111.96 79.47 C128.26 58.68, 148 35.35, 181.54 1.95 M112.35 78.63 C134.62 51.23, 159.31 24.44, 179.57 -0.51 M117.09 78.08 C133.92 58.4, 151.68 35.85, 186.89 -2.21 M117.37 78.71 C138.17 53.94, 157.97 30.64, 185.93 0.69 M122.09 78.68 C142.5 55.07, 159.56 35.11, 190.85 0.75 M122.99 79.16 C139.27 57.48, 158.85 37.88, 191.35 -0.45 M128.37 80.23 C145.31 55.1, 166.54 33.79, 195.71 1.51 M126.87 79.44 C145.81 56.34, 166.45 35.03, 197.29 0.27 M131.81 77.31 C156.48 47.96, 185.11 21.86, 200.68 -1.13 M133.95 79.55 C159.15 50.68, 184.14 20.81, 200.47 -0.54 M136.2 77.62 C160.19 51.78, 181.8 26.89, 205.02 1.75 M138.88 79.41 C154.83 59.13, 173.39 38.4, 207.08 0.15 M145.06 79.24 C158 63.22, 168.3 50.85, 207.52 4.96 M142.95 78.07 C162.17 56.44, 179.33 36.04, 207.27 5.4 M147.06 80.1 C164.45 61.52, 178.43 44.53, 206.88 12.64 M148.56 79.14 C170.19 52.96, 192.3 29.19, 206.64 11.8 M155.87 79.28 C174.84 54.88, 193.79 34.99, 205.16 18.54 M154.15 78 C170.91 58.08, 189.07 38.86, 206.76 17.56 M159.51 78.45 C178.17 57.39, 194.7 39.99, 206.46 25.35 M158.59 79.19 C178.01 57.37, 195.15 38.41, 206.85 23.86 M164.29 79.18 C175.49 68.69, 182.37 58.65, 208.06 30.81 M164.19 77.66 C178.98 63.47, 191.29 47.51, 206.05 30.86 M168.14 80.39 C175.8 71.72, 186.27 61.25, 205.15 37.34 M169.08 78.14 C177.55 70.05, 185.36 60.56, 207.18 37.3 M176.48 79.64 C185.19 67, 191.66 57.46, 207.44 41.67 M176.19 78.39 C186.41 64.05, 198.99 50.84, 206.41 42.04 M179.62 78.58 C188.95 65.8, 198.5 57.71, 206.4 48.97 M179.64 78.6 C186.21 72.1, 194.23 63.93, 207.59 48.12 M184.63 80.28 C191.66 71.12, 200.84 64.12, 204.62 54.22 M185.73 78.59 C194.36 69.84, 201.27 61.08, 206.64 54.11 M192.69 78.62 C195.65 74.52, 198 68.07, 207.06 60.32 M191.32 79.23 C195.34 74.78, 197.67 71.94, 205.85 62.12 M194.72 80.16 C200.42 75.66, 205.32 69.18, 205.87 67.6 M196.19 78.56 C200.51 75.54, 203.53 70.2, 207.44 67.32 M201.95 78.85 C203.65 77.82, 204.36 76.77, 207 72.99 M202.14 78.72 C202.93 77.18, 204.87 75.84, 206.35 73.6 M-0.33 78.11 C-0.33 78.11, -0.33 78.11, -0.33 78.11 M-0.33 78.11 C-0.33 78.11, -0.33 78.11, -0.33 78.11 M5.41 78.62 C4.38 76.75, 1.24 74.58, -0.08 73.47 M5.74 77.98 C4.47 77.2, 3.16 76.37, 0.29 73 M12.19 79.76 C8.64 76.55, 6.36 73.65, 0.33 67.8 M12.68 79.41 C9.18 76.19, 5.31 72.68, -0.44 67.28 M16.67 79.43 C11.5 72.17, 7.28 70.92, -1.19 64.05 M18.8 78.58 C12.05 71.95, 4.64 65.65, 0.18 63.18 M24.8 80.26 C17.56 71.68, 11.22 65.3, -1.48 59.36 M24.98 77.92 C19.61 74.88, 14.4 69.64, -0.45 58.25 M30.05 77.48 C17.99 69.91, 10.43 61.85, 0.63 51.73 M30.42 78.86 C19.22 70.32, 9.51 61.44, 0.55 52.43 M37.36 78.95 C23.79 66.74, 6.72 54.57, 0.49 45.69 M35.71 79.13 C25.74 68.71, 14.04 58.56, -0.11 47.31 M44.38 80.09 C31.08 69.33, 17.21 60.38, 1.03 43.02 M43.26 77.65 C33.07 68.25, 20.37 59.97, 0.58 40.77 M50.4 77.27 C36.3 67.86, 23.14 55.36, 1.47 35.47 M49.29 77.75 C34.77 65.6, 21.61 55.53, -0.43 35.57 M53.23 77.15 C32.79 59.3, 13.31 42.96, 1.88 30.84 M55.71 78.49 C38.07 62.76, 20.27 48.21, -0.51 31.41 M62.55 79.42 C39.88 62.26, 20.63 45.12, -0.12 25.62 M60.59 77.37 C46.22 67.14, 34.29 55.57, 0.31 25.5 M68.54 77.49 C52.66 66.29, 36.29 51.41, -0.85 19.09 M67.86 78.89 C47.17 60.3, 27.25 44.8, -1 20.61 M75.27 77.19 C58.65 64.83, 39.73 48.83, 2.19 13.98 M73.69 79.28 C56.98 64.05, 43.2 51.45, -0.71 15.63 M77.54 78.19 C60.06 61, 39.52 45.87, -1.16 10.57 M78.51 77.76 C48.33 52.58, 20.43 26.41, -0.73 9.66 M85.81 79.32 C56.87 55.52, 30.91 32.19, -1.04 3.34 M84.89 77.83 C67.97 63.4, 50.57 48.6, 1.17 4.52 M91.52 77.31 C64.74 56.47, 41.47 33.48, 1.79 -0.3 M91.97 78.02 C60.4 53.66, 30.6 27.25, -0.29 -0.47 M95.75 79.47 C68.76 53.33, 40.15 27.22, 7.59 -0.68 M97.2 78.38 C74.19 58.82, 51.05 38.2, 6.87 -1.35 M102.59 78.46 C82.57 62.15, 60.66 43.17, 12.69 0.35 M104.73 79.28 C72.81 50.95, 40.16 23.53, 11.98 -1.25 M107.98 77.59 C83.45 56.06, 55.33 31.3, 17.22 1.26 M109.36 78.64 C78.6 50.56, 49.42 25.28, 18.49 -0.68 M116.66 80.24 C91.55 56.57, 64.18 35.06, 24.43 -1.69 M116.5 79.23 C94.83 60.67, 73.31 42.73, 24.35 -0.12 M123.46 76.55 C100.2 60.92, 78.29 40.78, 29.32 -1.82 M122.57 77.38 C93.25 54.03, 66.71 30.16, 31.79 -1.41 M129.97 80.15 C109.41 63.89, 91.41 46.93, 36.02 0.8 M128.72 77.55 C94.79 49.29, 62.98 20.95, 37.63 -1.03 M133.93 78.83 C107.16 56.52, 82 35.2, 42.67 0.61 M135.26 79.04 C104.65 52.38, 74.81 26.71, 43.31 -0.86 M138.06 79.98 C117.32 59.16, 94.16 37.73, 50.28 0 M139.56 77.28 C108.2 50.63, 78.47 25.38, 48.81 -0.85 M146.98 79.86 C116.24 53.81, 84.61 26.84, 56.13 0.02 M146.07 79.12 C121.02 55.41, 93.95 32.54, 55.06 -0.32 M152.55 78.45 C122.37 49.69, 88.79 21.13, 62.36 1.03 M152.65 77.51 C118.8 48.07, 86.13 20.69, 61.65 -1.43 M158.5 80 C135.74 58.74, 115.34 36.96, 69.38 1.47 M158.35 78.13 C124.67 49.5, 93.4 22.42, 67.25 -0.4 M165.84 79.87 C144.73 61.64, 128.24 47.33, 72.7 -0.76 M165.82 78.02 C144.06 60.22, 122.6 42.7, 73.59 -0.28 M169.68 77.86 C151.63 62.03, 130.89 45.68, 79.88 1 M171.2 78.95 C150.86 60.33, 131.07 44.26, 79.33 0.37 M176.16 79.53 C155.01 61.33, 135.75 42.16, 83.81 0.97 M176.14 78.63 C144.23 51.11, 112.14 22.56, 86.55 -1.85 M183.79 79.02 C149.06 51.2, 118.8 20.84, 91.44 -2.45 M182.15 77.49 C159.83 59.92, 137.78 40.5, 92.44 -0.56 M188.07 79.63 C169.15 58.45, 147.76 40.18, 97.04 0.12 M188.39 79.19 C158.53 53.1, 127.18 25.48, 97.69 -0.93 M194.91 76.63 C160.91 48.45, 124.84 18.1, 103.16 -1.66 M195.99 79.36 C166.85 52.48, 136.93 27.49, 104.47 -0.36 M201.42 78.62 C172.84 50.86, 141.69 26.31, 109.49 -0.44 M200.07 78.9 C165.2 48.15, 128.59 17.03, 110.36 -1.22 M208.15 76.17 C177.98 52.76, 152.4 29.64, 114.21 -0.47 M206.92 78.56 C185.53 57.73, 162.98 38.56, 116.76 -0.14 M206.09 74.67 C186.51 55.18, 165.61 39.73, 122.63 -0.92 M206.12 73.75 C179.31 48.34, 150.01 23.66, 122.63 -1.44 M207.17 67.48 C182.62 49.81, 163.18 26.51, 128.57 -1.12 M206.1 67.57 C184.17 47.05, 160.89 28.12, 128.88 -0.38 M206.06 64.14 C182.3 44.23, 158.73 22.89, 135.23 0.75 M206.98 63.02 C177.7 36.78, 149.88 12.91, 134.32 0.08 M206.79 57.73 C187.77 42.17, 167.82 24.9, 140.04 1.09 M206.27 56.27 C187.84 40.36, 169.07 24.91, 141.61 -1.43 M207.42 53.54 C192.58 39.52, 182.46 29.05, 148.1 -2.42 M206.59 51.25 C185.77 33.27, 163.29 15.01, 145.68 0.03 M204.59 47.16 C188.83 31.14, 166.81 11.97, 152.72 -2.19 M207.32 45.72 C191.7 32.53, 177 18.43, 153.44 0.3 M206.26 41.11 C186.31 25.61, 167.98 7.17, 160.89 -1.86 M206.32 41.79 C192.93 29.04, 180.46 16.84, 160.21 -1.21 M208.21 34.96 C192.5 24.14, 179.72 10.98, 166.04 0.95 M205.61 36.03 C193.26 23.12, 179.99 11.32, 165.61 -0.2 M206.76 30 C192.9 18.27, 181.32 8.39, 173.03 0.02 M207.03 29.99 C194.15 18.51, 179.46 5.58, 171.59 -0.2 M207.34 23.27 C195.74 13.62, 183.42 3.73, 175.46 -0.66 M205.97 24.32 C198.52 16.79, 189.8 10.81, 176.79 -1.89 M205.16 20.3 C198.81 14.21, 193.48 5.74, 184.31 -2.32 M207.02 19.26 C199.08 13.41, 193.71 7.1, 184.27 -0.49 M205.76 13.15 C200.06 8.27, 194.02 1.29, 189.3 -0.57 M205.7 14.77 C199.92 8.8, 193.97 3.37, 189.91 -1.07 M206 9.06 C204.06 6.71, 200.83 3.47, 195.71 -0.29 M206.26 9.03 C204.28 5.92, 201.58 4.64, 196.15 -1.14 M206.75 4.48 C206.18 2.7, 204.59 1.9, 201.79 -0.82 M207.2 3.77 C205.71 2.54, 203.39 0.88, 201.59 -0.33" stroke="#82c91e" stroke-width="0.5" fill="none"></path><path d="M0.35 -1.14 C54.92 -1.81, 111.67 0.81, 207.25 0.83 M0 0.34 C70.48 0.88, 142.16 -0.17, 206.75 0.38 M208.37 -1.18 C208.64 28.52, 208.77 56.94, 205.14 77.38 M206.74 -0.87 C205.33 16.19, 206.89 31.39, 206.56 78.26 M205.67 77.47 C154.66 81.71, 104.32 79.67, -0.46 77.51 M206.63 78.97 C163.84 80.73, 123.45 80.23, -0.38 78.14 M0.45 77.85 C0.59 54.87, 0.18 30.25, 0.17 1.84 M0.29 78.35 C0.87 60.03, -0.8 44.11, -0.78 -0.07" stroke="#000000" stroke-width="1" fill="none"></path></g><g transform="translate(322.8666737874348 35.199981689453125) rotate(0 81 14)"><text x="81" y="21" font-family="Virgil, Segoe UI Emoji" font-size="20px" fill="#000000" text-anchor="middle" style="white-space: pre;" direction="ltr">子 beforeUpdate</text></g><g stroke-linecap="round" transform="translate(591.3333536783853 10) rotate(0 103.19999694824219 39.199981689453125)"><path d="M0 0 C0 0, 0 0, 0 0 M0 0 C0 0, 0 0, 0 0 M-0.5 6.8 C1.66 4.89, 2.08 2.64, 5.12 0.88 M-0.41 6.01 C1.28 4.47, 3.11 2.63, 4.64 0.46 M-0.26 12.69 C4.03 6.66, 7.53 3.5, 12.15 0.19 M0.47 11.75 C3.94 8.74, 6.72 4.68, 11.18 -0.55 M1.67 18.43 C3.48 13.21, 10.89 7.89, 17.03 -1 M-1.09 17.63 C6.97 11.75, 12.49 3.92, 15.29 0.57 M-0.88 25.29 C5.92 19.44, 7.74 15.85, 22.23 -1.4 M-0.04 23.89 C4.94 18.52, 8.78 13.04, 21.12 0.4 M0.41 31.06 C5.83 20.76, 14.33 16.16, 25.7 -1.42 M0.64 30.31 C7.38 21.86, 16.41 10.5, 26.52 -0.14 M-0.34 35.88 C10.14 21.13, 21.47 10.61, 31 -1.4 M-0.44 35.96 C11.39 22.98, 23.97 8.47, 32.7 0.29 M1.38 44.11 C8.46 31.04, 15.96 21.85, 37.1 -0.07 M0.74 42.74 C7.5 34.99, 14.42 25.7, 36.85 0.67 M1.12 49.9 C13.03 33.29, 26.38 19.54, 42.19 -1.26 M-0.69 48.94 C15.74 29.37, 31.1 12.57, 43.07 -1.08 M0.67 55.34 C19.75 34.8, 37.35 10.68, 49.1 -0.47 M-0.17 55.25 C13.03 40.96, 25.37 26.01, 46.8 1.21 M1.46 59.82 C20.17 36.31, 43.73 11.06, 53.17 0.46 M0.68 60.15 C17.26 41.24, 36.28 20.94, 53.73 -0.72 M-0.25 66.19 C14.41 49.92, 29.11 29.6, 59.62 -1.22 M0.38 67.93 C12.14 51.87, 26.46 35.31, 58.31 -0.27 M-0.67 74.31 C15.33 56.62, 25.38 40.21, 63.4 0.15 M-0.73 72.23 C12.77 57.16, 25.79 42.55, 64.63 -0.64 M0.8 78.02 C17.43 58.64, 36.74 38.8, 70.63 0.04 M-0.07 78.91 C24.12 52.76, 47.15 25.85, 68.85 0.48 M6.73 80.92 C18.37 61.43, 33.9 45.57, 74.39 1.11 M5.4 79.78 C29.58 50.34, 55.35 22.1, 74.18 0.2 M10.59 79.6 C37.55 48.21, 63.29 16.78, 80.18 -1.42 M11.07 77.78 C33.82 54.21, 55.56 29.16, 79.3 -0.22 M14.45 78.19 C34.56 57.1, 51.09 39.16, 85.72 1.59 M15.58 79.47 C41.27 51.71, 63.54 23.12, 85.29 -0.12 M23.63 79.74 C46.13 47.64, 73.21 19.29, 90.38 -1.38 M22.47 78.31 C49 46.95, 75.74 16.15, 90.06 -0.04 M28.08 79.62 C48.08 54.86, 69.27 30.14, 95.02 -1.2 M26.59 78.05 C49.79 52.28, 72.95 25.35, 95.31 -0.5 M34.28 78.88 C53.57 55.03, 73.05 32.95, 99.39 1.33 M33.1 77.98 C55 54.67, 76.13 29.37, 100.96 -0.61 M38.56 77.64 C61.32 51.52, 83.02 28.82, 105.99 0.85 M37.88 78.28 C56.9 57.67, 76.37 35.01, 106.07 -0.82 M43.02 80.41 C68.34 46.97, 95.44 17.34, 109.45 0.8 M42.44 79.29 C64.21 53.6, 85.54 29.4, 111.31 0.45 M48.87 77.57 C70.5 52.98, 93.79 25.16, 115.74 -0.43 M48.4 78.9 C72.24 51.87, 97.21 21.86, 117.22 0.84 M52.34 78.63 C67.23 61.16, 82.78 46.41, 122.84 0.07 M54.39 77.78 C77.38 51.27, 101.88 24.43, 121.91 -0.41 M58.04 77.71 C75.3 60.99, 90.63 42.2, 125.4 -0.55 M58.55 78.74 C80.88 52.58, 104.72 24.99, 126.83 1.17 M62.83 78.81 C84.39 52.37, 105.43 30.87, 133.94 -0.89 M63.37 78.02 C80.25 58.84, 98.42 38.9, 133.01 -0.74 M69.19 77.28 C92.88 53.08, 111.99 30.51, 136.22 2.18 M70.21 78.62 C95.03 49.5, 123.24 17.44, 137.49 0.15 M73.11 77.12 C99.08 52.29, 118.66 27.29, 145.15 -1.18 M74.21 77.6 C101.49 49.33, 126.73 18.59, 142.31 -0.04 M81.48 80.43 C104.89 49.1, 129.2 24.09, 148.14 -0.35 M80.72 79.41 C100.08 55.51, 120.41 31.36, 148.9 0.03 M83.24 77.46 C104.96 54.43, 125.99 32.63, 154.96 1.06 M85.6 79.92 C113 48.23, 139.27 17.17, 153.02 0.19 M90.14 80.27 C117.47 50.25, 140.98 20.92, 159.16 -1.33 M90.91 78.01 C106.17 59.63, 123.14 42.44, 159.23 0.1 M97.3 80.38 C124.76 47.84, 151.5 14.47, 165.91 0.61 M94.65 79.13 C110.3 60.68, 126.99 42.17, 163.79 0.52 M102.47 78.83 C117.15 60.97, 133.97 44.27, 169.37 0.99 M101.05 79.34 C127.05 49.58, 153.15 19.79, 169.12 0.68 M107.44 79.63 C126.4 57, 147.92 32.97, 176.61 1.19 M106.97 78.67 C131.13 49.91, 157.48 21.39, 174.74 -0.46 M109.83 79.08 C126.19 59.28, 143.05 45.89, 180.91 -0.7 M110.89 78.37 C134.56 52.29, 156.5 25.57, 179.69 1.12 M116.55 79.16 C135.87 55.01, 157.48 31.82, 185.72 -0.55 M117.3 78.28 C141.36 49.79, 167.51 21.6, 185.47 -0.15 M123.63 76.92 C143.18 54.24, 165.3 30.28, 189.97 1.23 M121.66 78.09 C141.77 57.02, 160.68 33.98, 190.51 -0.19 M125.6 77.85 C151.42 50.41, 175.26 24.2, 195.98 1 M126.83 78.7 C148.61 56.28, 169.19 32.81, 197.05 0.1 M131.36 77.22 C155.91 56.82, 174.59 29.89, 202.82 1.35 M134.04 79.51 C146.88 62.18, 159.84 44.76, 201.63 0.14 M137.58 77.51 C154.47 59.35, 171.9 41.15, 205.53 1.13 M137.25 79.73 C158.53 54.83, 180.59 29.58, 205.35 -0.27 M144.55 77.74 C157.03 62.1, 175.18 41.38, 206.54 7.19 M144.19 77.69 C163.44 55.81, 184.71 32.3, 206.33 6.62 M149.58 78.89 C164.92 60.62, 181.75 41.83, 208.04 13.87 M148.7 78.18 C166.01 59.91, 183.11 38.85, 207.19 12.01 M154.83 77.21 C165.83 65.73, 176.69 50.56, 207.5 19.2 M153.73 77.71 C165.27 66.51, 175.94 53.43, 207.59 18.7 M160.73 77.68 C172.46 65.84, 185.17 49.89, 208.26 24.31 M159.77 77.9 C169.68 67.58, 181.07 53.83, 205.88 24.36 M165.84 79.3 C171.82 70.34, 183.88 58.67, 206.76 31.47 M165.77 78.7 C176.52 65.32, 187.87 52.54, 205.45 31.61 M168.23 80.52 C179.87 68.86, 186.08 59.43, 205.18 37.8 M169.57 79.78 C183.18 64.31, 198.14 48.39, 206.36 37.56 M177.34 76.59 C186.35 63.76, 198.24 51.88, 208.14 44.81 M174.87 77.8 C185.65 66.44, 195.91 53.9, 207.14 43.39 M179.35 76.97 C187.09 71.17, 195.82 61.34, 205.85 48.61 M179.63 79.73 C189.86 69.39, 198.65 58.79, 207.03 48.41 M185.1 78.63 C194.33 71.6, 197.21 62.78, 207.55 53.23 M187.05 78.18 C194.83 68.52, 202.11 59.42, 206.42 55.36 M191.41 79.52 C194.48 72.11, 202.13 65.86, 204.71 60.74 M191.97 78.69 C196.47 73.27, 201.75 66.74, 207.13 60.49 M196.31 80.33 C201.17 73.96, 203.2 70.74, 207.46 68.54 M196.98 79.67 C198.94 75.63, 202.11 73.54, 206.25 67.1 M202.53 79.05 C203.06 78.21, 204.26 76.13, 206.37 73.24 M201.58 78.71 C203.44 77.4, 204.3 75.9, 206.74 73.36 M-0.33 78.11 C-0.33 78.11, -0.33 78.11, -0.33 78.11 M-0.33 78.11 C-0.33 78.11, -0.33 78.11, -0.33 78.11 M6.66 78.76 C4.29 77.23, 2.88 76.03, -0.59 73.61 M5.84 78.32 C3.7 76.67, 1.95 74.34, -0.32 73.36 M11.41 78.87 C7.68 74.77, 4.82 71.77, -0.58 66.1 M12.78 79.46 C9.38 76.5, 5.99 73.01, -0.63 67.8 M16.42 76.51 C12.94 75.92, 8.59 72.56, 1.63 61.41 M18.88 78.12 C14.4 74.53, 10.44 72.25, -0.11 63.13 M24.67 77.91 C19.71 72.98, 11.52 70.9, -1.46 55.84 M24.49 79.44 C18.68 73.62, 12.5 69.44, 0.78 56.87 M28.15 79.19 C24.89 74.76, 18.75 67.38, 0.69 51.29 M29.3 79.09 C20 70.85, 11.33 62.09, 0.9 52.68 M38.29 79.38 C27.02 72.47, 19.93 62.8, 0.8 46.57 M37.42 78.92 C26.99 69.92, 14.93 60.43, 0.05 47.71 M43.15 79.21 C24.51 66.67, 11.29 52.48, -0.93 39.9 M43.87 77.92 C29.75 68.08, 18.77 56.26, -0.61 41.36 M48.26 78.49 C34.93 65.94, 26 56.89, -0.15 37.57 M48.49 77.41 C35.24 67.29, 21.11 54.31, 1.1 35.82 M53.59 77.4 C37.29 63.08, 20.89 46.63, 0.25 32.07 M55.92 78.42 C43.26 68.63, 30.21 58.41, 0.07 30.18 M58.81 79.32 C44.25 67.1, 31.84 54.24, -1.27 26.68 M60 78.31 C37.8 57.36, 13.14 36.19, -0.41 24.96 M68 79.46 C41.79 56.12, 15.64 33.51, -0.23 21.6 M67.49 77.42 C45.44 60.84, 22.72 42, -0.93 20.19 M74.98 79.58 C56.44 63.9, 44.37 50.63, -1.51 14.63 M72.48 77.7 C52.97 60.75, 29.95 42.92, -0.32 15.97 M80.2 77.4 C50.71 54.03, 20.75 29.15, 1.24 11.21 M78.35 78.1 C56.24 56.26, 30.95 36.49, 0.04 8.5 M83.62 79.92 C65.26 63.66, 44.8 43.64, -1.72 5.12 M85.69 77.74 C52.32 48.11, 19.17 19.23, -0.05 4.69 M90.08 78.18 C63.57 52.14, 35.86 29.1, 1.09 1.21 M90.75 78.7 C55.54 48.1, 20.9 18.46, 0.81 -1.15 M97.92 79.9 C81.13 63.97, 61.94 46.47, 6.09 -1.32 M97.1 78.56 C65.22 50.14, 33.14 21.29, 6.3 -0.1 M104.35 80.3 C71.18 51.02, 37.86 21.7, 13.61 -2.61 M104.13 79.12 C78.56 59.03, 54.01 36.45, 12.52 -0.41 M110.34 79.38 C84.15 55.47, 57.82 35.73, 19.67 -0.43 M108.9 77.68 C91.08 62.54, 71.11 45.31, 18.76 0.21 M117.5 79.29 C94.46 62.61, 73.94 42.4, 23.27 -0.57 M116.16 78.34 C80.43 49.1, 45.27 19.12, 23.89 0.06 M121.43 79.14 C96.13 55.98, 72.83 35.95, 31.07 -0.31 M120.74 78.67 C102.23 61.81, 84.49 44.42, 30.07 -0.02 M128.37 79.56 C96.84 52.32, 63.33 26.02, 38.69 -1.54 M127.24 78.34 C104.95 58.03, 81.97 37.28, 37.16 0.11 M132.56 77.55 C98.02 48.02, 65.04 20, 43.67 -1.51 M134.5 77.77 C98.58 47.8, 62.9 17.15, 42.7 -0.84 M141.1 79.78 C114.33 55.34, 85.17 30.45, 50.28 0.59 M139.48 77.46 C113.92 54.66, 85.62 29.98, 49.8 -0.32 M146.88 79.96 C114.48 53.13, 85.13 26.05, 54.92 -1.65 M147.27 79.27 C127.4 62.99, 107.41 45.51, 55.61 -1.22 M153.88 77.59 C127.58 55.68, 104.13 37.66, 62.77 -1.19 M151.46 77.09 C128.38 57.92, 106.08 37.07, 61.01 -1.3 M157.88 78.62 C134.81 55.28, 109.31 36.94, 69.1 1.22 M157.88 77.47 C128.66 51.9, 96.67 24.89, 66.99 -0.48 M163.74 78.21 C138.31 57.04, 108.36 31.15, 72.2 -1.59 M164.98 78.3 C132.6 51.4, 101.31 23.94, 72.68 -1.53 M170.35 78.08 C134.59 48.23, 101.42 19.28, 78.26 -1.93 M169.84 78.07 C149.42 62.58, 130.08 45.61, 79.21 -0.85 M175.49 79.83 C154.53 59.41, 129.94 41.29, 86.69 -2.39 M176.06 79.21 C148.75 54.42, 121.97 28.54, 86.2 -1.69 M181.16 79.79 C157.47 55.99, 130.21 32.11, 90.8 0.73 M182.17 78.76 C153.92 53.14, 126.67 28.39, 91.4 -1.59 M190.26 77.55 C164.92 56.12, 135.6 33.92, 99.15 0.22 M189.42 78.96 C154.16 48.32, 118.71 17.72, 99.16 0.27 M195.96 78.83 C170.82 56.93, 147.09 35.48, 104.42 -0.68 M196.09 77.95 C168.33 55.97, 142.23 33.6, 104.37 -1.56 M202.52 76.75 C169.75 51.12, 136.36 23.25, 112.31 1.04 M201.53 79.06 C172.72 54.7, 144.35 28.32, 110.38 0.41 M205.49 76.57 C184.26 57.01, 160.51 39.56, 114.88 -1.07 M207.28 77.43 C186.57 60.74, 167.62 44.94, 115.43 -0.6 M206.74 72.49 C180.03 52.48, 155.2 27.89, 123.22 -2.26 M207.26 72.79 C178.13 48.46, 149.74 22.34, 122.38 -1.17 M204.97 68.78 C177.04 38.38, 144.12 12.67, 128.77 0.19 M207.32 66.49 C178.87 43.07, 150.05 18.03, 129.1 -0.86 M205.49 64.02 C177.66 39.44, 151.9 15.7, 136.23 0.31 M206.02 61.72 C190.57 49.2, 175.55 36.52, 134.43 -1.02 M206.83 58.5 C182.76 38.09, 159.14 18.14, 140.45 0.76 M206.42 56.79 C192.32 45.06, 180.01 31.61, 140.11 -1.43 M205.44 50.79 C187.25 34.02, 165.8 13.67, 147.76 -0.35 M207.71 51.7 C184.07 32.1, 160.02 12.14, 147.23 -1.64 M208.24 47.91 C186.37 28.81, 166.66 9.86, 152.64 -0.86 M206.92 46.21 C195.13 34.85, 182.7 25.94, 153.91 -0.39 M205.3 41.93 C190.71 26.66, 178 12.95, 159.05 0.26 M206.64 40.37 C189 23.88, 170.02 7.52, 159.74 -0.86 M206.43 36.1 C191.95 21.65, 176.24 10.01, 165.35 0.18 M206.64 34.64 C194.84 24.14, 183.32 15.23, 165.69 -1.45 M205.83 29.48 C194.75 19.97, 183.22 8.8, 173.14 -2.38 M207.62 30.38 C195.21 19.38, 184.18 10.68, 172.1 -0.44 M206.7 23.09 C195.99 14.49, 186.37 8.71, 176.65 -0.4 M206.86 24 C197.91 17.61, 189.1 8.6, 177.07 -1.3 M205.86 20.47 C201.56 12.83, 195.35 7.2, 183.37 -1.9 M205.92 19.44 C200.2 12.77, 193.1 7.12, 184.19 -0.13 M206.39 13.87 C203.32 9.36, 199.3 8, 191.43 0.77 M206.33 14.26 C201.51 9.86, 196.06 4.31, 188.93 -0.93 M206.4 8.89 C203.21 5.65, 202.3 5.4, 194.69 0.07 M207.15 8.45 C204.75 7.37, 202.37 4.2, 194.82 -0.44 M207.34 3.69 C205.36 2.57, 204.02 1.13, 202.05 -0.34 M207.45 4.07 C205.5 2.69, 204.17 1.88, 202.03 -0.44" stroke="#82c91e" stroke-width="0.5" fill="none"></path><path d="M-0.6 -1.56 C65.31 2.23, 130.21 2.01, 207.21 1.74 M-0.83 0.63 C58.65 -1.11, 118.53 -0.31, 207.05 0.75 M207.98 -0.69 C208.88 17.55, 205.91 37.07, 204.51 78.21 M205.41 0.08 C207.23 23.55, 206.83 48.62, 205.91 78.16 M206.52 79.97 C126.62 76.98, 43.14 76.55, -1.74 79.36 M205.59 78.9 C124.42 79.57, 40.98 79.31, -0.03 79.2 M1.3 78.16 C0.71 60.16, 0 46.88, -1.56 -0.44 M0.69 77.45 C-1.2 58.67, -1.01 37.78, -0.88 -0.53" stroke="#000000" stroke-width="1" fill="none"></path></g><g transform="translate(639.5333506266275 35.199981689453125) rotate(0 55 14)"><text x="55" y="21" font-family="Virgil, Segoe UI Emoji" font-size="20px" fill="#000000" text-anchor="middle" style="white-space: pre;" direction="ltr">子 updated</text></g><g stroke-linecap="round" transform="translate(882.0000305175781 10) rotate(0 103.19999694824219 39.199981689453125)"><path d="M0 0 C0 0, 0 0, 0 0 M0 0 C0 0, 0 0, 0 0 M0.22 6.51 C0.35 4.59, 2.17 4.26, 5.12 -0.27 M-0.43 6.38 C1.35 4.68, 2.59 2.9, 5.24 0.1 M0.14 11.01 C2.51 9.13, 7.02 6.09, 11.09 0.89 M0.55 12.78 C3.63 8.36, 8.23 2.83, 10.95 -0.61 M-2.01 19.34 C4.26 15.14, 9.88 7.04, 17.59 1.09 M0.76 18.86 C3.78 14.24, 6.93 10.51, 14.77 -0.14 M1.3 24.42 C2.98 21.03, 9.85 12.88, 19.68 1.33 M0.47 24 C7.49 14.98, 15.7 6.76, 20.83 0.34 M-0.79 28.53 C8.85 22.48, 15.29 10.4, 26.66 1.4 M-0.87 31.47 C6.64 21.67, 14.27 13.77, 26.88 0.44 M-1.5 34.88 C10.8 23.43, 24.15 6.66, 33.63 -0.85 M-1.19 37.55 C11.17 23.67, 24.93 9.6, 31.17 0.12 M0.19 40.99 C13.27 24.77, 28.57 9.16, 34.92 0.15 M0.05 43.27 C7.56 32.91, 16.43 23.8, 36.96 0.94 M0.2 48.32 C11.68 36.16, 22.44 20.9, 43.99 -1.01 M-0.41 47.97 C14.83 31.63, 31.77 12.24, 43.51 -0.69 M0.6 56.37 C12.17 38.88, 27.63 23.92, 46.82 0.72 M0.63 55.37 C14.68 38.41, 27.82 23, 48.46 -0.14 M-1.06 60.11 C13.21 45.33, 23.94 33.89, 53.74 -1.82 M-0.75 60.88 C11.31 48.55, 22.09 35.63, 52.8 0.69 M-0.49 68.03 C19.26 42.23, 42.28 19.07, 56.86 1.42 M-1.24 67.68 C15.73 47.23, 33.26 27.72, 57.3 0.74 M1.98 71.82 C11.43 56.03, 25.77 43.36, 61.92 -0.98 M-0.67 72.21 C18.01 52.3, 37.99 31.22, 63.44 -0.94 M-1.3 79.23 C17.25 60.35, 37.3 38.47, 69.63 -0.49 M0.44 79.1 C14.95 62.36, 29.94 45.6, 67.87 0.15 M3.9 77.91 C23.44 56.21, 42.96 36.05, 75.63 0.72 M5.09 78.86 C25.95 55.87, 45.08 33.26, 75.31 -0.74 M10.54 78.63 C28.43 56.15, 49.25 34.08, 79.77 -0.82 M11.72 79.05 C30.56 57.98, 48.69 35.64, 79.03 -0.3 M16.08 77.83 C34.47 58.8, 56.15 36.66, 86.05 -0.55 M17.03 78.8 C29.47 61.69, 44.57 46.9, 85.76 0.15 M21.12 76.98 C44.44 51.72, 66.04 25.39, 91.97 -0.44 M21.71 78.07 C40.96 55.47, 61.55 32.33, 90.12 0 M26.73 79.99 C53.39 48.16, 80.12 15.1, 96.4 0.3 M26.84 79.07 C48.76 54.36, 70.18 29.19, 95.59 0.62 M34.41 78.6 C60.47 47.98, 84.87 17.08, 100.99 -1.3 M32.86 79.45 C51.54 56.74, 71.58 32.95, 100.92 0.72 M39.36 77.71 C61.96 53.9, 84.31 25.69, 105.99 1.31 M37.96 79.72 C53.17 61.97, 68.26 42.68, 107.09 -0.39 M42.45 76.79 C64.95 51.82, 83.71 29.77, 111.67 1.62 M43.07 78.49 C62.03 57.03, 81.4 34.89, 111.72 0.57 M47.54 79.24 C61.01 62.78, 74.97 46.54, 117.51 2.2 M48.26 79.81 C64.24 59.82, 80.64 42.58, 115.36 0.84 M53.37 77.76 C78.04 53.07, 100.79 25.99, 122.88 0.26 M53.72 78.51 C73.32 57.14, 91.98 33.87, 121.23 -0.75 M58.92 79.77 C85.13 49.14, 110.28 17.51, 127.69 1.37 M58.13 79.45 C81.72 52.31, 104.33 27.23, 126.93 -0.23 M63.31 76.69 C90.64 48.5, 118.95 16.9, 131.59 1.49 M63.65 78.89 C88.46 52.46, 111.69 24.93, 132.68 -0.47 M71.18 77.42 C86.9 59.32, 103.93 39.9, 139.36 0.42 M68.37 79.76 C85.08 60.23, 100.37 42.16, 137.83 0.19 M76.53 77.66 C90.02 60.92, 108.97 41.71, 144.8 -0.87 M75.19 79.02 C93.33 57.65, 111.28 36.86, 143.73 -0.8 M80.1 77.27 C102.99 52.63, 126.14 23.69, 148.06 1.14 M80.3 78.91 C102.9 50.99, 126.07 25.14, 148.22 1.16 M84.64 78.46 C104.37 59.48, 124.87 37.01, 155.58 -2.08 M85.45 79.08 C105.65 53.84, 126.07 30.02, 154.52 -0.92 M91.5 79.32 C109.45 56.06, 130.33 31.5, 157.4 -1.75 M89.67 78.09 C114.99 51.48, 139.39 23.1, 159.72 -0.25 M97.33 79.55 C122.87 46.32, 149.43 18.33, 163.08 1.57 M95 79.03 C116.71 55.54, 136.22 33.03, 163.67 -0.99 M101.27 78.5 C122.98 55.56, 141.88 31.99, 171.05 -0.59 M100.74 79.53 C121.7 55.32, 142.54 30.95, 169.44 1.08 M106.35 80.6 C124.54 59.63, 143.07 39, 176.5 0.7 M105.9 79.11 C124.47 59.1, 142.06 36.67, 174.25 -0.12 M111.35 76.7 C137.34 53.56, 159.95 24.17, 180.73 1.22 M112.19 78.48 C132.33 54.87, 152.7 33.21, 179.93 0.31 M116.19 77.46 C135.53 56.94, 151.79 38.56, 187.09 0.88 M116.35 78.85 C135.18 59.14, 153.25 36.98, 185.82 -0.41 M121.77 78.73 C142.83 56.03, 162.63 32.73, 190.25 1.2 M123.2 79.23 C147.85 50.67, 171.13 23.19, 191.23 0.6 M127.38 78.91 C152.51 52.44, 177.74 23.23, 196.18 -1.4 M128 79.79 C152.68 52.34, 176.24 24.79, 196.38 -0.9 M134.59 80.34 C149.25 59.28, 167.51 43.22, 199.46 1.83 M133.42 79.1 C158.55 46.2, 186.77 15.76, 200.84 -0.84 M136.55 78.67 C152.92 62.4, 169.37 43.45, 206.51 2.07 M137.97 79.52 C163.09 50.95, 184.97 23.38, 205.77 1.13 M141.95 80.22 C165.29 53.44, 185.36 31.46, 207.03 4.57 M142.95 78.44 C159.81 60.15, 174.73 43.12, 206.47 5.28 M148.35 79.4 C169.59 55.21, 191.49 32.58, 206.34 12.22 M148.87 79.65 C167.54 57.21, 186.72 35.99, 205.77 13.26 M154.05 80.01 C170.27 58.86, 190.34 39.12, 204.93 17.74 M154.38 78.63 C167.67 63.38, 181.52 49.53, 206.58 18.23 M159.51 80.69 C171.99 64.85, 186.94 48.68, 205.03 23.06 M158.75 79.84 C175 60.68, 189.66 43.2, 205.62 24.2 M163.17 80.26 C180.36 62.27, 192.89 47.02, 205.82 29.37 M164.75 78.08 C173.32 67.99, 181.7 58.41, 205.66 30.03 M170.84 79.09 C182.63 63.36, 196.52 47.88, 208.14 34.82 M169.15 79.76 C179.02 69.54, 186.62 60.12, 207.24 37.02 M175.61 76.48 C187.38 64.68, 199.16 55.08, 207.1 44.15 M175.59 78.24 C184.92 67.27, 194.72 58.18, 206.4 42.5 M179.18 80.06 C187.91 70.69, 194.93 61.63, 207.32 46.72 M181.07 79.12 C188.96 69.65, 195.72 61.52, 206.97 47.82 M187.77 79.12 C192.41 68.4, 203.34 58.21, 208.29 54 M186.87 77.58 C192.56 70.13, 198.8 63.95, 206.98 55.76 M189.46 78.01 C196.37 72.55, 198.42 67.9, 207.61 61.62 M190.98 79.67 C195.84 73.5, 202.31 65.89, 206.98 60.49 M197.2 78.46 C199.19 75.2, 204.6 71.74, 205.84 67.03 M196.36 78.52 C199.22 76.58, 200.41 73.6, 205.92 67.18 M202.14 79.29 C203.8 76.59, 204.62 75.17, 206.32 74.03 M202.19 78.89 C203.15 77.33, 204.9 75.53, 206.26 73.54" stroke="#fa5252" stroke-width="0.5" fill="none"></path><path d="M0.63 1.06 C49.59 2.45, 98.28 3.36, 206.16 0 M-0.45 -0.42 C70.06 -0.92, 140.08 -0.55, 205.89 0.87 M208.11 -1.5 C205.76 17.89, 205.13 37.64, 206.62 79.08 M206.97 -0.83 C205.79 16.59, 205.13 33.22, 207.34 77.99 M208.02 77.94 C154.78 79.13, 102.33 80.99, 1.77 78.86 M206.94 78.4 C130.96 79.18, 56.25 80.24, -0.78 78.6 M0.89 76.84 C-0.34 58.88, -2.07 35.25, -0.83 0.59 M-0.97 78.95 C-1.32 55.2, -1.42 31.61, 0.59 -0.82" stroke="#000000" stroke-width="1" fill="none"></path></g><g transform="translate(930.2000274658203 35.199981689453125) rotate(0 55 14)"><text x="55" y="21" font-family="Virgil, Segoe UI Emoji" font-size="20px" fill="#000000" text-anchor="middle" style="white-space: pre;" direction="ltr">父 updated</text></g><g stroke-linecap="round"><g transform="translate(215.00003051757812 45.19993591308594) rotate(0 41.69691350219306 -0.35261526937421195)"><path d="M0.72 0.57 C14.85 0.59, 69.82 0.67, 83.76 0.55 M-0.37 -0.17 C13.75 -0.55, 69.01 -1.5, 83.11 -1.29" stroke="#000000" stroke-width="1" fill="none"></path></g><g transform="translate(215.00003051757812 45.19993591308594) rotate(0 41.69691350219306 -0.35261526937421195)"><path d="M55.91 10.01 C61.8 8.67, 66.59 4.51, 83.86 -3.15 M55.35 9.5 C66.17 6.21, 75.31 2.51, 82.52 -0.5" stroke="#000000" stroke-width="1" fill="none"></path></g><g transform="translate(215.00003051757812 45.19993591308594) rotate(0 41.69691350219306 -0.35261526937421195)"><path d="M55.84 -10.51 C61.81 -7.5, 66.62 -7.31, 83.86 -3.15 M55.27 -11.02 C66.02 -6.71, 75.18 -2.8, 82.52 -0.5" stroke="#000000" stroke-width="1" fill="none"></path></g></g><g stroke-linecap="round"><g transform="translate(511.0000610351563 46.7999267578125) rotate(0 37.98027416627389 0.8795307413782609)"><path d="M0.57 0.56 C13.26 0.77, 64 1.94, 76.55 1.98 M-0.59 -0.19 C11.95 -0.34, 63.29 0.09, 75.88 0.47" stroke="#000000" stroke-width="1" fill="none"></path></g><g transform="translate(511.0000610351563 46.7999267578125) rotate(0 37.98027416627389 0.8795307413782609)"><path d="M48.46 11.15 C58.93 6.56, 66.48 4.31, 74.02 1.88 M47.95 10.97 C55.49 7.12, 62.72 4.66, 76.67 0.12" stroke="#000000" stroke-width="1" fill="none"></path></g><g transform="translate(511.0000610351563 46.7999267578125) rotate(0 37.98027416627389 0.8795307413782609)"><path d="M48.81 -9.37 C59.29 -7.08, 66.72 -2.45, 74.02 1.88 M48.3 -9.55 C55.66 -8.27, 62.8 -5.6, 76.67 0.12" stroke="#000000" stroke-width="1" fill="none"></path></g></g><g stroke-linecap="round"><g transform="translate(801.400146484375 49.99992370605469) rotate(0 39.487463986552314 0.8818684740369775)"><path d="M0.56 0.55 C13.71 0.54, 66.6 0.43, 79.58 0.53 M-0.6 -0.21 C12.42 -0.08, 66.21 2.1, 79.25 1.98" stroke="#000000" stroke-width="1" fill="none"></path></g><g transform="translate(801.400146484375 49.99992370605469) rotate(0 39.487463986552314 0.8818684740369775)"><path d="M51.77 13.66 C60.75 8.06, 71.99 2.71, 80.66 0.97 M51.59 12.54 C57.43 10.1, 64.59 7.45, 78.9 2.83" stroke="#000000" stroke-width="1" fill="none"></path></g><g transform="translate(801.400146484375 49.99992370605469) rotate(0 39.487463986552314 0.8818684740369775)"><path d="M52.17 -6.86 C61.1 -5.07, 72.19 -3.05, 80.66 0.97 M51.98 -7.98 C57.8 -5.23, 64.86 -2.69, 78.9 2.83" stroke="#000000" stroke-width="1" fill="none"></path></g></g></svg>